%TF.GenerationSoftware,KiCad,Pcbnew,10.0.4*%
%TF.CreationDate,2026-07-27T15:15:24+09:00*%
%TF.ProjectId,WifeSignal3ch,57696665-5369-4676-9e61-6c3363682e6b,rev?*%
%TF.SameCoordinates,Original*%
%TF.FileFunction,Legend,Top*%
%TF.FilePolarity,Positive*%
%FSLAX45Y45*%
G04 Gerber Fmt 4.5, Leading zero omitted, Abs format (unit mm)*
G04 Created by KiCad (PCBNEW 10.0.4) date 2026-07-27 15:15:24*
%MOMM*%
%LPD*%
G01*
G04 APERTURE LIST*
%ADD10C,0.150000*%
%ADD11C,0.120000*%
G04 APERTURE END LIST*
D10*
X11313476Y-4299006D02*
X11303952Y-4294244D01*
X11303952Y-4294244D02*
X11294428Y-4284720D01*
X11294428Y-4284720D02*
X11280143Y-4270434D01*
X11280143Y-4270434D02*
X11270619Y-4265672D01*
X11270619Y-4265672D02*
X11261095Y-4265672D01*
X11265857Y-4289482D02*
X11256333Y-4284720D01*
X11256333Y-4284720D02*
X11246809Y-4275196D01*
X11246809Y-4275196D02*
X11242048Y-4256149D01*
X11242048Y-4256149D02*
X11242048Y-4222815D01*
X11242048Y-4222815D02*
X11246809Y-4203768D01*
X11246809Y-4203768D02*
X11256333Y-4194244D01*
X11256333Y-4194244D02*
X11265857Y-4189482D01*
X11265857Y-4189482D02*
X11284905Y-4189482D01*
X11284905Y-4189482D02*
X11294428Y-4194244D01*
X11294428Y-4194244D02*
X11303952Y-4203768D01*
X11303952Y-4203768D02*
X11308714Y-4222815D01*
X11308714Y-4222815D02*
X11308714Y-4256149D01*
X11308714Y-4256149D02*
X11303952Y-4275196D01*
X11303952Y-4275196D02*
X11294428Y-4284720D01*
X11294428Y-4284720D02*
X11284905Y-4289482D01*
X11284905Y-4289482D02*
X11265857Y-4289482D01*
X11403952Y-4289482D02*
X11346809Y-4289482D01*
X11375381Y-4289482D02*
X11375381Y-4189482D01*
X11375381Y-4189482D02*
X11365857Y-4203768D01*
X11365857Y-4203768D02*
X11356333Y-4213291D01*
X11356333Y-4213291D02*
X11346809Y-4218053D01*
X11116667Y-8053482D02*
X11116667Y-8124910D01*
X11116667Y-8124910D02*
X11111905Y-8139196D01*
X11111905Y-8139196D02*
X11102381Y-8148720D01*
X11102381Y-8148720D02*
X11088095Y-8153482D01*
X11088095Y-8153482D02*
X11078571Y-8153482D01*
X11207143Y-8086815D02*
X11207143Y-8153482D01*
X11183333Y-8048720D02*
X11159524Y-8120148D01*
X11159524Y-8120148D02*
X11221428Y-8120148D01*
X9595482Y-12983333D02*
X9666910Y-12983333D01*
X9666910Y-12983333D02*
X9681196Y-12988095D01*
X9681196Y-12988095D02*
X9690720Y-12997619D01*
X9690720Y-12997619D02*
X9695482Y-13011905D01*
X9695482Y-13011905D02*
X9695482Y-13021428D01*
X9605006Y-12940476D02*
X9600244Y-12935714D01*
X9600244Y-12935714D02*
X9595482Y-12926190D01*
X9595482Y-12926190D02*
X9595482Y-12902381D01*
X9595482Y-12902381D02*
X9600244Y-12892857D01*
X9600244Y-12892857D02*
X9605006Y-12888095D01*
X9605006Y-12888095D02*
X9614530Y-12883333D01*
X9614530Y-12883333D02*
X9624053Y-12883333D01*
X9624053Y-12883333D02*
X9638339Y-12888095D01*
X9638339Y-12888095D02*
X9695482Y-12945238D01*
X9695482Y-12945238D02*
X9695482Y-12883333D01*
X10466667Y-4007482D02*
X10466667Y-4078910D01*
X10466667Y-4078910D02*
X10461905Y-4093196D01*
X10461905Y-4093196D02*
X10452381Y-4102720D01*
X10452381Y-4102720D02*
X10438095Y-4107482D01*
X10438095Y-4107482D02*
X10428571Y-4107482D01*
X10504762Y-4007482D02*
X10566667Y-4007482D01*
X10566667Y-4007482D02*
X10533333Y-4045577D01*
X10533333Y-4045577D02*
X10547619Y-4045577D01*
X10547619Y-4045577D02*
X10557143Y-4050339D01*
X10557143Y-4050339D02*
X10561905Y-4055101D01*
X10561905Y-4055101D02*
X10566667Y-4064625D01*
X10566667Y-4064625D02*
X10566667Y-4088434D01*
X10566667Y-4088434D02*
X10561905Y-4097958D01*
X10561905Y-4097958D02*
X10557143Y-4102720D01*
X10557143Y-4102720D02*
X10547619Y-4107482D01*
X10547619Y-4107482D02*
X10519048Y-4107482D01*
X10519048Y-4107482D02*
X10509524Y-4102720D01*
X10509524Y-4102720D02*
X10504762Y-4097958D01*
X9645482Y-11383333D02*
X9716910Y-11383333D01*
X9716910Y-11383333D02*
X9731196Y-11388095D01*
X9731196Y-11388095D02*
X9740720Y-11397619D01*
X9740720Y-11397619D02*
X9745482Y-11411905D01*
X9745482Y-11411905D02*
X9745482Y-11421428D01*
X9745482Y-11283333D02*
X9745482Y-11340476D01*
X9745482Y-11311905D02*
X9645482Y-11311905D01*
X9645482Y-11311905D02*
X9659768Y-11321428D01*
X9659768Y-11321428D02*
X9669291Y-11330952D01*
X9669291Y-11330952D02*
X9674053Y-11340476D01*
X12308482Y-11397667D02*
X12260863Y-11431000D01*
X12308482Y-11454809D02*
X12208482Y-11454809D01*
X12208482Y-11454809D02*
X12208482Y-11416714D01*
X12208482Y-11416714D02*
X12213244Y-11407190D01*
X12213244Y-11407190D02*
X12218006Y-11402428D01*
X12218006Y-11402428D02*
X12227529Y-11397667D01*
X12227529Y-11397667D02*
X12241815Y-11397667D01*
X12241815Y-11397667D02*
X12251339Y-11402428D01*
X12251339Y-11402428D02*
X12256101Y-11407190D01*
X12256101Y-11407190D02*
X12260863Y-11416714D01*
X12260863Y-11416714D02*
X12260863Y-11454809D01*
X12208482Y-11364333D02*
X12208482Y-11302428D01*
X12208482Y-11302428D02*
X12246577Y-11335762D01*
X12246577Y-11335762D02*
X12246577Y-11321476D01*
X12246577Y-11321476D02*
X12251339Y-11311952D01*
X12251339Y-11311952D02*
X12256101Y-11307190D01*
X12256101Y-11307190D02*
X12265625Y-11302428D01*
X12265625Y-11302428D02*
X12289434Y-11302428D01*
X12289434Y-11302428D02*
X12298958Y-11307190D01*
X12298958Y-11307190D02*
X12303720Y-11311952D01*
X12303720Y-11311952D02*
X12308482Y-11321476D01*
X12308482Y-11321476D02*
X12308482Y-11350047D01*
X12308482Y-11350047D02*
X12303720Y-11359571D01*
X12303720Y-11359571D02*
X12298958Y-11364333D01*
X11608482Y-8466667D02*
X11560863Y-8500000D01*
X11608482Y-8523809D02*
X11508482Y-8523809D01*
X11508482Y-8523809D02*
X11508482Y-8485714D01*
X11508482Y-8485714D02*
X11513244Y-8476190D01*
X11513244Y-8476190D02*
X11518006Y-8471429D01*
X11518006Y-8471429D02*
X11527529Y-8466667D01*
X11527529Y-8466667D02*
X11541815Y-8466667D01*
X11541815Y-8466667D02*
X11551339Y-8471429D01*
X11551339Y-8471429D02*
X11556101Y-8476190D01*
X11556101Y-8476190D02*
X11560863Y-8485714D01*
X11560863Y-8485714D02*
X11560863Y-8523809D01*
X11518006Y-8428571D02*
X11513244Y-8423809D01*
X11513244Y-8423809D02*
X11508482Y-8414286D01*
X11508482Y-8414286D02*
X11508482Y-8390476D01*
X11508482Y-8390476D02*
X11513244Y-8380952D01*
X11513244Y-8380952D02*
X11518006Y-8376190D01*
X11518006Y-8376190D02*
X11527529Y-8371428D01*
X11527529Y-8371428D02*
X11537053Y-8371428D01*
X11537053Y-8371428D02*
X11551339Y-8376190D01*
X11551339Y-8376190D02*
X11608482Y-8433333D01*
X11608482Y-8433333D02*
X11608482Y-8371428D01*
X11958482Y-4997667D02*
X11910863Y-5031000D01*
X11958482Y-5054809D02*
X11858482Y-5054809D01*
X11858482Y-5054809D02*
X11858482Y-5016714D01*
X11858482Y-5016714D02*
X11863244Y-5007190D01*
X11863244Y-5007190D02*
X11868006Y-5002429D01*
X11868006Y-5002429D02*
X11877529Y-4997667D01*
X11877529Y-4997667D02*
X11891815Y-4997667D01*
X11891815Y-4997667D02*
X11901339Y-5002429D01*
X11901339Y-5002429D02*
X11906101Y-5007190D01*
X11906101Y-5007190D02*
X11910863Y-5016714D01*
X11910863Y-5016714D02*
X11910863Y-5054809D01*
X11958482Y-4902429D02*
X11958482Y-4959571D01*
X11958482Y-4931000D02*
X11858482Y-4931000D01*
X11858482Y-4931000D02*
X11872768Y-4940524D01*
X11872768Y-4940524D02*
X11882291Y-4950048D01*
X11882291Y-4950048D02*
X11887053Y-4959571D01*
X11456303Y-7380006D02*
X11446780Y-7375244D01*
X11446780Y-7375244D02*
X11437256Y-7365720D01*
X11437256Y-7365720D02*
X11422970Y-7351434D01*
X11422970Y-7351434D02*
X11413446Y-7346672D01*
X11413446Y-7346672D02*
X11403923Y-7346672D01*
X11408684Y-7370482D02*
X11399161Y-7365720D01*
X11399161Y-7365720D02*
X11389637Y-7356196D01*
X11389637Y-7356196D02*
X11384875Y-7337148D01*
X11384875Y-7337148D02*
X11384875Y-7303815D01*
X11384875Y-7303815D02*
X11389637Y-7284768D01*
X11389637Y-7284768D02*
X11399161Y-7275244D01*
X11399161Y-7275244D02*
X11408684Y-7270482D01*
X11408684Y-7270482D02*
X11427732Y-7270482D01*
X11427732Y-7270482D02*
X11437256Y-7275244D01*
X11437256Y-7275244D02*
X11446780Y-7284768D01*
X11446780Y-7284768D02*
X11451542Y-7303815D01*
X11451542Y-7303815D02*
X11451542Y-7337148D01*
X11451542Y-7337148D02*
X11446780Y-7356196D01*
X11446780Y-7356196D02*
X11437256Y-7365720D01*
X11437256Y-7365720D02*
X11427732Y-7370482D01*
X11427732Y-7370482D02*
X11408684Y-7370482D01*
X11489637Y-7280006D02*
X11494399Y-7275244D01*
X11494399Y-7275244D02*
X11503923Y-7270482D01*
X11503923Y-7270482D02*
X11527732Y-7270482D01*
X11527732Y-7270482D02*
X11537256Y-7275244D01*
X11537256Y-7275244D02*
X11542018Y-7280006D01*
X11542018Y-7280006D02*
X11546780Y-7289529D01*
X11546780Y-7289529D02*
X11546780Y-7299053D01*
X11546780Y-7299053D02*
X11542018Y-7313339D01*
X11542018Y-7313339D02*
X11484875Y-7370482D01*
X11484875Y-7370482D02*
X11546780Y-7370482D01*
X13113476Y-10949006D02*
X13103952Y-10944244D01*
X13103952Y-10944244D02*
X13094428Y-10934720D01*
X13094428Y-10934720D02*
X13080143Y-10920434D01*
X13080143Y-10920434D02*
X13070619Y-10915672D01*
X13070619Y-10915672D02*
X13061095Y-10915672D01*
X13065857Y-10939482D02*
X13056333Y-10934720D01*
X13056333Y-10934720D02*
X13046809Y-10925196D01*
X13046809Y-10925196D02*
X13042048Y-10906149D01*
X13042048Y-10906149D02*
X13042048Y-10872815D01*
X13042048Y-10872815D02*
X13046809Y-10853768D01*
X13046809Y-10853768D02*
X13056333Y-10844244D01*
X13056333Y-10844244D02*
X13065857Y-10839482D01*
X13065857Y-10839482D02*
X13084905Y-10839482D01*
X13084905Y-10839482D02*
X13094428Y-10844244D01*
X13094428Y-10844244D02*
X13103952Y-10853768D01*
X13103952Y-10853768D02*
X13108714Y-10872815D01*
X13108714Y-10872815D02*
X13108714Y-10906149D01*
X13108714Y-10906149D02*
X13103952Y-10925196D01*
X13103952Y-10925196D02*
X13094428Y-10934720D01*
X13094428Y-10934720D02*
X13084905Y-10939482D01*
X13084905Y-10939482D02*
X13065857Y-10939482D01*
X13142048Y-10839482D02*
X13203952Y-10839482D01*
X13203952Y-10839482D02*
X13170619Y-10877577D01*
X13170619Y-10877577D02*
X13184905Y-10877577D01*
X13184905Y-10877577D02*
X13194428Y-10882339D01*
X13194428Y-10882339D02*
X13199190Y-10887101D01*
X13199190Y-10887101D02*
X13203952Y-10896625D01*
X13203952Y-10896625D02*
X13203952Y-10920434D01*
X13203952Y-10920434D02*
X13199190Y-10929958D01*
X13199190Y-10929958D02*
X13194428Y-10934720D01*
X13194428Y-10934720D02*
X13184905Y-10939482D01*
X13184905Y-10939482D02*
X13156333Y-10939482D01*
X13156333Y-10939482D02*
X13146809Y-10934720D01*
X13146809Y-10934720D02*
X13142048Y-10929958D01*
X13016667Y-11826482D02*
X13016667Y-11897910D01*
X13016667Y-11897910D02*
X13011905Y-11912196D01*
X13011905Y-11912196D02*
X13002381Y-11921720D01*
X13002381Y-11921720D02*
X12988095Y-11926482D01*
X12988095Y-11926482D02*
X12978571Y-11926482D01*
X13111905Y-11826482D02*
X13064286Y-11826482D01*
X13064286Y-11826482D02*
X13059524Y-11874101D01*
X13059524Y-11874101D02*
X13064286Y-11869339D01*
X13064286Y-11869339D02*
X13073809Y-11864577D01*
X13073809Y-11864577D02*
X13097619Y-11864577D01*
X13097619Y-11864577D02*
X13107143Y-11869339D01*
X13107143Y-11869339D02*
X13111905Y-11874101D01*
X13111905Y-11874101D02*
X13116667Y-11883625D01*
X13116667Y-11883625D02*
X13116667Y-11907434D01*
X13116667Y-11907434D02*
X13111905Y-11916958D01*
X13111905Y-11916958D02*
X13107143Y-11921720D01*
X13107143Y-11921720D02*
X13097619Y-11926482D01*
X13097619Y-11926482D02*
X13073809Y-11926482D01*
X13073809Y-11926482D02*
X13064286Y-11921720D01*
X13064286Y-11921720D02*
X13059524Y-11916958D01*
%TO.C,Q1*%
D11*
X11143000Y-4785000D02*
X11503000Y-4785000D01*
X11139152Y-4783848D02*
G75*
G02*
X11323000Y-4340000I183848J183848D01*
G01*
X11323000Y-4340000D02*
G75*
G02*
X11506848Y-4783848I0J-260000D01*
G01*
%TO.C,J4*%
X11012000Y-8208000D02*
X11150000Y-8208000D01*
X11012000Y-8346000D02*
X11012000Y-8208000D01*
X11012000Y-8473000D02*
X11012000Y-9246000D01*
X11012000Y-8473000D02*
X11288000Y-8473000D01*
X11012000Y-9246000D02*
X11288000Y-9246000D01*
X11288000Y-8473000D02*
X11288000Y-9246000D01*
%TO.C,J2*%
X9562000Y-13338000D02*
X9562000Y-13200000D01*
X9700000Y-13338000D02*
X9562000Y-13338000D01*
X9827000Y-13338000D02*
X11616000Y-13338000D01*
X9827000Y-13338000D02*
X9827000Y-13062000D01*
X11616000Y-13338000D02*
X11616000Y-13062000D01*
X9827000Y-13062000D02*
X11616000Y-13062000D01*
%TO.C,J3*%
X10638000Y-4427000D02*
X10638000Y-5200000D01*
X10362000Y-5200000D02*
X10638000Y-5200000D01*
X10362000Y-4427000D02*
X10638000Y-4427000D01*
X10362000Y-4427000D02*
X10362000Y-5200000D01*
X10362000Y-4300000D02*
X10362000Y-4162000D01*
X10362000Y-4162000D02*
X10500000Y-4162000D01*
%TO.C,J1*%
X9562000Y-11814000D02*
X9562000Y-11676000D01*
X9700000Y-11814000D02*
X9562000Y-11814000D01*
X9827000Y-11814000D02*
X11616000Y-11814000D01*
X9827000Y-11814000D02*
X9827000Y-11538000D01*
X11616000Y-11814000D02*
X11616000Y-11538000D01*
X9827000Y-11538000D02*
X11616000Y-11538000D01*
%TO.C,R3*%
X12363000Y-11708000D02*
X12363000Y-11054000D01*
X12396000Y-11708000D02*
X12363000Y-11708000D01*
X12604000Y-11708000D02*
X12637000Y-11708000D01*
X12637000Y-11708000D02*
X12637000Y-11054000D01*
X12363000Y-11054000D02*
X12396000Y-11054000D01*
X12637000Y-11054000D02*
X12604000Y-11054000D01*
%TO.C,R2*%
X11663000Y-8777000D02*
X11663000Y-8123000D01*
X11696000Y-8777000D02*
X11663000Y-8777000D01*
X11904000Y-8777000D02*
X11937000Y-8777000D01*
X11937000Y-8777000D02*
X11937000Y-8123000D01*
X11663000Y-8123000D02*
X11696000Y-8123000D01*
X11937000Y-8123000D02*
X11904000Y-8123000D01*
%TO.C,R1*%
X12013000Y-5308000D02*
X12013000Y-4654000D01*
X12046000Y-5308000D02*
X12013000Y-5308000D01*
X12254000Y-5308000D02*
X12287000Y-5308000D01*
X12287000Y-5308000D02*
X12287000Y-4654000D01*
X12013000Y-4654000D02*
X12046000Y-4654000D01*
X12287000Y-4654000D02*
X12254000Y-4654000D01*
%TO.C,Q2*%
X11285827Y-7866000D02*
X11645827Y-7866000D01*
X11281980Y-7864848D02*
G75*
G02*
X11465827Y-7421000I183848J183848D01*
G01*
X11465827Y-7421000D02*
G75*
G02*
X11649675Y-7864848I0J-260000D01*
G01*
%TO.C,Q3*%
X12943000Y-11435000D02*
X13303000Y-11435000D01*
X12939152Y-11433848D02*
G75*
G02*
X13123000Y-10990000I183848J183848D01*
G01*
X13123000Y-10990000D02*
G75*
G02*
X13306848Y-11433848I0J-260000D01*
G01*
%TO.C,J5*%
X12912000Y-11981000D02*
X13050000Y-11981000D01*
X12912000Y-12119000D02*
X12912000Y-11981000D01*
X12912000Y-12246000D02*
X12912000Y-13019000D01*
X12912000Y-12246000D02*
X13188000Y-12246000D01*
X12912000Y-13019000D02*
X13188000Y-13019000D01*
X13188000Y-12246000D02*
X13188000Y-13019000D01*
%TD*%
M02*
