%TF.GenerationSoftware,KiCad,Pcbnew,10.0.4*%
%TF.CreationDate,2026-07-27T15:15:23+09:00*%
%TF.ProjectId,WifeSignal3ch,57696665-5369-4676-9e61-6c3363682e6b,rev?*%
%TF.SameCoordinates,Original*%
%TF.FileFunction,Copper,L1,Top*%
%TF.FilePolarity,Positive*%
%FSLAX45Y45*%
G04 Gerber Fmt 4.5, Leading zero omitted, Abs format (unit mm)*
G04 Created by KiCad (PCBNEW 10.0.4) date 2026-07-27 15:15:23*
%MOMM*%
%LPD*%
G01*
G04 APERTURE LIST*
%TA.AperFunction,ComponentPad*%
%ADD10R,1.050000X1.500000*%
%TD*%
%TA.AperFunction,ComponentPad*%
%ADD11O,1.050000X1.500000*%
%TD*%
%TA.AperFunction,ComponentPad*%
%ADD12R,1.700000X1.700000*%
%TD*%
%TA.AperFunction,ComponentPad*%
%ADD13C,1.700000*%
%TD*%
%TA.AperFunction,ComponentPad*%
%ADD14C,1.600000*%
%TD*%
%TA.AperFunction,Conductor*%
%ADD15C,0.200000*%
%TD*%
G04 APERTURE END LIST*
D10*
%TO.P,Q1,1,E_1*%
%TO.N,GND*%
X11196000Y-4600000D03*
D11*
%TO.P,Q1,2,B_2*%
%TO.N,Net-(Q1-B)*%
X11323000Y-4600000D03*
%TO.P,Q1,3,C_3*%
%TO.N,/LEDN_R*%
X11450000Y-4600000D03*
%TD*%
D12*
%TO.P,J4,1,P1_1*%
%TO.N,+5V*%
X11150000Y-8346000D03*
D13*
%TO.P,J4,2,P2_2*%
%TO.N,/LEDN_Y*%
X11150000Y-8600000D03*
%TO.P,J4,3,P3_3*%
%TO.N,GND*%
X11150000Y-8854000D03*
%TO.P,J4,4,P4_4*%
%TO.N,/GPIO4*%
X11150000Y-9108000D03*
%TD*%
D12*
%TO.P,J2,1,P1_1*%
%TO.N,/GPIO5*%
X9700000Y-13200000D03*
D13*
%TO.P,J2,2,P2_2*%
%TO.N,/GPIO6*%
X9954000Y-13200000D03*
%TO.P,J2,3,P3_3*%
%TO.N,/GPIO7*%
X10208000Y-13200000D03*
%TO.P,J2,4,P4_4*%
%TO.N,/GPIO8*%
X10462000Y-13200000D03*
%TO.P,J2,5,P5_5*%
%TO.N,/GPIO9*%
X10716000Y-13200000D03*
%TO.P,J2,6,P6_6*%
%TO.N,/GPIO10*%
X10970000Y-13200000D03*
%TO.P,J2,7,P7_7*%
%TO.N,/GPIO20*%
X11224000Y-13200000D03*
%TO.P,J2,8,P8_8*%
%TO.N,/GPIO21*%
X11478000Y-13200000D03*
%TD*%
%TO.P,J3,4,P4_4*%
%TO.N,/GPIO3*%
X10500000Y-5062000D03*
%TO.P,J3,3,P3_3*%
%TO.N,GND*%
X10500000Y-4808000D03*
%TO.P,J3,2,P2_2*%
%TO.N,/LEDN_R*%
X10500000Y-4554000D03*
D12*
%TO.P,J3,1,P1_1*%
%TO.N,+5V*%
X10500000Y-4300000D03*
%TD*%
%TO.P,J1,1,P1_1*%
%TO.N,+5V*%
X9700000Y-11676000D03*
D13*
%TO.P,J1,2,P2_2*%
%TO.N,GND*%
X9954000Y-11676000D03*
%TO.P,J1,3,P3_3*%
%TO.N,/3V3*%
X10208000Y-11676000D03*
%TO.P,J1,4,P4_4*%
%TO.N,/GPIO4*%
X10462000Y-11676000D03*
%TO.P,J1,5,P5_5*%
%TO.N,/GPIO3*%
X10716000Y-11676000D03*
%TO.P,J1,6,P6_6*%
%TO.N,/GPIO2*%
X10970000Y-11676000D03*
%TO.P,J1,7,P7_7*%
%TO.N,/GPIO1*%
X11224000Y-11676000D03*
%TO.P,J1,8,P8_8*%
%TO.N,/GPIO0*%
X11478000Y-11676000D03*
%TD*%
D14*
%TO.P,R3,1*%
%TO.N,/GPIO10*%
X12500000Y-11762000D03*
%TO.P,R3,2*%
%TO.N,Net-(Q3-B)*%
X12500000Y-11000000D03*
%TD*%
%TO.P,R2,1*%
%TO.N,/GPIO7*%
X11800000Y-8831000D03*
%TO.P,R2,2*%
%TO.N,Net-(Q2-B)*%
X11800000Y-8069000D03*
%TD*%
%TO.P,R1,1*%
%TO.N,/GPIO6*%
X12150000Y-5362000D03*
%TO.P,R1,2*%
%TO.N,Net-(Q1-B)*%
X12150000Y-4600000D03*
%TD*%
D10*
%TO.P,Q2,1,E_1*%
%TO.N,GND*%
X11338827Y-7681000D03*
D11*
%TO.P,Q2,2,B_2*%
%TO.N,Net-(Q2-B)*%
X11465827Y-7681000D03*
%TO.P,Q2,3,C_3*%
%TO.N,/LEDN_Y*%
X11592827Y-7681000D03*
%TD*%
D10*
%TO.P,Q3,1,E_1*%
%TO.N,GND*%
X12996000Y-11250000D03*
D11*
%TO.P,Q3,2,B_2*%
%TO.N,Net-(Q3-B)*%
X13123000Y-11250000D03*
%TO.P,Q3,3,C_3*%
%TO.N,/LEDN_G*%
X13250000Y-11250000D03*
%TD*%
D12*
%TO.P,J5,1,P1_1*%
%TO.N,+5V*%
X13050000Y-12119000D03*
D13*
%TO.P,J5,2,P2_2*%
%TO.N,/LEDN_G*%
X13050000Y-12373000D03*
%TO.P,J5,3,P3_3*%
%TO.N,GND*%
X13050000Y-12627000D03*
%TO.P,J5,4,P4_4*%
%TO.N,/GPIO5*%
X13050000Y-12881000D03*
%TD*%
%TO.N,+5V*%
D15*
X9700000Y-11676000D02*
X9700000Y-12100000D01*
%TO.N,/GPIO7*%
X11800000Y-8831000D02*
X12040000Y-8591000D01*
X12040000Y-8591000D02*
X12040000Y-5316437D01*
X12040000Y-5316437D02*
X12104436Y-5252000D01*
X12104436Y-5252000D02*
X12195563Y-5252000D01*
X12300000Y-5356437D02*
X12300000Y-11108000D01*
X12195563Y-5252000D02*
X12300000Y-5356437D01*
%TO.N,/GPIO6*%
X12150000Y-5362000D02*
X12150000Y-10750000D01*
X11363000Y-11537000D02*
X11363000Y-11791000D01*
X11363000Y-11791000D02*
X9954000Y-13200000D01*
X12150000Y-10750000D02*
X11363000Y-11537000D01*
%TO.N,/GPIO7*%
X10208000Y-13200000D02*
X12300000Y-11108000D01*
%TO.N,/LEDN_G*%
X13050000Y-12373000D02*
X13250000Y-12173000D01*
X13250000Y-12173000D02*
X13250000Y-11250000D01*
%TO.N,/GPIO5*%
X13050000Y-12881000D02*
X12616000Y-13315000D01*
X9815000Y-13315000D02*
X9700000Y-13200000D01*
X12616000Y-13315000D02*
X9815000Y-13315000D01*
%TO.N,/GPIO10*%
X12500000Y-11762000D02*
X12408000Y-11762000D01*
X12408000Y-11762000D02*
X10970000Y-13200000D01*
%TD*%
%TA.AperFunction,Conductor*%
%TO.N,+5V*%
G36*
X11304156Y-2750378D02*
G01*
X11849798Y-2799982D01*
X11850206Y-2800026D01*
X12247095Y-2849637D01*
X12252435Y-2851624D01*
X12549552Y-3049701D01*
X12550420Y-3050336D01*
X12798771Y-3249017D01*
X12800944Y-3251259D01*
X13098704Y-3648271D01*
X13100635Y-3652065D01*
X13300000Y-4300000D01*
X13487600Y-4300000D01*
X13494304Y-4301969D01*
X13498879Y-4307249D01*
X13500000Y-4312400D01*
X13500000Y-5838206D01*
X13498031Y-5844910D01*
X13492751Y-5849486D01*
X13485835Y-5850480D01*
X13479864Y-5847897D01*
X13476122Y-5844910D01*
X13456905Y-5829569D01*
X13419513Y-5804673D01*
X13394793Y-5791134D01*
X13380112Y-5783093D01*
X13339000Y-5764992D01*
X13338999Y-5764992D01*
X13338999Y-5764992D01*
X13321329Y-5758970D01*
X13296478Y-5750502D01*
X13296477Y-5750502D01*
X13296477Y-5750502D01*
X13285437Y-5747776D01*
X13252865Y-5739733D01*
X13252864Y-5739733D01*
X13208485Y-5732764D01*
X13163671Y-5729647D01*
X13118756Y-5730406D01*
X13118755Y-5730406D01*
X13080456Y-5734374D01*
X13074073Y-5735035D01*
X13064102Y-5736948D01*
X13029955Y-5743499D01*
X12986731Y-5755736D01*
X12986730Y-5755736D01*
X12944724Y-5771653D01*
X12944722Y-5771654D01*
X12904246Y-5791133D01*
X12904245Y-5791134D01*
X12865596Y-5814032D01*
X12865596Y-5814032D01*
X12843888Y-5829569D01*
X12834705Y-5836141D01*
X12829065Y-5840178D01*
X12794926Y-5869374D01*
X12763430Y-5901407D01*
X12734814Y-5936034D01*
X12734814Y-5936035D01*
X12709290Y-5973002D01*
X12687048Y-6012032D01*
X12668254Y-6052834D01*
X12653048Y-6095104D01*
X12641543Y-6138530D01*
X12633826Y-6182783D01*
X12629953Y-6227538D01*
X12629953Y-6272461D01*
X12633826Y-6317217D01*
X12641543Y-6361469D01*
X12653048Y-6404895D01*
X12668254Y-6447166D01*
X12687048Y-6487968D01*
X12709290Y-6526998D01*
X12734814Y-6563965D01*
X12734814Y-6563966D01*
X12763430Y-6598593D01*
X12794926Y-6630626D01*
X12808792Y-6642484D01*
X12829066Y-6659823D01*
X12865596Y-6685968D01*
X12904244Y-6708866D01*
X12944723Y-6728346D01*
X12944724Y-6728346D01*
X12986730Y-6744263D01*
X12986730Y-6744264D01*
X12986731Y-6744264D01*
X13029955Y-6756500D01*
X13074073Y-6764965D01*
X13118756Y-6769593D01*
X13131232Y-6769804D01*
X13163671Y-6770352D01*
X13163672Y-6770352D01*
X13163672Y-6770352D01*
X13208485Y-6767236D01*
X13208485Y-6767236D01*
X13208486Y-6767236D01*
X13252865Y-6760267D01*
X13296477Y-6749498D01*
X13338999Y-6735008D01*
X13380113Y-6716906D01*
X13419513Y-6695327D01*
X13456905Y-6670431D01*
X13479864Y-6652103D01*
X13486331Y-6649459D01*
X13493201Y-6650731D01*
X13498293Y-6655515D01*
X13500000Y-6661794D01*
X13500000Y-9538206D01*
X13498031Y-9544910D01*
X13492751Y-9549486D01*
X13485835Y-9550480D01*
X13479864Y-9547897D01*
X13476122Y-9544910D01*
X13456905Y-9529569D01*
X13419513Y-9504673D01*
X13394793Y-9491134D01*
X13380112Y-9483093D01*
X13339000Y-9464992D01*
X13338999Y-9464992D01*
X13338999Y-9464992D01*
X13321329Y-9458971D01*
X13296478Y-9450503D01*
X13296477Y-9450502D01*
X13296477Y-9450502D01*
X13285437Y-9447776D01*
X13252865Y-9439733D01*
X13252864Y-9439733D01*
X13208485Y-9432764D01*
X13163671Y-9429648D01*
X13118756Y-9430406D01*
X13118755Y-9430407D01*
X13080456Y-9434374D01*
X13074073Y-9435035D01*
X13064102Y-9436948D01*
X13029955Y-9443499D01*
X12986731Y-9455736D01*
X12986730Y-9455736D01*
X12944724Y-9471653D01*
X12944722Y-9471654D01*
X12904246Y-9491133D01*
X12904245Y-9491134D01*
X12865596Y-9514032D01*
X12865596Y-9514032D01*
X12843888Y-9529569D01*
X12834705Y-9536141D01*
X12829065Y-9540178D01*
X12794926Y-9569374D01*
X12763430Y-9601407D01*
X12734814Y-9636034D01*
X12734814Y-9636035D01*
X12709290Y-9673002D01*
X12687048Y-9712032D01*
X12668254Y-9752834D01*
X12653048Y-9795105D01*
X12641543Y-9838530D01*
X12633826Y-9882783D01*
X12629953Y-9927539D01*
X12629953Y-9972461D01*
X12633826Y-10017217D01*
X12641543Y-10061470D01*
X12653048Y-10104895D01*
X12668254Y-10147166D01*
X12687048Y-10187968D01*
X12709290Y-10226998D01*
X12734814Y-10263965D01*
X12734814Y-10263966D01*
X12763430Y-10298593D01*
X12794926Y-10330626D01*
X12808792Y-10342484D01*
X12829066Y-10359823D01*
X12865596Y-10385968D01*
X12904244Y-10408866D01*
X12944723Y-10428346D01*
X12944724Y-10428347D01*
X12986730Y-10444264D01*
X12986730Y-10444264D01*
X12986731Y-10444264D01*
X13029955Y-10456501D01*
X13074073Y-10464965D01*
X13118756Y-10469594D01*
X13131232Y-10469804D01*
X13163671Y-10470352D01*
X13163672Y-10470352D01*
X13163672Y-10470352D01*
X13208485Y-10467236D01*
X13208485Y-10467236D01*
X13208486Y-10467236D01*
X13252865Y-10460267D01*
X13296477Y-10449498D01*
X13338999Y-10435008D01*
X13380113Y-10416907D01*
X13419513Y-10395327D01*
X13456905Y-10370431D01*
X13479864Y-10352103D01*
X13486331Y-10349459D01*
X13493201Y-10350731D01*
X13498293Y-10355515D01*
X13500000Y-10361794D01*
X13500000Y-13487550D01*
X13498031Y-13494254D01*
X13492751Y-13498829D01*
X13487600Y-13499950D01*
X9562450Y-13499950D01*
X9555746Y-13497981D01*
X9551171Y-13492701D01*
X9550050Y-13487550D01*
X9550050Y-13319010D01*
X9552019Y-13312306D01*
X9557299Y-13307731D01*
X9564215Y-13306736D01*
X9570570Y-13309639D01*
X9572376Y-13311579D01*
X9579245Y-13320755D01*
X9583864Y-13324212D01*
X9590766Y-13329379D01*
X9590767Y-13329380D01*
X9604252Y-13334409D01*
X9604252Y-13334409D01*
X9604944Y-13334483D01*
X9610213Y-13335050D01*
X9744990Y-13335050D01*
X9751694Y-13337018D01*
X9753758Y-13338682D01*
X9778128Y-13363052D01*
X9778129Y-13363052D01*
X9778129Y-13363052D01*
X9791821Y-13370957D01*
X9791822Y-13370958D01*
X9807094Y-13375050D01*
X9807095Y-13375050D01*
X9823665Y-13375050D01*
X9823667Y-13375050D01*
X12607333Y-13375050D01*
X12607335Y-13375050D01*
X12608094Y-13375050D01*
X12623905Y-13375050D01*
X12623906Y-13375050D01*
X12639178Y-13370958D01*
X12644190Y-13368064D01*
X12652872Y-13363052D01*
X12664052Y-13351872D01*
X12664052Y-13351871D01*
X12665073Y-13350851D01*
X12665073Y-13350850D01*
X13001548Y-13014375D01*
X13007680Y-13011027D01*
X13014147Y-13011351D01*
X13018376Y-13012725D01*
X13039371Y-13016050D01*
X13039371Y-13016050D01*
X13060629Y-13016050D01*
X13060629Y-13016050D01*
X13081624Y-13012725D01*
X13101841Y-13006156D01*
X13120782Y-12996505D01*
X13122979Y-12994909D01*
X13137979Y-12984011D01*
X13137979Y-12984011D01*
X13137979Y-12984010D01*
X13153010Y-12968979D01*
X13153011Y-12968979D01*
X13153011Y-12968979D01*
X13165505Y-12951782D01*
X13165505Y-12951782D01*
X13165505Y-12951782D01*
X13175156Y-12932841D01*
X13181725Y-12912624D01*
X13185050Y-12891629D01*
X13185050Y-12870371D01*
X13181725Y-12849376D01*
X13175156Y-12829159D01*
X13165505Y-12810218D01*
X13165505Y-12810218D01*
X13165505Y-12810218D01*
X13153011Y-12793021D01*
X13137979Y-12777989D01*
X13120782Y-12765495D01*
X13120711Y-12765459D01*
X13119905Y-12765048D01*
X13114826Y-12760251D01*
X13113146Y-12753469D01*
X13115400Y-12746856D01*
X13119905Y-12742951D01*
X13120782Y-12742505D01*
X13122979Y-12740909D01*
X13137979Y-12730011D01*
X13137979Y-12730011D01*
X13137979Y-12730010D01*
X13153010Y-12714979D01*
X13153011Y-12714979D01*
X13153011Y-12714979D01*
X13165505Y-12697782D01*
X13165505Y-12697782D01*
X13165505Y-12697782D01*
X13175156Y-12678841D01*
X13181725Y-12658624D01*
X13185050Y-12637629D01*
X13185050Y-12616371D01*
X13181725Y-12595376D01*
X13175156Y-12575159D01*
X13165505Y-12556218D01*
X13165505Y-12556218D01*
X13165505Y-12556218D01*
X13153011Y-12539021D01*
X13137979Y-12523989D01*
X13120782Y-12511495D01*
X13120711Y-12511459D01*
X13119905Y-12511048D01*
X13114826Y-12506251D01*
X13113146Y-12499469D01*
X13115400Y-12492856D01*
X13119905Y-12488951D01*
X13120782Y-12488505D01*
X13122979Y-12486909D01*
X13137979Y-12476011D01*
X13137979Y-12476011D01*
X13137979Y-12476010D01*
X13153010Y-12460979D01*
X13153011Y-12460979D01*
X13153011Y-12460979D01*
X13165505Y-12443782D01*
X13165505Y-12443782D01*
X13165505Y-12443782D01*
X13175156Y-12424841D01*
X13181725Y-12404624D01*
X13185050Y-12383629D01*
X13185050Y-12362371D01*
X13181725Y-12341376D01*
X13180351Y-12337147D01*
X13180151Y-12330163D01*
X13183375Y-12324548D01*
X13286871Y-12221052D01*
X13286872Y-12221052D01*
X13298052Y-12209872D01*
X13303064Y-12201190D01*
X13305958Y-12196178D01*
X13310050Y-12180906D01*
X13310050Y-12165094D01*
X13310050Y-11362340D01*
X13312018Y-11355636D01*
X13314971Y-11352629D01*
X13314900Y-11352543D01*
X13315371Y-11352156D01*
X13315371Y-11352156D01*
X13315372Y-11352156D01*
X13329656Y-11337872D01*
X13340879Y-11321076D01*
X13348609Y-11302413D01*
X13352550Y-11282600D01*
X13352550Y-11217400D01*
X13348609Y-11197587D01*
X13340879Y-11178924D01*
X13340878Y-11178924D01*
X13340878Y-11178924D01*
X13329656Y-11162128D01*
X13315372Y-11147844D01*
X13298576Y-11136622D01*
X13298575Y-11136621D01*
X13279913Y-11128891D01*
X13279912Y-11128891D01*
X13260101Y-11124950D01*
X13260100Y-11124950D01*
X13239900Y-11124950D01*
X13239899Y-11124950D01*
X13220088Y-11128891D01*
X13220087Y-11128891D01*
X13201424Y-11136621D01*
X13193389Y-11141990D01*
X13186721Y-11144078D01*
X13179983Y-11142230D01*
X13179611Y-11141990D01*
X13171575Y-11136621D01*
X13152913Y-11128891D01*
X13152912Y-11128891D01*
X13133101Y-11124950D01*
X13133100Y-11124950D01*
X13112900Y-11124950D01*
X13112899Y-11124950D01*
X13093088Y-11128891D01*
X13093087Y-11128891D01*
X13085020Y-11132233D01*
X13078073Y-11132979D01*
X13073534Y-11131004D01*
X13073511Y-11131045D01*
X13073045Y-11130791D01*
X13072843Y-11130703D01*
X13072733Y-11130620D01*
X13072733Y-11130620D01*
X13072733Y-11130620D01*
X13059248Y-11125591D01*
X13059248Y-11125591D01*
X13053288Y-11124950D01*
X13053288Y-11124950D01*
X13053287Y-11124950D01*
X13053286Y-11124950D01*
X12938713Y-11124950D01*
X12938712Y-11124950D01*
X12932752Y-11125591D01*
X12919267Y-11130620D01*
X12919266Y-11130621D01*
X12907745Y-11139245D01*
X12907745Y-11139246D01*
X12899121Y-11150766D01*
X12899120Y-11150767D01*
X12894091Y-11164252D01*
X12893450Y-11170212D01*
X12893450Y-11170214D01*
X12893450Y-11329787D01*
X12893450Y-11329788D01*
X12894091Y-11335748D01*
X12899120Y-11349233D01*
X12899121Y-11349233D01*
X12907745Y-11360754D01*
X12907745Y-11360755D01*
X12919266Y-11369379D01*
X12919267Y-11369380D01*
X12932752Y-11374409D01*
X12932752Y-11374409D01*
X12933444Y-11374483D01*
X12938713Y-11375050D01*
X13053287Y-11375050D01*
X13059248Y-11374409D01*
X13072733Y-11369380D01*
X13072843Y-11369297D01*
X13072972Y-11369249D01*
X13073511Y-11368955D01*
X13073553Y-11369032D01*
X13079389Y-11366855D01*
X13085020Y-11367767D01*
X13093087Y-11371109D01*
X13108855Y-11374245D01*
X13112899Y-11375050D01*
X13112900Y-11375050D01*
X13112900Y-11375050D01*
X13133100Y-11375050D01*
X13133100Y-11375050D01*
X13152913Y-11371109D01*
X13171576Y-11363379D01*
X13171576Y-11363378D01*
X13171704Y-11363310D01*
X13171779Y-11363294D01*
X13172138Y-11363145D01*
X13172167Y-11363214D01*
X13178544Y-11361885D01*
X13185069Y-11364385D01*
X13189206Y-11370015D01*
X13189950Y-11374245D01*
X13189950Y-11987905D01*
X13187981Y-11994609D01*
X13182701Y-11999185D01*
X13175785Y-12000179D01*
X13170119Y-11997832D01*
X13159209Y-11989665D01*
X13159209Y-11989664D01*
X13145738Y-11984640D01*
X13145737Y-11984640D01*
X13139784Y-11984000D01*
X13075000Y-11984000D01*
X13075000Y-12075699D01*
X13069299Y-12072407D01*
X13056583Y-12069000D01*
X13043417Y-12069000D01*
X13030701Y-12072407D01*
X13025000Y-12075699D01*
X13025000Y-11984000D01*
X12960215Y-11984000D01*
X12954263Y-11984640D01*
X12954262Y-11984640D01*
X12940791Y-11989664D01*
X12940791Y-11989665D01*
X12929281Y-11998281D01*
X12929281Y-11998281D01*
X12920665Y-12009791D01*
X12920664Y-12009791D01*
X12915640Y-12023262D01*
X12915640Y-12023263D01*
X12915000Y-12029215D01*
X12915000Y-12094000D01*
X13006699Y-12094000D01*
X13003407Y-12099701D01*
X13000000Y-12112417D01*
X13000000Y-12125583D01*
X13003407Y-12138299D01*
X13006699Y-12144000D01*
X12915000Y-12144000D01*
X12915000Y-12208784D01*
X12915640Y-12214737D01*
X12915640Y-12214738D01*
X12920664Y-12228209D01*
X12920665Y-12228209D01*
X12929281Y-12239719D01*
X12929281Y-12239719D01*
X12940791Y-12248335D01*
X12940791Y-12248335D01*
X12953947Y-12253242D01*
X12959540Y-12257429D01*
X12961982Y-12263976D01*
X12960497Y-12270803D01*
X12958382Y-12273628D01*
X12946989Y-12285021D01*
X12934495Y-12302218D01*
X12924844Y-12321158D01*
X12918275Y-12341376D01*
X12914950Y-12362371D01*
X12914950Y-12383629D01*
X12918275Y-12404624D01*
X12924844Y-12424841D01*
X12934495Y-12443782D01*
X12946989Y-12460979D01*
X12962021Y-12476011D01*
X12979218Y-12488505D01*
X12980095Y-12488952D01*
X12985174Y-12493749D01*
X12986854Y-12500531D01*
X12984600Y-12507145D01*
X12980095Y-12511048D01*
X12979218Y-12511495D01*
X12962021Y-12523989D01*
X12946989Y-12539021D01*
X12934495Y-12556218D01*
X12924844Y-12575158D01*
X12918275Y-12595376D01*
X12914950Y-12616371D01*
X12914950Y-12637629D01*
X12918275Y-12658624D01*
X12924844Y-12678841D01*
X12934495Y-12697782D01*
X12946989Y-12714979D01*
X12962021Y-12730011D01*
X12979218Y-12742505D01*
X12980095Y-12742952D01*
X12985174Y-12747749D01*
X12986854Y-12754531D01*
X12984600Y-12761145D01*
X12980095Y-12765048D01*
X12979218Y-12765495D01*
X12962021Y-12777989D01*
X12946989Y-12793021D01*
X12934495Y-12810218D01*
X12924844Y-12829158D01*
X12918275Y-12849376D01*
X12914950Y-12870371D01*
X12914950Y-12891629D01*
X12918275Y-12912624D01*
X12918275Y-12912625D01*
X12919649Y-12916852D01*
X12919849Y-12923836D01*
X12916624Y-12929452D01*
X12594758Y-13251318D01*
X12588626Y-13254667D01*
X12585990Y-13254950D01*
X11619213Y-13254950D01*
X11612509Y-13252981D01*
X11607933Y-13247701D01*
X11606939Y-13240785D01*
X11607420Y-13238718D01*
X11609725Y-13231624D01*
X11613050Y-13210629D01*
X11613050Y-13189371D01*
X11609725Y-13168376D01*
X11603156Y-13148159D01*
X11593505Y-13129218D01*
X11593505Y-13129218D01*
X11593505Y-13129218D01*
X11581011Y-13112021D01*
X11565979Y-13096989D01*
X11548782Y-13084495D01*
X11529841Y-13074844D01*
X11529841Y-13074844D01*
X11529841Y-13074844D01*
X11509624Y-13068275D01*
X11509624Y-13068275D01*
X11509624Y-13068275D01*
X11493496Y-13065721D01*
X11488629Y-13064950D01*
X11467371Y-13064950D01*
X11462504Y-13065721D01*
X11446376Y-13068275D01*
X11426158Y-13074844D01*
X11407218Y-13084495D01*
X11390021Y-13096989D01*
X11374989Y-13112021D01*
X11362495Y-13129218D01*
X11362048Y-13130095D01*
X11357251Y-13135174D01*
X11350469Y-13136854D01*
X11343855Y-13134600D01*
X11339952Y-13130095D01*
X11339505Y-13129218D01*
X11327011Y-13112021D01*
X11311979Y-13096989D01*
X11294782Y-13084495D01*
X11275841Y-13074844D01*
X11275841Y-13074844D01*
X11275841Y-13074844D01*
X11255624Y-13068275D01*
X11255624Y-13068275D01*
X11255624Y-13068275D01*
X11239496Y-13065721D01*
X11234629Y-13064950D01*
X11219910Y-13064950D01*
X11213206Y-13062981D01*
X11208630Y-13057701D01*
X11207636Y-13050785D01*
X11210538Y-13044430D01*
X11211141Y-13043782D01*
X11715903Y-12539021D01*
X12395735Y-11859189D01*
X12401867Y-11855840D01*
X12408836Y-11856339D01*
X12413270Y-11859189D01*
X12415279Y-11861197D01*
X12430775Y-11872456D01*
X12431839Y-11873229D01*
X12443461Y-11879150D01*
X12450078Y-11882522D01*
X12450078Y-11882522D01*
X12450078Y-11882522D01*
X12460514Y-11885913D01*
X12469546Y-11888848D01*
X12479656Y-11890449D01*
X12489765Y-11892050D01*
X12489765Y-11892050D01*
X12510235Y-11892050D01*
X12510235Y-11892050D01*
X12530453Y-11888848D01*
X12549922Y-11882522D01*
X12568161Y-11873229D01*
X12577459Y-11866473D01*
X12584721Y-11861197D01*
X12584721Y-11861197D01*
X12584722Y-11861197D01*
X12599197Y-11846722D01*
X12599197Y-11846721D01*
X12599197Y-11846721D01*
X12609734Y-11832218D01*
X12611229Y-11830161D01*
X12620522Y-11811922D01*
X12626848Y-11792453D01*
X12630050Y-11772235D01*
X12630050Y-11751765D01*
X12626848Y-11731547D01*
X12625644Y-11727841D01*
X12623799Y-11722165D01*
X12620522Y-11712078D01*
X12620522Y-11712078D01*
X12620522Y-11712078D01*
X12616724Y-11704625D01*
X12611229Y-11693839D01*
X12607610Y-11688858D01*
X12599197Y-11677279D01*
X12584721Y-11662803D01*
X12568161Y-11650771D01*
X12568161Y-11650771D01*
X12568161Y-11650771D01*
X12562465Y-11647869D01*
X12549922Y-11641478D01*
X12530453Y-11635152D01*
X12512999Y-11632388D01*
X12510235Y-11631950D01*
X12489765Y-11631950D01*
X12487333Y-11632335D01*
X12469546Y-11635152D01*
X12450078Y-11641478D01*
X12431839Y-11650771D01*
X12415279Y-11662803D01*
X12400803Y-11677279D01*
X12388771Y-11693839D01*
X12383275Y-11704625D01*
X12378478Y-11709704D01*
X12378427Y-11709734D01*
X12371129Y-11713948D01*
X12371128Y-11713948D01*
X12359948Y-11725129D01*
X11018452Y-13066624D01*
X11012320Y-13069973D01*
X11005852Y-13069649D01*
X11001625Y-13068275D01*
X10987627Y-13066058D01*
X10980629Y-13064950D01*
X10959371Y-13064950D01*
X10954504Y-13065721D01*
X10938376Y-13068275D01*
X10918159Y-13074844D01*
X10899218Y-13084495D01*
X10882021Y-13096989D01*
X10866989Y-13112021D01*
X10854495Y-13129218D01*
X10854048Y-13130095D01*
X10849251Y-13135174D01*
X10842469Y-13136854D01*
X10835855Y-13134600D01*
X10831952Y-13130095D01*
X10831505Y-13129218D01*
X10819011Y-13112021D01*
X10803979Y-13096989D01*
X10786782Y-13084495D01*
X10767841Y-13074844D01*
X10767841Y-13074844D01*
X10767841Y-13074844D01*
X10747624Y-13068275D01*
X10747624Y-13068275D01*
X10747624Y-13068275D01*
X10731496Y-13065721D01*
X10726629Y-13064950D01*
X10705371Y-13064950D01*
X10700504Y-13065721D01*
X10684376Y-13068275D01*
X10664159Y-13074844D01*
X10645218Y-13084495D01*
X10628021Y-13096989D01*
X10612989Y-13112021D01*
X10600495Y-13129218D01*
X10600048Y-13130095D01*
X10595251Y-13135174D01*
X10588469Y-13136854D01*
X10581855Y-13134600D01*
X10577952Y-13130095D01*
X10577505Y-13129218D01*
X10565011Y-13112021D01*
X10549979Y-13096989D01*
X10532782Y-13084495D01*
X10513841Y-13074844D01*
X10513841Y-13074844D01*
X10513841Y-13074844D01*
X10493624Y-13068275D01*
X10493624Y-13068275D01*
X10493624Y-13068275D01*
X10477496Y-13065721D01*
X10472629Y-13064950D01*
X10457910Y-13064950D01*
X10451206Y-13062981D01*
X10446630Y-13057701D01*
X10445636Y-13050785D01*
X10448538Y-13044430D01*
X10449142Y-13043782D01*
X10897548Y-12595376D01*
X12348052Y-11144872D01*
X12355958Y-11131178D01*
X12360050Y-11115906D01*
X12360050Y-11100094D01*
X12360050Y-11099335D01*
X12360050Y-11099333D01*
X12360050Y-11063442D01*
X12362018Y-11056738D01*
X12367299Y-11052163D01*
X12374215Y-11051168D01*
X12380570Y-11054071D01*
X12383498Y-11057812D01*
X12388215Y-11067068D01*
X12388771Y-11068161D01*
X12400803Y-11084721D01*
X12415279Y-11099197D01*
X12430775Y-11110456D01*
X12431839Y-11111229D01*
X12443461Y-11117150D01*
X12450078Y-11120522D01*
X12450078Y-11120522D01*
X12450078Y-11120522D01*
X12460514Y-11123913D01*
X12469546Y-11126848D01*
X12479656Y-11128449D01*
X12489765Y-11130050D01*
X12489765Y-11130050D01*
X12510235Y-11130050D01*
X12510235Y-11130050D01*
X12530453Y-11126848D01*
X12549922Y-11120522D01*
X12568161Y-11111229D01*
X12577459Y-11104473D01*
X12584721Y-11099197D01*
X12584721Y-11099197D01*
X12584722Y-11099197D01*
X12599197Y-11084722D01*
X12599197Y-11084722D01*
X12599197Y-11084721D01*
X12604473Y-11077459D01*
X12611229Y-11068161D01*
X12620522Y-11049922D01*
X12626848Y-11030453D01*
X12630050Y-11010235D01*
X12630050Y-10989765D01*
X12626848Y-10969547D01*
X12620522Y-10950078D01*
X12620522Y-10950078D01*
X12620522Y-10950078D01*
X12616009Y-10941221D01*
X12611229Y-10931839D01*
X12610456Y-10930775D01*
X12599197Y-10915279D01*
X12584721Y-10900803D01*
X12568161Y-10888772D01*
X12568161Y-10888771D01*
X12568161Y-10888771D01*
X12562465Y-10885869D01*
X12549922Y-10879478D01*
X12530453Y-10873152D01*
X12512999Y-10870388D01*
X12510235Y-10869950D01*
X12489765Y-10869950D01*
X12487333Y-10870335D01*
X12469546Y-10873152D01*
X12450078Y-10879478D01*
X12431839Y-10888772D01*
X12415279Y-10900803D01*
X12400803Y-10915279D01*
X12388771Y-10931839D01*
X12383498Y-10942187D01*
X12378701Y-10947267D01*
X12371919Y-10948947D01*
X12365305Y-10946693D01*
X12360960Y-10941221D01*
X12360050Y-10936558D01*
X12360050Y-5348531D01*
X12360050Y-5348531D01*
X12355958Y-5333258D01*
X12355958Y-5333258D01*
X12355958Y-5333258D01*
X12353064Y-5328246D01*
X12353064Y-5328246D01*
X12348052Y-5319565D01*
X12336872Y-5308385D01*
X12336871Y-5308384D01*
X12336438Y-5307951D01*
X12336437Y-5307950D01*
X12244322Y-5215836D01*
X12244322Y-5215835D01*
X12232435Y-5203948D01*
X12232435Y-5203948D01*
X12223754Y-5198936D01*
X12223754Y-5198936D01*
X12223753Y-5198936D01*
X12218742Y-5196042D01*
X12203469Y-5191950D01*
X12187658Y-5191950D01*
X12186898Y-5191950D01*
X12186897Y-5191950D01*
X12113103Y-5191950D01*
X12113102Y-5191950D01*
X12112342Y-5191950D01*
X12096531Y-5191950D01*
X12089908Y-5193725D01*
X12081258Y-5196042D01*
X12081257Y-5196043D01*
X12067565Y-5203948D01*
X12067565Y-5203948D01*
X11991948Y-5279565D01*
X11991948Y-5279565D01*
X11986936Y-5288246D01*
X11986936Y-5288246D01*
X11984042Y-5293257D01*
X11984042Y-5293258D01*
X11984042Y-5293258D01*
X11979950Y-5308531D01*
X11979950Y-5308531D01*
X11979950Y-5325341D01*
X11979950Y-5325342D01*
X11979950Y-8560990D01*
X11977981Y-8567694D01*
X11976318Y-8569758D01*
X11844484Y-8701592D01*
X11838352Y-8704941D01*
X11831885Y-8704617D01*
X11830453Y-8704152D01*
X11812999Y-8701388D01*
X11810235Y-8700950D01*
X11789765Y-8700950D01*
X11787333Y-8701335D01*
X11769546Y-8704152D01*
X11750078Y-8710478D01*
X11731839Y-8719772D01*
X11715279Y-8731803D01*
X11700803Y-8746279D01*
X11688771Y-8762839D01*
X11679478Y-8781078D01*
X11673152Y-8800547D01*
X11669950Y-8820765D01*
X11669950Y-8841235D01*
X11673152Y-8861453D01*
X11679478Y-8880922D01*
X11688771Y-8899161D01*
X11700803Y-8915721D01*
X11715279Y-8930197D01*
X11730775Y-8941456D01*
X11731839Y-8942229D01*
X11743461Y-8948150D01*
X11750078Y-8951522D01*
X11750078Y-8951522D01*
X11750078Y-8951522D01*
X11760514Y-8954913D01*
X11769546Y-8957848D01*
X11779656Y-8959449D01*
X11789765Y-8961050D01*
X11789765Y-8961050D01*
X11810235Y-8961050D01*
X11810235Y-8961050D01*
X11830453Y-8957848D01*
X11849922Y-8951522D01*
X11868161Y-8942229D01*
X11877459Y-8935473D01*
X11884721Y-8930197D01*
X11884721Y-8930197D01*
X11884722Y-8930197D01*
X11899197Y-8915722D01*
X11899197Y-8915722D01*
X11899197Y-8915721D01*
X11906375Y-8905841D01*
X11911229Y-8899161D01*
X11920522Y-8880922D01*
X11926848Y-8861453D01*
X11930050Y-8841235D01*
X11930050Y-8820765D01*
X11926848Y-8800547D01*
X11926382Y-8799115D01*
X11926183Y-8792131D01*
X11929407Y-8786516D01*
X12068782Y-8647142D01*
X12074914Y-8643793D01*
X12081883Y-8644292D01*
X12087477Y-8648479D01*
X12089918Y-8655025D01*
X12089950Y-8655910D01*
X12089950Y-10719990D01*
X12087981Y-10726694D01*
X12086318Y-10728758D01*
X11314948Y-11500128D01*
X11314948Y-11500128D01*
X11309936Y-11508809D01*
X11309936Y-11508810D01*
X11307042Y-11513821D01*
X11307042Y-11513821D01*
X11307042Y-11513821D01*
X11302950Y-11529094D01*
X11302950Y-11529094D01*
X11302950Y-11544422D01*
X11300981Y-11551126D01*
X11295701Y-11555701D01*
X11288785Y-11556696D01*
X11284920Y-11555470D01*
X11275842Y-11550844D01*
X11275841Y-11550844D01*
X11275841Y-11550844D01*
X11255624Y-11544275D01*
X11255624Y-11544275D01*
X11255624Y-11544275D01*
X11239496Y-11541721D01*
X11234629Y-11540950D01*
X11213371Y-11540950D01*
X11208504Y-11541721D01*
X11192376Y-11544275D01*
X11172159Y-11550844D01*
X11153218Y-11560495D01*
X11136021Y-11572989D01*
X11120989Y-11588021D01*
X11108495Y-11605218D01*
X11108048Y-11606095D01*
X11103251Y-11611174D01*
X11096469Y-11612854D01*
X11089855Y-11610600D01*
X11085952Y-11606095D01*
X11085505Y-11605218D01*
X11073011Y-11588021D01*
X11057979Y-11572989D01*
X11040782Y-11560495D01*
X11021841Y-11550844D01*
X11021841Y-11550844D01*
X11021841Y-11550844D01*
X11001624Y-11544275D01*
X11001624Y-11544275D01*
X11001624Y-11544275D01*
X10985496Y-11541721D01*
X10980629Y-11540950D01*
X10959371Y-11540950D01*
X10954504Y-11541721D01*
X10938376Y-11544275D01*
X10918159Y-11550844D01*
X10899218Y-11560495D01*
X10882021Y-11572989D01*
X10866989Y-11588021D01*
X10854495Y-11605218D01*
X10854048Y-11606095D01*
X10849251Y-11611174D01*
X10842469Y-11612854D01*
X10835855Y-11610600D01*
X10831952Y-11606095D01*
X10831505Y-11605218D01*
X10819011Y-11588021D01*
X10803979Y-11572989D01*
X10786782Y-11560495D01*
X10767841Y-11550844D01*
X10767841Y-11550844D01*
X10767841Y-11550844D01*
X10747624Y-11544275D01*
X10747624Y-11544275D01*
X10747624Y-11544275D01*
X10731496Y-11541721D01*
X10726629Y-11540950D01*
X10705371Y-11540950D01*
X10700504Y-11541721D01*
X10684376Y-11544275D01*
X10664159Y-11550844D01*
X10645218Y-11560495D01*
X10628021Y-11572989D01*
X10612989Y-11588021D01*
X10600495Y-11605218D01*
X10600048Y-11606095D01*
X10595251Y-11611174D01*
X10588469Y-11612854D01*
X10581855Y-11610600D01*
X10577952Y-11606095D01*
X10577505Y-11605218D01*
X10565011Y-11588021D01*
X10549979Y-11572989D01*
X10532782Y-11560495D01*
X10513841Y-11550844D01*
X10513841Y-11550844D01*
X10513841Y-11550844D01*
X10493624Y-11544275D01*
X10493624Y-11544275D01*
X10493624Y-11544275D01*
X10477496Y-11541721D01*
X10472629Y-11540950D01*
X10451371Y-11540950D01*
X10446504Y-11541721D01*
X10430376Y-11544275D01*
X10410159Y-11550844D01*
X10391218Y-11560495D01*
X10374021Y-11572989D01*
X10358989Y-11588021D01*
X10346495Y-11605218D01*
X10346048Y-11606095D01*
X10341251Y-11611174D01*
X10334469Y-11612854D01*
X10327855Y-11610600D01*
X10323952Y-11606095D01*
X10323505Y-11605218D01*
X10311011Y-11588021D01*
X10295979Y-11572989D01*
X10278782Y-11560495D01*
X10259841Y-11550844D01*
X10259841Y-11550844D01*
X10259841Y-11550844D01*
X10239624Y-11544275D01*
X10239624Y-11544275D01*
X10239624Y-11544275D01*
X10223496Y-11541721D01*
X10218629Y-11540950D01*
X10197371Y-11540950D01*
X10192504Y-11541721D01*
X10176376Y-11544275D01*
X10156159Y-11550844D01*
X10137218Y-11560495D01*
X10120021Y-11572989D01*
X10104989Y-11588021D01*
X10092495Y-11605218D01*
X10092048Y-11606095D01*
X10087251Y-11611174D01*
X10080469Y-11612854D01*
X10073855Y-11610600D01*
X10069952Y-11606095D01*
X10069505Y-11605218D01*
X10057011Y-11588021D01*
X10041979Y-11572989D01*
X10024782Y-11560495D01*
X10005841Y-11550844D01*
X10005841Y-11550844D01*
X10005841Y-11550844D01*
X9985624Y-11544275D01*
X9985624Y-11544275D01*
X9985624Y-11544275D01*
X9969496Y-11541721D01*
X9964629Y-11540950D01*
X9943371Y-11540950D01*
X9938504Y-11541721D01*
X9922376Y-11544275D01*
X9902159Y-11550844D01*
X9883218Y-11560495D01*
X9866022Y-11572989D01*
X9854629Y-11584382D01*
X9848496Y-11587730D01*
X9841527Y-11587232D01*
X9835934Y-11583045D01*
X9834242Y-11579947D01*
X9829335Y-11566791D01*
X9829335Y-11566791D01*
X9820719Y-11555281D01*
X9820719Y-11555281D01*
X9809209Y-11546665D01*
X9809209Y-11546664D01*
X9795738Y-11541640D01*
X9795737Y-11541640D01*
X9789784Y-11541000D01*
X9725000Y-11541000D01*
X9725000Y-11632699D01*
X9719299Y-11629407D01*
X9706583Y-11626000D01*
X9693417Y-11626000D01*
X9680701Y-11629407D01*
X9675000Y-11632699D01*
X9675000Y-11541000D01*
X9610216Y-11541000D01*
X9604263Y-11541640D01*
X9604262Y-11541640D01*
X9590791Y-11546664D01*
X9590791Y-11546665D01*
X9579281Y-11555281D01*
X9572377Y-11564504D01*
X9566783Y-11568691D01*
X9559814Y-11569190D01*
X9553682Y-11565841D01*
X9550333Y-11559709D01*
X9550050Y-11557073D01*
X9550050Y-10315500D01*
X9552019Y-10308796D01*
X9557299Y-10304221D01*
X9564215Y-10303226D01*
X9570570Y-10306129D01*
X9571736Y-10307282D01*
X9575428Y-10311454D01*
X9607988Y-10342404D01*
X9643095Y-10370431D01*
X9680487Y-10395327D01*
X9719887Y-10416907D01*
X9719888Y-10416907D01*
X9719888Y-10416907D01*
X9745869Y-10428346D01*
X9761001Y-10435008D01*
X9803523Y-10449498D01*
X9847135Y-10460267D01*
X9891514Y-10467236D01*
X9891514Y-10467236D01*
X9891515Y-10467236D01*
X9912440Y-10468691D01*
X9936328Y-10470352D01*
X9936328Y-10470352D01*
X9936329Y-10470352D01*
X9956744Y-10470007D01*
X9981244Y-10469594D01*
X10025927Y-10464965D01*
X10070045Y-10456501D01*
X10113269Y-10444264D01*
X10155277Y-10428346D01*
X10195756Y-10408866D01*
X10234404Y-10385968D01*
X10270934Y-10359823D01*
X10305075Y-10330625D01*
X10336570Y-10298593D01*
X10365186Y-10263965D01*
X10390710Y-10226998D01*
X10412952Y-10187968D01*
X10431746Y-10147166D01*
X10446952Y-10104895D01*
X10458456Y-10061471D01*
X10458456Y-10061470D01*
X10458457Y-10061470D01*
X10466174Y-10017217D01*
X10466174Y-10017216D01*
X10470047Y-9972461D01*
X10470047Y-9927539D01*
X10466174Y-9882784D01*
X10462969Y-9864403D01*
X10458457Y-9838530D01*
X10457350Y-9834353D01*
X10446952Y-9795105D01*
X10445329Y-9790595D01*
X10431746Y-9752834D01*
X10416155Y-9718985D01*
X10412952Y-9712032D01*
X10390710Y-9673002D01*
X10365186Y-9636035D01*
X10336570Y-9601407D01*
X10305075Y-9569375D01*
X10305074Y-9569375D01*
X10305074Y-9569374D01*
X10270935Y-9540178D01*
X10270934Y-9540177D01*
X10234404Y-9514032D01*
X10234404Y-9514032D01*
X10218037Y-9504335D01*
X10195756Y-9491134D01*
X10195755Y-9491134D01*
X10195754Y-9491133D01*
X10155277Y-9471654D01*
X10155276Y-9471653D01*
X10113270Y-9455736D01*
X10113269Y-9455736D01*
X10070045Y-9443500D01*
X10070045Y-9443499D01*
X10070044Y-9443499D01*
X10045869Y-9438861D01*
X10025927Y-9435035D01*
X10013161Y-9433713D01*
X9981245Y-9430407D01*
X9981244Y-9430406D01*
X9936329Y-9429648D01*
X9936328Y-9429648D01*
X9891515Y-9432764D01*
X9847136Y-9439733D01*
X9847134Y-9439733D01*
X9803523Y-9450502D01*
X9803522Y-9450503D01*
X9761000Y-9464992D01*
X9719888Y-9483093D01*
X9680488Y-9504673D01*
X9680487Y-9504673D01*
X9643095Y-9529569D01*
X9643094Y-9529569D01*
X9643094Y-9529569D01*
X9607989Y-9557595D01*
X9607987Y-9557597D01*
X9575429Y-9588545D01*
X9575428Y-9588546D01*
X9571736Y-9592718D01*
X9565819Y-9596433D01*
X9558833Y-9596361D01*
X9552995Y-9592522D01*
X9550159Y-9586137D01*
X9550050Y-9584500D01*
X9550050Y-8589371D01*
X11014950Y-8589371D01*
X11014950Y-8610629D01*
X11018275Y-8631624D01*
X11022391Y-8644292D01*
X11024844Y-8651841D01*
X11034495Y-8670782D01*
X11046989Y-8687979D01*
X11062021Y-8703011D01*
X11079218Y-8715505D01*
X11080095Y-8715952D01*
X11085174Y-8720749D01*
X11086854Y-8727531D01*
X11084600Y-8734145D01*
X11080095Y-8738048D01*
X11079218Y-8738495D01*
X11062021Y-8750989D01*
X11046989Y-8766021D01*
X11034495Y-8783218D01*
X11024844Y-8802159D01*
X11018275Y-8822376D01*
X11014950Y-8843371D01*
X11014950Y-8864629D01*
X11018275Y-8885624D01*
X11024844Y-8905841D01*
X11034495Y-8924782D01*
X11046989Y-8941979D01*
X11062021Y-8957011D01*
X11079218Y-8969505D01*
X11080095Y-8969952D01*
X11085174Y-8974749D01*
X11086854Y-8981531D01*
X11084600Y-8988145D01*
X11080095Y-8992048D01*
X11079218Y-8992495D01*
X11062021Y-9004989D01*
X11046989Y-9020021D01*
X11034495Y-9037218D01*
X11024844Y-9056159D01*
X11018275Y-9076376D01*
X11014950Y-9097371D01*
X11014950Y-9118629D01*
X11018275Y-9139624D01*
X11024844Y-9159841D01*
X11034495Y-9178782D01*
X11046989Y-9195979D01*
X11062021Y-9211011D01*
X11079218Y-9223505D01*
X11079218Y-9223505D01*
X11079218Y-9223505D01*
X11098159Y-9233156D01*
X11118376Y-9239725D01*
X11139371Y-9243050D01*
X11139371Y-9243050D01*
X11160629Y-9243050D01*
X11160629Y-9243050D01*
X11181624Y-9239725D01*
X11201841Y-9233156D01*
X11220782Y-9223505D01*
X11222979Y-9221909D01*
X11237979Y-9211011D01*
X11237979Y-9211011D01*
X11237979Y-9211010D01*
X11253010Y-9195979D01*
X11253011Y-9195979D01*
X11253011Y-9195979D01*
X11265505Y-9178782D01*
X11265505Y-9178782D01*
X11265505Y-9178782D01*
X11275156Y-9159841D01*
X11281725Y-9139624D01*
X11285050Y-9118629D01*
X11285050Y-9097371D01*
X11281725Y-9076376D01*
X11275156Y-9056159D01*
X11265505Y-9037218D01*
X11265505Y-9037218D01*
X11265505Y-9037218D01*
X11253011Y-9020021D01*
X11237979Y-9004989D01*
X11220782Y-8992495D01*
X11220711Y-8992459D01*
X11219905Y-8992049D01*
X11214826Y-8987251D01*
X11213146Y-8980469D01*
X11215400Y-8973856D01*
X11219905Y-8969952D01*
X11220782Y-8969505D01*
X11222979Y-8967909D01*
X11237979Y-8957011D01*
X11237979Y-8957011D01*
X11237979Y-8957010D01*
X11253010Y-8941979D01*
X11253011Y-8941979D01*
X11253011Y-8941979D01*
X11265505Y-8924782D01*
X11265505Y-8924782D01*
X11265505Y-8924782D01*
X11275156Y-8905841D01*
X11281725Y-8885624D01*
X11285050Y-8864629D01*
X11285050Y-8843371D01*
X11281725Y-8822376D01*
X11275156Y-8802159D01*
X11265505Y-8783218D01*
X11265505Y-8783218D01*
X11265505Y-8783218D01*
X11253011Y-8766021D01*
X11237979Y-8750989D01*
X11220782Y-8738495D01*
X11220711Y-8738459D01*
X11219905Y-8738049D01*
X11214826Y-8733251D01*
X11213146Y-8726469D01*
X11215400Y-8719856D01*
X11219905Y-8715952D01*
X11220782Y-8715505D01*
X11227701Y-8710478D01*
X11237979Y-8703011D01*
X11237979Y-8703011D01*
X11237979Y-8703010D01*
X11253010Y-8687979D01*
X11253011Y-8687979D01*
X11253011Y-8687979D01*
X11265505Y-8670782D01*
X11265505Y-8670782D01*
X11265505Y-8670782D01*
X11275156Y-8651841D01*
X11281725Y-8631624D01*
X11285050Y-8610629D01*
X11285050Y-8589371D01*
X11281725Y-8568376D01*
X11275156Y-8548159D01*
X11265505Y-8529218D01*
X11265505Y-8529218D01*
X11265505Y-8529218D01*
X11253011Y-8512021D01*
X11241618Y-8500629D01*
X11238270Y-8494496D01*
X11238768Y-8487527D01*
X11242955Y-8481934D01*
X11246053Y-8480242D01*
X11259209Y-8475335D01*
X11259209Y-8475335D01*
X11270719Y-8466719D01*
X11270719Y-8466719D01*
X11279335Y-8455209D01*
X11279335Y-8455209D01*
X11284360Y-8441738D01*
X11284360Y-8441737D01*
X11285000Y-8435784D01*
X11285000Y-8435783D01*
X11285000Y-8371000D01*
X11193301Y-8371000D01*
X11196592Y-8365299D01*
X11200000Y-8352583D01*
X11200000Y-8339417D01*
X11196592Y-8326701D01*
X11193301Y-8321000D01*
X11285000Y-8321000D01*
X11285000Y-8256217D01*
X11285000Y-8256215D01*
X11284360Y-8250263D01*
X11284360Y-8250262D01*
X11279335Y-8236791D01*
X11279335Y-8236791D01*
X11270719Y-8225281D01*
X11270719Y-8225281D01*
X11259209Y-8216665D01*
X11259209Y-8216664D01*
X11245738Y-8211640D01*
X11245737Y-8211640D01*
X11239784Y-8211000D01*
X11175000Y-8211000D01*
X11175000Y-8302699D01*
X11169299Y-8299407D01*
X11156583Y-8296000D01*
X11143417Y-8296000D01*
X11130701Y-8299407D01*
X11125000Y-8302699D01*
X11125000Y-8211000D01*
X11060216Y-8211000D01*
X11054263Y-8211640D01*
X11054262Y-8211640D01*
X11040791Y-8216664D01*
X11040791Y-8216665D01*
X11029281Y-8225281D01*
X11029281Y-8225281D01*
X11020665Y-8236791D01*
X11020665Y-8236791D01*
X11015640Y-8250262D01*
X11015640Y-8250263D01*
X11015000Y-8256215D01*
X11015000Y-8321000D01*
X11106699Y-8321000D01*
X11103408Y-8326701D01*
X11100000Y-8339417D01*
X11100000Y-8352583D01*
X11103408Y-8365299D01*
X11106699Y-8371000D01*
X11015000Y-8371000D01*
X11015000Y-8435784D01*
X11015640Y-8441737D01*
X11015640Y-8441738D01*
X11020665Y-8455209D01*
X11020665Y-8455209D01*
X11029281Y-8466719D01*
X11029281Y-8466719D01*
X11040791Y-8475335D01*
X11040791Y-8475335D01*
X11053947Y-8480242D01*
X11059540Y-8484429D01*
X11061982Y-8490976D01*
X11060497Y-8497803D01*
X11058382Y-8500629D01*
X11046989Y-8512022D01*
X11034495Y-8529218D01*
X11024844Y-8548159D01*
X11018275Y-8568376D01*
X11018056Y-8569758D01*
X11014950Y-8589371D01*
X9550050Y-8589371D01*
X9550050Y-8058765D01*
X11669950Y-8058765D01*
X11669950Y-8079235D01*
X11673152Y-8099453D01*
X11679478Y-8118922D01*
X11688771Y-8137161D01*
X11700803Y-8153721D01*
X11715279Y-8168197D01*
X11730775Y-8179456D01*
X11731839Y-8180229D01*
X11743461Y-8186150D01*
X11750078Y-8189522D01*
X11750078Y-8189522D01*
X11750078Y-8189522D01*
X11760514Y-8192913D01*
X11769546Y-8195848D01*
X11779656Y-8197449D01*
X11789765Y-8199050D01*
X11789765Y-8199050D01*
X11810235Y-8199050D01*
X11810235Y-8199050D01*
X11830453Y-8195848D01*
X11849922Y-8189522D01*
X11868161Y-8180229D01*
X11877459Y-8173473D01*
X11884721Y-8168197D01*
X11884721Y-8168197D01*
X11884722Y-8168197D01*
X11899197Y-8153722D01*
X11899197Y-8153721D01*
X11899197Y-8153721D01*
X11904473Y-8146459D01*
X11911229Y-8137161D01*
X11920522Y-8118922D01*
X11926848Y-8099453D01*
X11930050Y-8079235D01*
X11930050Y-8058765D01*
X11926848Y-8038547D01*
X11920522Y-8019078D01*
X11920522Y-8019078D01*
X11920522Y-8019078D01*
X11917150Y-8012461D01*
X11911229Y-8000839D01*
X11910456Y-7999775D01*
X11899197Y-7984279D01*
X11884721Y-7969803D01*
X11868161Y-7957771D01*
X11868161Y-7957771D01*
X11868161Y-7957771D01*
X11862465Y-7954869D01*
X11849922Y-7948478D01*
X11830453Y-7942152D01*
X11812999Y-7939388D01*
X11810235Y-7938950D01*
X11789765Y-7938950D01*
X11787333Y-7939335D01*
X11769546Y-7942152D01*
X11750078Y-7948478D01*
X11731839Y-7957771D01*
X11715279Y-7969803D01*
X11700803Y-7984279D01*
X11688771Y-8000839D01*
X11679478Y-8019078D01*
X11673152Y-8038546D01*
X11669950Y-8058765D01*
X9550050Y-8058765D01*
X9550050Y-7601213D01*
X11236277Y-7601213D01*
X11236277Y-7760787D01*
X11236277Y-7760788D01*
X11236918Y-7766748D01*
X11241948Y-7780233D01*
X11241948Y-7780233D01*
X11250573Y-7791754D01*
X11250573Y-7791755D01*
X11262094Y-7800379D01*
X11262094Y-7800380D01*
X11275579Y-7805409D01*
X11275579Y-7805409D01*
X11276272Y-7805483D01*
X11281540Y-7806050D01*
X11396115Y-7806050D01*
X11402076Y-7805409D01*
X11415560Y-7800380D01*
X11415670Y-7800297D01*
X11415799Y-7800249D01*
X11416339Y-7799955D01*
X11416381Y-7800032D01*
X11422216Y-7797855D01*
X11427847Y-7798767D01*
X11435915Y-7802109D01*
X11452505Y-7805409D01*
X11455727Y-7806050D01*
X11455727Y-7806050D01*
X11455727Y-7806050D01*
X11475928Y-7806050D01*
X11475928Y-7806050D01*
X11495740Y-7802109D01*
X11514403Y-7794379D01*
X11522438Y-7789009D01*
X11529106Y-7786922D01*
X11535844Y-7788770D01*
X11536214Y-7789008D01*
X11544252Y-7794379D01*
X11562915Y-7802109D01*
X11579505Y-7805409D01*
X11582727Y-7806050D01*
X11582727Y-7806050D01*
X11582727Y-7806050D01*
X11602928Y-7806050D01*
X11602928Y-7806050D01*
X11622740Y-7802109D01*
X11641403Y-7794379D01*
X11658199Y-7783156D01*
X11672483Y-7768872D01*
X11683706Y-7752076D01*
X11691436Y-7733413D01*
X11695377Y-7713600D01*
X11695377Y-7648400D01*
X11691436Y-7628587D01*
X11683706Y-7609924D01*
X11683706Y-7609924D01*
X11683706Y-7609924D01*
X11672483Y-7593128D01*
X11658199Y-7578844D01*
X11641404Y-7567622D01*
X11641403Y-7567621D01*
X11622740Y-7559891D01*
X11622739Y-7559891D01*
X11602928Y-7555950D01*
X11602928Y-7555950D01*
X11582727Y-7555950D01*
X11582727Y-7555950D01*
X11562915Y-7559891D01*
X11562915Y-7559891D01*
X11544252Y-7567621D01*
X11536216Y-7572990D01*
X11529549Y-7575078D01*
X11522811Y-7573230D01*
X11522438Y-7572990D01*
X11514403Y-7567621D01*
X11495740Y-7559891D01*
X11495739Y-7559891D01*
X11475928Y-7555950D01*
X11475928Y-7555950D01*
X11455727Y-7555950D01*
X11455727Y-7555950D01*
X11435915Y-7559891D01*
X11435914Y-7559891D01*
X11427847Y-7563232D01*
X11420900Y-7563979D01*
X11416362Y-7562004D01*
X11416339Y-7562045D01*
X11415872Y-7561790D01*
X11415671Y-7561703D01*
X11415560Y-7561620D01*
X11415560Y-7561620D01*
X11415560Y-7561620D01*
X11402076Y-7556591D01*
X11402076Y-7556591D01*
X11396116Y-7555950D01*
X11396115Y-7555950D01*
X11396115Y-7555950D01*
X11396114Y-7555950D01*
X11281540Y-7555950D01*
X11281540Y-7555950D01*
X11275579Y-7556591D01*
X11262094Y-7561620D01*
X11262094Y-7561621D01*
X11250573Y-7570245D01*
X11250573Y-7570245D01*
X11241948Y-7581766D01*
X11241948Y-7581767D01*
X11236918Y-7595252D01*
X11236277Y-7601212D01*
X11236277Y-7601213D01*
X9550050Y-7601213D01*
X9550050Y-6615500D01*
X9552019Y-6608796D01*
X9557299Y-6604220D01*
X9564215Y-6603226D01*
X9570570Y-6606129D01*
X9571736Y-6607282D01*
X9575428Y-6611454D01*
X9607988Y-6642404D01*
X9643095Y-6670431D01*
X9680487Y-6695327D01*
X9719887Y-6716906D01*
X9719888Y-6716907D01*
X9719888Y-6716907D01*
X9745869Y-6728346D01*
X9761001Y-6735008D01*
X9803523Y-6749498D01*
X9847135Y-6760267D01*
X9891514Y-6767236D01*
X9891514Y-6767236D01*
X9891515Y-6767236D01*
X9912440Y-6768691D01*
X9936328Y-6770352D01*
X9936328Y-6770352D01*
X9936329Y-6770352D01*
X9956744Y-6770007D01*
X9981244Y-6769593D01*
X10025927Y-6764965D01*
X10070045Y-6756500D01*
X10113269Y-6744264D01*
X10155277Y-6728346D01*
X10195756Y-6708866D01*
X10234404Y-6685968D01*
X10270934Y-6659823D01*
X10305075Y-6630625D01*
X10336570Y-6598593D01*
X10365186Y-6563965D01*
X10390710Y-6526998D01*
X10412952Y-6487968D01*
X10431746Y-6447166D01*
X10446952Y-6404895D01*
X10458456Y-6361471D01*
X10458456Y-6361470D01*
X10458457Y-6361469D01*
X10466174Y-6317217D01*
X10466174Y-6317216D01*
X10470047Y-6272461D01*
X10470047Y-6227539D01*
X10466174Y-6182784D01*
X10462969Y-6164403D01*
X10458457Y-6138530D01*
X10457350Y-6134353D01*
X10446952Y-6095105D01*
X10445329Y-6090594D01*
X10431746Y-6052834D01*
X10416155Y-6018985D01*
X10412952Y-6012032D01*
X10390710Y-5973002D01*
X10365186Y-5936035D01*
X10336570Y-5901407D01*
X10305075Y-5869375D01*
X10305074Y-5869374D01*
X10305074Y-5869374D01*
X10270935Y-5840178D01*
X10270934Y-5840177D01*
X10234404Y-5814032D01*
X10234404Y-5814032D01*
X10218037Y-5804335D01*
X10195756Y-5791134D01*
X10195755Y-5791134D01*
X10195754Y-5791133D01*
X10155277Y-5771654D01*
X10155276Y-5771653D01*
X10113270Y-5755736D01*
X10113269Y-5755736D01*
X10070045Y-5743499D01*
X10070045Y-5743499D01*
X10070044Y-5743499D01*
X10045869Y-5738861D01*
X10025927Y-5735035D01*
X10013161Y-5733713D01*
X9981245Y-5730406D01*
X9981244Y-5730406D01*
X9936329Y-5729647D01*
X9936328Y-5729647D01*
X9891515Y-5732764D01*
X9847136Y-5739733D01*
X9847134Y-5739733D01*
X9803523Y-5750502D01*
X9803522Y-5750502D01*
X9761000Y-5764992D01*
X9719888Y-5783093D01*
X9680488Y-5804672D01*
X9680487Y-5804673D01*
X9643095Y-5829569D01*
X9643094Y-5829569D01*
X9643094Y-5829569D01*
X9607989Y-5857595D01*
X9607987Y-5857596D01*
X9575429Y-5888545D01*
X9575428Y-5888546D01*
X9571736Y-5892717D01*
X9565819Y-5896433D01*
X9558833Y-5896360D01*
X9552995Y-5892522D01*
X9550159Y-5886136D01*
X9550050Y-5884500D01*
X9550050Y-4700139D01*
X9550053Y-4699864D01*
X9550332Y-4687251D01*
X9552001Y-4611807D01*
X9552026Y-4611261D01*
X9552386Y-4605841D01*
X9556538Y-4543371D01*
X10364950Y-4543371D01*
X10364950Y-4564629D01*
X10368275Y-4585624D01*
X10369621Y-4589765D01*
X10374844Y-4605841D01*
X10384495Y-4624782D01*
X10396989Y-4641979D01*
X10412021Y-4657011D01*
X10429218Y-4669505D01*
X10430095Y-4669952D01*
X10435174Y-4674749D01*
X10436854Y-4681531D01*
X10434600Y-4688145D01*
X10430095Y-4692048D01*
X10429218Y-4692495D01*
X10412021Y-4704989D01*
X10396989Y-4720021D01*
X10384495Y-4737218D01*
X10374844Y-4756159D01*
X10368275Y-4776376D01*
X10364950Y-4797371D01*
X10364950Y-4818629D01*
X10368275Y-4839624D01*
X10374844Y-4859841D01*
X10384495Y-4878782D01*
X10396989Y-4895979D01*
X10412021Y-4911011D01*
X10429218Y-4923505D01*
X10430095Y-4923952D01*
X10435174Y-4928749D01*
X10436854Y-4935531D01*
X10434600Y-4942145D01*
X10430095Y-4946048D01*
X10429218Y-4946495D01*
X10412021Y-4958989D01*
X10396989Y-4974021D01*
X10384495Y-4991218D01*
X10374844Y-5010159D01*
X10368275Y-5030376D01*
X10364950Y-5051371D01*
X10364950Y-5072629D01*
X10368275Y-5093624D01*
X10374844Y-5113841D01*
X10384495Y-5132782D01*
X10396989Y-5149979D01*
X10412021Y-5165011D01*
X10429218Y-5177505D01*
X10429218Y-5177505D01*
X10429218Y-5177505D01*
X10448159Y-5187156D01*
X10468376Y-5193725D01*
X10489371Y-5197050D01*
X10489371Y-5197050D01*
X10510629Y-5197050D01*
X10510629Y-5197050D01*
X10531624Y-5193725D01*
X10551841Y-5187156D01*
X10570782Y-5177505D01*
X10572979Y-5175909D01*
X10587979Y-5165011D01*
X10587979Y-5165011D01*
X10587979Y-5165010D01*
X10603010Y-5149979D01*
X10603011Y-5149979D01*
X10603011Y-5149979D01*
X10615505Y-5132782D01*
X10615505Y-5132782D01*
X10615505Y-5132782D01*
X10625156Y-5113841D01*
X10631725Y-5093624D01*
X10635050Y-5072629D01*
X10635050Y-5051371D01*
X10631725Y-5030376D01*
X10625156Y-5010159D01*
X10615505Y-4991218D01*
X10615505Y-4991218D01*
X10615505Y-4991218D01*
X10603011Y-4974021D01*
X10587979Y-4958989D01*
X10570782Y-4946495D01*
X10570712Y-4946459D01*
X10569905Y-4946049D01*
X10564826Y-4941251D01*
X10563146Y-4934469D01*
X10565400Y-4927856D01*
X10569905Y-4923952D01*
X10570782Y-4923505D01*
X10572979Y-4921909D01*
X10587979Y-4911011D01*
X10587979Y-4911011D01*
X10587979Y-4911010D01*
X10603010Y-4895979D01*
X10603011Y-4895979D01*
X10603011Y-4895979D01*
X10615505Y-4878782D01*
X10615505Y-4878782D01*
X10615505Y-4878782D01*
X10625156Y-4859841D01*
X10631725Y-4839624D01*
X10635050Y-4818629D01*
X10635050Y-4797371D01*
X10631725Y-4776376D01*
X10625156Y-4756159D01*
X10615505Y-4737218D01*
X10615505Y-4737218D01*
X10615505Y-4737218D01*
X10603011Y-4720021D01*
X10587979Y-4704989D01*
X10570782Y-4692495D01*
X10570712Y-4692459D01*
X10569905Y-4692049D01*
X10564826Y-4687251D01*
X10563146Y-4680469D01*
X10565400Y-4673856D01*
X10569905Y-4669952D01*
X10570782Y-4669505D01*
X10572979Y-4667909D01*
X10587979Y-4657011D01*
X10587979Y-4657011D01*
X10587979Y-4657010D01*
X10603010Y-4641979D01*
X10603011Y-4641979D01*
X10603011Y-4641979D01*
X10615505Y-4624782D01*
X10615505Y-4624782D01*
X10615505Y-4624782D01*
X10625156Y-4605841D01*
X10631725Y-4585624D01*
X10635050Y-4564629D01*
X10635050Y-4543371D01*
X10631725Y-4522376D01*
X10631022Y-4520214D01*
X11093450Y-4520214D01*
X11093450Y-4679787D01*
X11093450Y-4679788D01*
X11094091Y-4685748D01*
X11099120Y-4699233D01*
X11099121Y-4699234D01*
X11107745Y-4710754D01*
X11107746Y-4710755D01*
X11119266Y-4719379D01*
X11119267Y-4719380D01*
X11132752Y-4724409D01*
X11132752Y-4724409D01*
X11133444Y-4724484D01*
X11138713Y-4725050D01*
X11253287Y-4725050D01*
X11259248Y-4724409D01*
X11272733Y-4719380D01*
X11272843Y-4719297D01*
X11272972Y-4719249D01*
X11273511Y-4718955D01*
X11273553Y-4719032D01*
X11279389Y-4716855D01*
X11285020Y-4717767D01*
X11293087Y-4721109D01*
X11309678Y-4724409D01*
X11312899Y-4725050D01*
X11312900Y-4725050D01*
X11312900Y-4725050D01*
X11333100Y-4725050D01*
X11333100Y-4725050D01*
X11352913Y-4721109D01*
X11371576Y-4713379D01*
X11379611Y-4708009D01*
X11386279Y-4705922D01*
X11393017Y-4707770D01*
X11393386Y-4708008D01*
X11401424Y-4713379D01*
X11420087Y-4721109D01*
X11436678Y-4724409D01*
X11439899Y-4725050D01*
X11439900Y-4725050D01*
X11439900Y-4725050D01*
X11460100Y-4725050D01*
X11460100Y-4725050D01*
X11479913Y-4721109D01*
X11498576Y-4713379D01*
X11515372Y-4702156D01*
X11529656Y-4687872D01*
X11540879Y-4671076D01*
X11548609Y-4652413D01*
X11552550Y-4632600D01*
X11552550Y-4589765D01*
X12019950Y-4589765D01*
X12019950Y-4610235D01*
X12023152Y-4630453D01*
X12029478Y-4649922D01*
X12038771Y-4668161D01*
X12050803Y-4684721D01*
X12065279Y-4699197D01*
X12077079Y-4707770D01*
X12081839Y-4711229D01*
X12092882Y-4716855D01*
X12100078Y-4720522D01*
X12100078Y-4720522D01*
X12100078Y-4720522D01*
X12110514Y-4723913D01*
X12119546Y-4726848D01*
X12129656Y-4728449D01*
X12139765Y-4730050D01*
X12139765Y-4730050D01*
X12160235Y-4730050D01*
X12160235Y-4730050D01*
X12180453Y-4726848D01*
X12199922Y-4720522D01*
X12218161Y-4711229D01*
X12230649Y-4702156D01*
X12234721Y-4699197D01*
X12234721Y-4699197D01*
X12234722Y-4699197D01*
X12249197Y-4684722D01*
X12249197Y-4684722D01*
X12249197Y-4684721D01*
X12256442Y-4674749D01*
X12261229Y-4668161D01*
X12270522Y-4649922D01*
X12276848Y-4630453D01*
X12280050Y-4610235D01*
X12280050Y-4589765D01*
X12276848Y-4569547D01*
X12276150Y-4567400D01*
X12270522Y-4550078D01*
X12266437Y-4542062D01*
X12261229Y-4531839D01*
X12259111Y-4528925D01*
X12249197Y-4515279D01*
X12234721Y-4500803D01*
X12218161Y-4488772D01*
X12218161Y-4488771D01*
X12218161Y-4488771D01*
X12210631Y-4484935D01*
X12199922Y-4479478D01*
X12180453Y-4473152D01*
X12162999Y-4470388D01*
X12160235Y-4469950D01*
X12139765Y-4469950D01*
X12137333Y-4470335D01*
X12119546Y-4473152D01*
X12100078Y-4479478D01*
X12081839Y-4488772D01*
X12065279Y-4500803D01*
X12050803Y-4515279D01*
X12038771Y-4531839D01*
X12029478Y-4550078D01*
X12023152Y-4569547D01*
X12019950Y-4589765D01*
X11552550Y-4589765D01*
X11552550Y-4567400D01*
X11548609Y-4547587D01*
X11540879Y-4528924D01*
X11540878Y-4528924D01*
X11540878Y-4528924D01*
X11529656Y-4512128D01*
X11515372Y-4497844D01*
X11498576Y-4486622D01*
X11498575Y-4486621D01*
X11479913Y-4478891D01*
X11479912Y-4478891D01*
X11460101Y-4474950D01*
X11460100Y-4474950D01*
X11439900Y-4474950D01*
X11439899Y-4474950D01*
X11420088Y-4478891D01*
X11420087Y-4478891D01*
X11401424Y-4486621D01*
X11393389Y-4491990D01*
X11386721Y-4494078D01*
X11379983Y-4492230D01*
X11379611Y-4491990D01*
X11371575Y-4486621D01*
X11352913Y-4478891D01*
X11352912Y-4478891D01*
X11333101Y-4474950D01*
X11333100Y-4474950D01*
X11312900Y-4474950D01*
X11312899Y-4474950D01*
X11293088Y-4478891D01*
X11293087Y-4478891D01*
X11285020Y-4482233D01*
X11278073Y-4482979D01*
X11273534Y-4481004D01*
X11273511Y-4481045D01*
X11273045Y-4480791D01*
X11272843Y-4480703D01*
X11272733Y-4480620D01*
X11272733Y-4480620D01*
X11272733Y-4480620D01*
X11259248Y-4475591D01*
X11259248Y-4475591D01*
X11253288Y-4474950D01*
X11253288Y-4474950D01*
X11253287Y-4474950D01*
X11253286Y-4474950D01*
X11138713Y-4474950D01*
X11138712Y-4474950D01*
X11132752Y-4475591D01*
X11119267Y-4480620D01*
X11119266Y-4480621D01*
X11107746Y-4489245D01*
X11107745Y-4489246D01*
X11099121Y-4500766D01*
X11099120Y-4500767D01*
X11094091Y-4514252D01*
X11093450Y-4520212D01*
X11093450Y-4520214D01*
X10631022Y-4520214D01*
X10625156Y-4502159D01*
X10615505Y-4483218D01*
X10615505Y-4483218D01*
X10615505Y-4483218D01*
X10603011Y-4466021D01*
X10591618Y-4454629D01*
X10588270Y-4448496D01*
X10588768Y-4441527D01*
X10592955Y-4435934D01*
X10596053Y-4434242D01*
X10609209Y-4429335D01*
X10609209Y-4429335D01*
X10620719Y-4420719D01*
X10620719Y-4420719D01*
X10629335Y-4409209D01*
X10629335Y-4409209D01*
X10634360Y-4395738D01*
X10634360Y-4395737D01*
X10635000Y-4389784D01*
X10635000Y-4389783D01*
X10635000Y-4325000D01*
X10543301Y-4325000D01*
X10546593Y-4319299D01*
X10550000Y-4306583D01*
X10550000Y-4293417D01*
X10546593Y-4280701D01*
X10543301Y-4275000D01*
X10635000Y-4275000D01*
X10635000Y-4210217D01*
X10635000Y-4210216D01*
X10634360Y-4204263D01*
X10634360Y-4204262D01*
X10629335Y-4190791D01*
X10629335Y-4190791D01*
X10620719Y-4179281D01*
X10620719Y-4179281D01*
X10609209Y-4170665D01*
X10609209Y-4170664D01*
X10595738Y-4165640D01*
X10595737Y-4165640D01*
X10589784Y-4165000D01*
X10525000Y-4165000D01*
X10525000Y-4256699D01*
X10519299Y-4253408D01*
X10506583Y-4250000D01*
X10493417Y-4250000D01*
X10480701Y-4253408D01*
X10475000Y-4256699D01*
X10475000Y-4165000D01*
X10410216Y-4165000D01*
X10404263Y-4165640D01*
X10404262Y-4165640D01*
X10390791Y-4170664D01*
X10390791Y-4170665D01*
X10379281Y-4179281D01*
X10379281Y-4179281D01*
X10370665Y-4190791D01*
X10370665Y-4190791D01*
X10365640Y-4204262D01*
X10365640Y-4204263D01*
X10365000Y-4210216D01*
X10365000Y-4275000D01*
X10456699Y-4275000D01*
X10453408Y-4280701D01*
X10450000Y-4293417D01*
X10450000Y-4306583D01*
X10453408Y-4319299D01*
X10456699Y-4325000D01*
X10365000Y-4325000D01*
X10365000Y-4389784D01*
X10365640Y-4395737D01*
X10365640Y-4395738D01*
X10370665Y-4409209D01*
X10370665Y-4409209D01*
X10379281Y-4420719D01*
X10379281Y-4420719D01*
X10390791Y-4429335D01*
X10390791Y-4429335D01*
X10403947Y-4434242D01*
X10409540Y-4438429D01*
X10411982Y-4444976D01*
X10410497Y-4451803D01*
X10408382Y-4454629D01*
X10396989Y-4466022D01*
X10384495Y-4483218D01*
X10374844Y-4502159D01*
X10368275Y-4522376D01*
X10367238Y-4528925D01*
X10364950Y-4543371D01*
X9556538Y-4543371D01*
X9557858Y-4523517D01*
X9557907Y-4522971D01*
X9557973Y-4522376D01*
X9567615Y-4435568D01*
X9567686Y-4435032D01*
X9581251Y-4348141D01*
X9581348Y-4347603D01*
X9585909Y-4325000D01*
X9588946Y-4309947D01*
X9592202Y-4303765D01*
X9598283Y-4300325D01*
X9601101Y-4300000D01*
X9750000Y-4300000D01*
X10498569Y-3252003D01*
X10502088Y-3248695D01*
X10820000Y-3050000D01*
X11296461Y-2752212D01*
X11303189Y-2750328D01*
X11304156Y-2750378D01*
G37*
%TD.AperFunction*%
%TA.AperFunction,Conductor*%
G36*
X9725000Y-11811000D02*
G01*
X9789783Y-11811000D01*
X9789784Y-11811000D01*
X9795737Y-11810360D01*
X9795738Y-11810360D01*
X9809209Y-11805335D01*
X9809209Y-11805335D01*
X9820719Y-11796719D01*
X9820719Y-11796719D01*
X9829335Y-11785209D01*
X9829335Y-11785209D01*
X9834242Y-11772053D01*
X9838429Y-11766459D01*
X9844976Y-11764018D01*
X9851803Y-11765503D01*
X9854629Y-11767618D01*
X9866021Y-11779011D01*
X9883218Y-11791505D01*
X9883218Y-11791505D01*
X9883218Y-11791505D01*
X9902159Y-11801156D01*
X9922376Y-11807725D01*
X9943371Y-11811050D01*
X9943371Y-11811050D01*
X9964629Y-11811050D01*
X9964629Y-11811050D01*
X9985624Y-11807725D01*
X10005841Y-11801156D01*
X10024782Y-11791505D01*
X10030300Y-11787496D01*
X10041979Y-11779011D01*
X10041979Y-11779011D01*
X10041979Y-11779010D01*
X10057010Y-11763979D01*
X10057011Y-11763979D01*
X10057011Y-11763979D01*
X10069505Y-11746782D01*
X10069505Y-11746782D01*
X10069505Y-11746782D01*
X10069951Y-11745905D01*
X10074749Y-11740826D01*
X10081531Y-11739146D01*
X10088144Y-11741400D01*
X10092049Y-11745906D01*
X10092495Y-11746782D01*
X10104989Y-11763979D01*
X10120021Y-11779011D01*
X10137218Y-11791505D01*
X10137218Y-11791505D01*
X10137218Y-11791505D01*
X10156159Y-11801156D01*
X10176376Y-11807725D01*
X10197371Y-11811050D01*
X10197371Y-11811050D01*
X10218629Y-11811050D01*
X10218629Y-11811050D01*
X10239624Y-11807725D01*
X10259841Y-11801156D01*
X10278782Y-11791505D01*
X10284300Y-11787496D01*
X10295979Y-11779011D01*
X10295979Y-11779011D01*
X10295979Y-11779010D01*
X10311010Y-11763979D01*
X10311011Y-11763979D01*
X10311011Y-11763979D01*
X10323505Y-11746782D01*
X10323505Y-11746782D01*
X10323505Y-11746782D01*
X10323951Y-11745905D01*
X10328749Y-11740826D01*
X10335531Y-11739146D01*
X10342144Y-11741400D01*
X10346049Y-11745906D01*
X10346495Y-11746782D01*
X10358989Y-11763979D01*
X10374021Y-11779011D01*
X10391218Y-11791505D01*
X10391218Y-11791505D01*
X10391218Y-11791505D01*
X10410159Y-11801156D01*
X10430376Y-11807725D01*
X10451371Y-11811050D01*
X10451371Y-11811050D01*
X10472629Y-11811050D01*
X10472629Y-11811050D01*
X10493624Y-11807725D01*
X10513841Y-11801156D01*
X10532782Y-11791505D01*
X10538300Y-11787496D01*
X10549979Y-11779011D01*
X10549979Y-11779011D01*
X10549979Y-11779010D01*
X10565010Y-11763979D01*
X10565011Y-11763979D01*
X10565011Y-11763979D01*
X10577505Y-11746782D01*
X10577505Y-11746782D01*
X10577505Y-11746782D01*
X10577951Y-11745905D01*
X10582749Y-11740826D01*
X10589531Y-11739146D01*
X10596144Y-11741400D01*
X10600049Y-11745906D01*
X10600495Y-11746782D01*
X10612989Y-11763979D01*
X10628021Y-11779011D01*
X10645218Y-11791505D01*
X10645218Y-11791505D01*
X10645218Y-11791505D01*
X10664159Y-11801156D01*
X10684376Y-11807725D01*
X10705371Y-11811050D01*
X10705371Y-11811050D01*
X10726629Y-11811050D01*
X10726629Y-11811050D01*
X10747624Y-11807725D01*
X10767841Y-11801156D01*
X10786782Y-11791505D01*
X10792300Y-11787496D01*
X10803979Y-11779011D01*
X10803979Y-11779011D01*
X10803979Y-11779010D01*
X10819010Y-11763979D01*
X10819011Y-11763979D01*
X10819011Y-11763979D01*
X10831505Y-11746782D01*
X10831505Y-11746782D01*
X10831505Y-11746782D01*
X10831951Y-11745905D01*
X10836749Y-11740826D01*
X10843531Y-11739146D01*
X10850144Y-11741400D01*
X10854049Y-11745906D01*
X10854495Y-11746782D01*
X10866989Y-11763979D01*
X10882021Y-11779011D01*
X10899218Y-11791505D01*
X10899218Y-11791505D01*
X10899218Y-11791505D01*
X10918159Y-11801156D01*
X10938376Y-11807725D01*
X10959371Y-11811050D01*
X10959371Y-11811050D01*
X10980629Y-11811050D01*
X10980629Y-11811050D01*
X11001624Y-11807725D01*
X11021841Y-11801156D01*
X11040782Y-11791505D01*
X11046300Y-11787496D01*
X11057979Y-11779011D01*
X11057979Y-11779011D01*
X11057979Y-11779010D01*
X11073010Y-11763979D01*
X11073011Y-11763979D01*
X11073011Y-11763979D01*
X11085505Y-11746782D01*
X11085505Y-11746782D01*
X11085505Y-11746782D01*
X11085951Y-11745905D01*
X11090749Y-11740826D01*
X11097531Y-11739146D01*
X11104144Y-11741400D01*
X11108049Y-11745906D01*
X11108495Y-11746782D01*
X11120989Y-11763979D01*
X11136021Y-11779011D01*
X11153218Y-11791505D01*
X11153218Y-11791505D01*
X11153218Y-11791505D01*
X11172159Y-11801156D01*
X11192376Y-11807725D01*
X11213371Y-11811050D01*
X11213371Y-11811050D01*
X11228090Y-11811050D01*
X11234794Y-11813018D01*
X11239370Y-11818299D01*
X11240364Y-11825215D01*
X11237461Y-11831570D01*
X11236858Y-11832218D01*
X10002452Y-13066624D01*
X9996320Y-13069973D01*
X9989852Y-13069649D01*
X9985625Y-13068275D01*
X9971627Y-13066058D01*
X9964629Y-13064950D01*
X9943371Y-13064950D01*
X9938504Y-13065721D01*
X9922376Y-13068275D01*
X9902159Y-13074844D01*
X9883218Y-13084495D01*
X9866022Y-13096989D01*
X9854667Y-13108343D01*
X9848535Y-13111691D01*
X9841566Y-13111193D01*
X9835973Y-13107006D01*
X9834281Y-13103908D01*
X9829380Y-13090767D01*
X9829379Y-13090766D01*
X9820755Y-13079245D01*
X9820754Y-13079245D01*
X9809234Y-13070621D01*
X9809233Y-13070620D01*
X9795748Y-13065591D01*
X9795748Y-13065591D01*
X9789788Y-13064950D01*
X9789788Y-13064950D01*
X9789787Y-13064950D01*
X9789786Y-13064950D01*
X9610213Y-13064950D01*
X9610212Y-13064950D01*
X9604252Y-13065591D01*
X9590767Y-13070620D01*
X9590766Y-13070621D01*
X9579246Y-13079245D01*
X9579245Y-13079245D01*
X9572377Y-13088421D01*
X9566783Y-13092608D01*
X9559814Y-13093106D01*
X9553682Y-13089758D01*
X9550333Y-13083625D01*
X9550050Y-13080990D01*
X9550050Y-11794927D01*
X9552019Y-11788223D01*
X9557299Y-11783647D01*
X9564215Y-11782653D01*
X9570570Y-11785556D01*
X9572377Y-11787496D01*
X9579281Y-11796719D01*
X9579281Y-11796719D01*
X9590791Y-11805335D01*
X9590791Y-11805335D01*
X9604262Y-11810360D01*
X9604263Y-11810360D01*
X9610216Y-11811000D01*
X9610217Y-11811000D01*
X9675000Y-11811000D01*
X9675000Y-11719301D01*
X9680701Y-11722592D01*
X9693417Y-11726000D01*
X9706583Y-11726000D01*
X9719299Y-11722592D01*
X9725000Y-11719301D01*
X9725000Y-11811000D01*
G37*
%TD.AperFunction*%
%TD*%
M02*
