%TF.GenerationSoftware,KiCad,Pcbnew,10.0.4*%
%TF.CreationDate,2026-07-27T15:15:24+09:00*%
%TF.ProjectId,WifeSignal3ch,57696665-5369-4676-9e61-6c3363682e6b,rev?*%
%TF.SameCoordinates,Original*%
%TF.FileFunction,Copper,L2,Bot*%
%TF.FilePolarity,Positive*%
%FSLAX45Y45*%
G04 Gerber Fmt 4.5, Leading zero omitted, Abs format (unit mm)*
G04 Created by KiCad (PCBNEW 10.0.4) date 2026-07-27 15:15:24*
%MOMM*%
%LPD*%
G01*
G04 APERTURE LIST*
%TA.AperFunction,ComponentPad*%
%ADD10R,1.050000X1.500000*%
%TD*%
%TA.AperFunction,ComponentPad*%
%ADD11O,1.050000X1.500000*%
%TD*%
%TA.AperFunction,ComponentPad*%
%ADD12R,1.700000X1.700000*%
%TD*%
%TA.AperFunction,ComponentPad*%
%ADD13C,1.700000*%
%TD*%
%TA.AperFunction,ComponentPad*%
%ADD14C,1.600000*%
%TD*%
%TA.AperFunction,Conductor*%
%ADD15C,0.200000*%
%TD*%
G04 APERTURE END LIST*
D10*
%TO.P,Q1,1,E_1*%
%TO.N,GND*%
X11196000Y-4600000D03*
D11*
%TO.P,Q1,2,B_2*%
%TO.N,Net-(Q1-B)*%
X11323000Y-4600000D03*
%TO.P,Q1,3,C_3*%
%TO.N,/LEDN_R*%
X11450000Y-4600000D03*
%TD*%
D12*
%TO.P,J4,1,P1_1*%
%TO.N,+5V*%
X11150000Y-8346000D03*
D13*
%TO.P,J4,2,P2_2*%
%TO.N,/LEDN_Y*%
X11150000Y-8600000D03*
%TO.P,J4,3,P3_3*%
%TO.N,GND*%
X11150000Y-8854000D03*
%TO.P,J4,4,P4_4*%
%TO.N,/GPIO4*%
X11150000Y-9108000D03*
%TD*%
D12*
%TO.P,J2,1,P1_1*%
%TO.N,/GPIO5*%
X9700000Y-13200000D03*
D13*
%TO.P,J2,2,P2_2*%
%TO.N,/GPIO6*%
X9954000Y-13200000D03*
%TO.P,J2,3,P3_3*%
%TO.N,/GPIO7*%
X10208000Y-13200000D03*
%TO.P,J2,4,P4_4*%
%TO.N,/GPIO8*%
X10462000Y-13200000D03*
%TO.P,J2,5,P5_5*%
%TO.N,/GPIO9*%
X10716000Y-13200000D03*
%TO.P,J2,6,P6_6*%
%TO.N,/GPIO10*%
X10970000Y-13200000D03*
%TO.P,J2,7,P7_7*%
%TO.N,/GPIO20*%
X11224000Y-13200000D03*
%TO.P,J2,8,P8_8*%
%TO.N,/GPIO21*%
X11478000Y-13200000D03*
%TD*%
%TO.P,J3,4,P4_4*%
%TO.N,/GPIO3*%
X10500000Y-5062000D03*
%TO.P,J3,3,P3_3*%
%TO.N,GND*%
X10500000Y-4808000D03*
%TO.P,J3,2,P2_2*%
%TO.N,/LEDN_R*%
X10500000Y-4554000D03*
D12*
%TO.P,J3,1,P1_1*%
%TO.N,+5V*%
X10500000Y-4300000D03*
%TD*%
%TO.P,J1,1,P1_1*%
%TO.N,+5V*%
X9700000Y-11676000D03*
D13*
%TO.P,J1,2,P2_2*%
%TO.N,GND*%
X9954000Y-11676000D03*
%TO.P,J1,3,P3_3*%
%TO.N,/3V3*%
X10208000Y-11676000D03*
%TO.P,J1,4,P4_4*%
%TO.N,/GPIO4*%
X10462000Y-11676000D03*
%TO.P,J1,5,P5_5*%
%TO.N,/GPIO3*%
X10716000Y-11676000D03*
%TO.P,J1,6,P6_6*%
%TO.N,/GPIO2*%
X10970000Y-11676000D03*
%TO.P,J1,7,P7_7*%
%TO.N,/GPIO1*%
X11224000Y-11676000D03*
%TO.P,J1,8,P8_8*%
%TO.N,/GPIO0*%
X11478000Y-11676000D03*
%TD*%
D14*
%TO.P,R3,1*%
%TO.N,/GPIO10*%
X12500000Y-11762000D03*
%TO.P,R3,2*%
%TO.N,Net-(Q3-B)*%
X12500000Y-11000000D03*
%TD*%
%TO.P,R2,1*%
%TO.N,/GPIO7*%
X11800000Y-8831000D03*
%TO.P,R2,2*%
%TO.N,Net-(Q2-B)*%
X11800000Y-8069000D03*
%TD*%
%TO.P,R1,1*%
%TO.N,/GPIO6*%
X12150000Y-5362000D03*
%TO.P,R1,2*%
%TO.N,Net-(Q1-B)*%
X12150000Y-4600000D03*
%TD*%
D10*
%TO.P,Q2,1,E_1*%
%TO.N,GND*%
X11338827Y-7681000D03*
D11*
%TO.P,Q2,2,B_2*%
%TO.N,Net-(Q2-B)*%
X11465827Y-7681000D03*
%TO.P,Q2,3,C_3*%
%TO.N,/LEDN_Y*%
X11592827Y-7681000D03*
%TD*%
D10*
%TO.P,Q3,1,E_1*%
%TO.N,GND*%
X12996000Y-11250000D03*
D11*
%TO.P,Q3,2,B_2*%
%TO.N,Net-(Q3-B)*%
X13123000Y-11250000D03*
%TO.P,Q3,3,C_3*%
%TO.N,/LEDN_G*%
X13250000Y-11250000D03*
%TD*%
D12*
%TO.P,J5,1,P1_1*%
%TO.N,+5V*%
X13050000Y-12119000D03*
D13*
%TO.P,J5,2,P2_2*%
%TO.N,/LEDN_G*%
X13050000Y-12373000D03*
%TO.P,J5,3,P3_3*%
%TO.N,GND*%
X13050000Y-12627000D03*
%TO.P,J5,4,P4_4*%
%TO.N,/GPIO5*%
X13050000Y-12881000D03*
%TD*%
%TO.N,/GPIO3*%
D15*
X10844000Y-5406000D02*
X10500000Y-5062000D01*
X10844000Y-5406000D02*
X10855000Y-5417000D01*
X10855000Y-5417000D02*
X10855000Y-11537000D01*
X10855000Y-11537000D02*
X10716000Y-11676000D01*
%TO.N,/GPIO4*%
X10369000Y-10881000D02*
X10369000Y-11583000D01*
X10369000Y-11583000D02*
X10462000Y-11676000D01*
%TO.N,/LEDN_Y*%
X11592827Y-8157173D02*
X11592827Y-7681000D01*
X11150000Y-8600000D02*
X11592827Y-8157173D01*
%TO.N,Net-(Q3-B)*%
X13123000Y-11155000D02*
X13123000Y-11250000D01*
%TO.N,/LEDN_R*%
X10559000Y-4495000D02*
X11367500Y-4495000D01*
X11367500Y-4495000D02*
X11450000Y-4577500D01*
X11450000Y-4577500D02*
X11450000Y-4600000D01*
%TO.N,Net-(Q3-B)*%
X12968000Y-11000000D02*
X13123000Y-11155000D01*
X12500000Y-11000000D02*
X12968000Y-11000000D01*
%TO.N,/LEDN_R*%
X10500000Y-4554000D02*
X10559000Y-4495000D01*
%TO.N,/GPIO4*%
X10650000Y-10600000D02*
X10369000Y-10881000D01*
X10571635Y-4947000D02*
X10452365Y-4947000D01*
X10650000Y-5750000D02*
X10650000Y-10600000D01*
X11035000Y-5410365D02*
X10571635Y-4947000D01*
X10452365Y-4947000D02*
X10385000Y-5014365D01*
X11150000Y-9150000D02*
X11035000Y-9035000D01*
X10385000Y-5014365D02*
X10385000Y-5485000D01*
X10385000Y-5485000D02*
X10650000Y-5750000D01*
X11035000Y-9035000D02*
X11035000Y-5410365D01*
X11150000Y-9108000D02*
X11150000Y-9150000D01*
%TO.N,/GPIO20*%
X11246000Y-13200000D02*
X11250000Y-13200000D01*
%TO.N,Net-(Q1-B)*%
X11405500Y-4705000D02*
X11323000Y-4622500D01*
X12150000Y-4600000D02*
X12045000Y-4705000D01*
X12045000Y-4705000D02*
X11405500Y-4705000D01*
X11323000Y-4622500D02*
X11323000Y-4600000D01*
%TO.N,GND*%
X11373000Y-7737827D02*
X11373000Y-7750000D01*
%TO.N,/GPIO0*%
X11500000Y-11676000D02*
X11524000Y-11676000D01*
%TO.N,Net-(Q2-B)*%
X11548327Y-7576000D02*
X11465827Y-7658500D01*
X11800000Y-8069000D02*
X11800000Y-7749000D01*
X11800000Y-7749000D02*
X11627000Y-7576000D01*
X11465827Y-7658500D02*
X11465827Y-7681000D01*
X11627000Y-7576000D02*
X11548327Y-7576000D01*
%TO.N,+5V*%
X11150000Y-8346000D02*
X11150000Y-5271365D01*
X11150000Y-5271365D02*
X10547635Y-4669000D01*
X10452365Y-4669000D02*
X10385000Y-4601635D01*
X10385000Y-4601635D02*
X10385000Y-4415000D01*
X10547635Y-4669000D02*
X10452365Y-4669000D01*
X10385000Y-4415000D02*
X10500000Y-4300000D01*
%TD*%
%TA.AperFunction,Conductor*%
%TO.N,GND*%
G36*
X11409170Y-2705379D02*
G01*
X11899542Y-2749958D01*
X11900454Y-2750076D01*
X12142630Y-2790438D01*
X12144369Y-2790859D01*
X12201325Y-2809087D01*
X12201839Y-2809264D01*
X12265170Y-2832668D01*
X12266413Y-2833207D01*
X12598498Y-2999249D01*
X12601248Y-3001123D01*
X13098255Y-3448429D01*
X13101050Y-3452100D01*
X13496287Y-4242574D01*
X13497231Y-4245131D01*
X13501138Y-4260868D01*
X13501258Y-4261403D01*
X13518652Y-4347603D01*
X13518749Y-4348143D01*
X13532313Y-4435028D01*
X13532386Y-4435572D01*
X13542093Y-4522971D01*
X13542142Y-4523518D01*
X13547974Y-4611261D01*
X13547998Y-4611809D01*
X13549947Y-4699864D01*
X13549950Y-4700139D01*
X13549950Y-5884500D01*
X13547981Y-5891204D01*
X13542701Y-5895779D01*
X13535785Y-5896774D01*
X13529430Y-5893871D01*
X13528264Y-5892717D01*
X13524572Y-5888546D01*
X13524571Y-5888545D01*
X13507207Y-5872039D01*
X13492012Y-5857596D01*
X13456905Y-5829569D01*
X13419513Y-5804673D01*
X13394793Y-5791134D01*
X13380112Y-5783093D01*
X13339000Y-5764992D01*
X13338999Y-5764992D01*
X13338999Y-5764992D01*
X13318204Y-5757906D01*
X13296478Y-5750502D01*
X13296477Y-5750502D01*
X13296477Y-5750502D01*
X13285437Y-5747776D01*
X13252865Y-5739733D01*
X13252864Y-5739733D01*
X13208485Y-5732764D01*
X13163671Y-5729647D01*
X13118756Y-5730406D01*
X13118755Y-5730406D01*
X13080456Y-5734374D01*
X13074073Y-5735035D01*
X13064102Y-5736948D01*
X13029955Y-5743499D01*
X12986731Y-5755736D01*
X12986730Y-5755736D01*
X12944724Y-5771653D01*
X12944722Y-5771654D01*
X12904246Y-5791133D01*
X12904245Y-5791134D01*
X12865596Y-5814032D01*
X12865596Y-5814032D01*
X12843888Y-5829569D01*
X12834705Y-5836141D01*
X12829065Y-5840178D01*
X12794926Y-5869374D01*
X12763430Y-5901407D01*
X12734814Y-5936034D01*
X12734814Y-5936035D01*
X12709290Y-5973002D01*
X12687048Y-6012032D01*
X12668254Y-6052834D01*
X12653048Y-6095104D01*
X12641543Y-6138530D01*
X12633826Y-6182783D01*
X12629953Y-6227538D01*
X12629953Y-6272461D01*
X12633826Y-6317217D01*
X12641543Y-6361469D01*
X12653048Y-6404895D01*
X12668254Y-6447166D01*
X12687048Y-6487968D01*
X12709290Y-6526998D01*
X12734814Y-6563965D01*
X12734814Y-6563966D01*
X12763430Y-6598593D01*
X12794926Y-6630626D01*
X12808792Y-6642484D01*
X12829066Y-6659823D01*
X12865596Y-6685968D01*
X12904244Y-6708866D01*
X12944723Y-6728346D01*
X12944724Y-6728346D01*
X12986730Y-6744263D01*
X12986730Y-6744264D01*
X12986731Y-6744264D01*
X13029955Y-6756500D01*
X13074073Y-6764965D01*
X13118756Y-6769593D01*
X13131232Y-6769804D01*
X13163671Y-6770352D01*
X13163672Y-6770352D01*
X13163672Y-6770352D01*
X13208485Y-6767236D01*
X13208485Y-6767236D01*
X13208486Y-6767236D01*
X13252865Y-6760267D01*
X13296477Y-6749498D01*
X13338999Y-6735008D01*
X13380113Y-6716906D01*
X13419513Y-6695327D01*
X13456905Y-6670431D01*
X13492012Y-6642404D01*
X13524572Y-6611454D01*
X13528264Y-6607282D01*
X13534180Y-6603566D01*
X13541167Y-6603639D01*
X13547005Y-6607478D01*
X13549841Y-6613863D01*
X13549950Y-6615500D01*
X13549950Y-9584500D01*
X13547981Y-9591204D01*
X13542701Y-9595779D01*
X13535785Y-9596774D01*
X13529430Y-9593871D01*
X13528264Y-9592718D01*
X13524572Y-9588546D01*
X13524571Y-9588545D01*
X13507207Y-9572039D01*
X13492012Y-9557596D01*
X13456905Y-9529569D01*
X13419513Y-9504673D01*
X13394793Y-9491134D01*
X13380112Y-9483093D01*
X13339000Y-9464992D01*
X13338999Y-9464992D01*
X13338999Y-9464992D01*
X13321329Y-9458971D01*
X13296478Y-9450503D01*
X13296477Y-9450502D01*
X13296477Y-9450502D01*
X13285437Y-9447776D01*
X13252865Y-9439733D01*
X13252864Y-9439733D01*
X13208485Y-9432764D01*
X13163671Y-9429648D01*
X13118756Y-9430406D01*
X13118755Y-9430407D01*
X13080456Y-9434374D01*
X13074073Y-9435035D01*
X13064102Y-9436948D01*
X13029955Y-9443499D01*
X12986731Y-9455736D01*
X12986730Y-9455736D01*
X12944724Y-9471653D01*
X12944722Y-9471654D01*
X12904246Y-9491133D01*
X12904245Y-9491134D01*
X12865596Y-9514032D01*
X12865596Y-9514032D01*
X12843888Y-9529569D01*
X12834705Y-9536141D01*
X12829065Y-9540178D01*
X12794926Y-9569374D01*
X12763430Y-9601407D01*
X12734814Y-9636034D01*
X12734814Y-9636035D01*
X12709290Y-9673002D01*
X12687048Y-9712032D01*
X12668254Y-9752834D01*
X12653048Y-9795105D01*
X12641543Y-9838530D01*
X12633826Y-9882783D01*
X12629953Y-9927539D01*
X12629953Y-9972461D01*
X12633826Y-10017217D01*
X12641543Y-10061470D01*
X12653048Y-10104895D01*
X12668254Y-10147166D01*
X12687048Y-10187968D01*
X12709290Y-10226998D01*
X12734814Y-10263965D01*
X12734814Y-10263966D01*
X12763430Y-10298593D01*
X12794926Y-10330626D01*
X12808792Y-10342484D01*
X12829066Y-10359823D01*
X12865596Y-10385968D01*
X12904244Y-10408866D01*
X12944723Y-10428346D01*
X12944724Y-10428347D01*
X12986730Y-10444264D01*
X12986730Y-10444264D01*
X12986731Y-10444264D01*
X13029955Y-10456501D01*
X13074073Y-10464965D01*
X13118756Y-10469594D01*
X13131232Y-10469804D01*
X13163671Y-10470352D01*
X13163672Y-10470352D01*
X13163672Y-10470352D01*
X13208485Y-10467236D01*
X13208485Y-10467236D01*
X13208486Y-10467236D01*
X13252865Y-10460267D01*
X13296477Y-10449498D01*
X13338999Y-10435008D01*
X13380113Y-10416907D01*
X13419513Y-10395327D01*
X13456905Y-10370431D01*
X13492012Y-10342404D01*
X13524572Y-10311454D01*
X13528264Y-10307283D01*
X13534180Y-10303567D01*
X13541167Y-10303639D01*
X13547005Y-10307478D01*
X13549841Y-10313863D01*
X13549950Y-10315500D01*
X13549950Y-13487550D01*
X13547981Y-13494254D01*
X13542701Y-13498829D01*
X13537550Y-13499950D01*
X9562450Y-13499950D01*
X9555746Y-13497981D01*
X9551171Y-13492701D01*
X9550050Y-13487550D01*
X9550050Y-13319010D01*
X9552019Y-13312306D01*
X9557299Y-13307731D01*
X9564215Y-13306736D01*
X9570570Y-13309639D01*
X9572376Y-13311579D01*
X9579245Y-13320755D01*
X9583864Y-13324212D01*
X9590766Y-13329379D01*
X9590767Y-13329380D01*
X9604252Y-13334409D01*
X9604252Y-13334409D01*
X9604944Y-13334483D01*
X9610213Y-13335050D01*
X9789787Y-13335050D01*
X9795748Y-13334409D01*
X9809233Y-13329380D01*
X9820755Y-13320755D01*
X9829380Y-13309233D01*
X9834281Y-13296092D01*
X9838468Y-13290498D01*
X9845015Y-13288057D01*
X9851842Y-13289542D01*
X9854667Y-13291657D01*
X9866021Y-13303011D01*
X9883218Y-13315505D01*
X9883218Y-13315505D01*
X9883218Y-13315505D01*
X9902159Y-13325156D01*
X9922376Y-13331725D01*
X9943371Y-13335050D01*
X9943371Y-13335050D01*
X9964629Y-13335050D01*
X9964629Y-13335050D01*
X9985624Y-13331725D01*
X10005841Y-13325156D01*
X10024782Y-13315505D01*
X10033414Y-13309233D01*
X10041979Y-13303011D01*
X10041979Y-13303011D01*
X10041979Y-13303010D01*
X10057010Y-13287979D01*
X10057011Y-13287979D01*
X10057011Y-13287979D01*
X10069505Y-13270782D01*
X10069505Y-13270782D01*
X10069505Y-13270782D01*
X10069951Y-13269905D01*
X10074749Y-13264826D01*
X10081531Y-13263146D01*
X10088144Y-13265400D01*
X10092049Y-13269906D01*
X10092495Y-13270782D01*
X10104989Y-13287979D01*
X10120021Y-13303011D01*
X10137218Y-13315505D01*
X10137218Y-13315505D01*
X10137218Y-13315505D01*
X10156159Y-13325156D01*
X10176376Y-13331725D01*
X10197371Y-13335050D01*
X10197371Y-13335050D01*
X10218629Y-13335050D01*
X10218629Y-13335050D01*
X10239624Y-13331725D01*
X10259841Y-13325156D01*
X10278782Y-13315505D01*
X10287414Y-13309233D01*
X10295979Y-13303011D01*
X10295979Y-13303011D01*
X10295979Y-13303010D01*
X10311010Y-13287979D01*
X10311011Y-13287979D01*
X10311011Y-13287979D01*
X10323505Y-13270782D01*
X10323505Y-13270782D01*
X10323505Y-13270782D01*
X10323951Y-13269905D01*
X10328749Y-13264826D01*
X10335531Y-13263146D01*
X10342144Y-13265400D01*
X10346049Y-13269906D01*
X10346495Y-13270782D01*
X10358989Y-13287979D01*
X10374021Y-13303011D01*
X10391218Y-13315505D01*
X10391218Y-13315505D01*
X10391218Y-13315505D01*
X10410159Y-13325156D01*
X10430376Y-13331725D01*
X10451371Y-13335050D01*
X10451371Y-13335050D01*
X10472629Y-13335050D01*
X10472629Y-13335050D01*
X10493624Y-13331725D01*
X10513841Y-13325156D01*
X10532782Y-13315505D01*
X10541414Y-13309233D01*
X10549979Y-13303011D01*
X10549979Y-13303011D01*
X10549979Y-13303010D01*
X10565010Y-13287979D01*
X10565011Y-13287979D01*
X10565011Y-13287979D01*
X10577505Y-13270782D01*
X10577505Y-13270782D01*
X10577505Y-13270782D01*
X10577951Y-13269905D01*
X10582749Y-13264826D01*
X10589531Y-13263146D01*
X10596144Y-13265400D01*
X10600049Y-13269906D01*
X10600495Y-13270782D01*
X10612989Y-13287979D01*
X10628021Y-13303011D01*
X10645218Y-13315505D01*
X10645218Y-13315505D01*
X10645218Y-13315505D01*
X10664159Y-13325156D01*
X10684376Y-13331725D01*
X10705371Y-13335050D01*
X10705371Y-13335050D01*
X10726629Y-13335050D01*
X10726629Y-13335050D01*
X10747624Y-13331725D01*
X10767841Y-13325156D01*
X10786782Y-13315505D01*
X10795414Y-13309233D01*
X10803979Y-13303011D01*
X10803979Y-13303011D01*
X10803979Y-13303010D01*
X10819010Y-13287979D01*
X10819011Y-13287979D01*
X10819011Y-13287979D01*
X10831505Y-13270782D01*
X10831505Y-13270782D01*
X10831505Y-13270782D01*
X10831951Y-13269905D01*
X10836749Y-13264826D01*
X10843531Y-13263146D01*
X10850144Y-13265400D01*
X10854049Y-13269906D01*
X10854495Y-13270782D01*
X10866989Y-13287979D01*
X10882021Y-13303011D01*
X10899218Y-13315505D01*
X10899218Y-13315505D01*
X10899218Y-13315505D01*
X10918159Y-13325156D01*
X10938376Y-13331725D01*
X10959371Y-13335050D01*
X10959371Y-13335050D01*
X10980629Y-13335050D01*
X10980629Y-13335050D01*
X11001624Y-13331725D01*
X11021841Y-13325156D01*
X11040782Y-13315505D01*
X11049414Y-13309233D01*
X11057979Y-13303011D01*
X11057979Y-13303011D01*
X11057979Y-13303010D01*
X11073010Y-13287979D01*
X11073011Y-13287979D01*
X11073011Y-13287979D01*
X11085505Y-13270782D01*
X11085505Y-13270782D01*
X11085505Y-13270782D01*
X11085951Y-13269905D01*
X11090749Y-13264826D01*
X11097531Y-13263146D01*
X11104144Y-13265400D01*
X11108049Y-13269906D01*
X11108495Y-13270782D01*
X11120989Y-13287979D01*
X11136021Y-13303011D01*
X11153218Y-13315505D01*
X11153218Y-13315505D01*
X11153218Y-13315505D01*
X11172159Y-13325156D01*
X11192376Y-13331725D01*
X11213371Y-13335050D01*
X11213371Y-13335050D01*
X11234629Y-13335050D01*
X11234629Y-13335050D01*
X11255624Y-13331725D01*
X11275841Y-13325156D01*
X11294782Y-13315505D01*
X11303414Y-13309233D01*
X11311979Y-13303011D01*
X11311979Y-13303011D01*
X11311979Y-13303010D01*
X11327010Y-13287979D01*
X11327011Y-13287979D01*
X11327011Y-13287979D01*
X11339505Y-13270782D01*
X11339505Y-13270782D01*
X11339505Y-13270782D01*
X11339951Y-13269905D01*
X11344749Y-13264826D01*
X11351531Y-13263146D01*
X11358144Y-13265400D01*
X11362049Y-13269906D01*
X11362495Y-13270782D01*
X11374989Y-13287979D01*
X11390021Y-13303011D01*
X11407218Y-13315505D01*
X11407218Y-13315505D01*
X11407218Y-13315505D01*
X11426159Y-13325156D01*
X11446376Y-13331725D01*
X11467371Y-13335050D01*
X11467371Y-13335050D01*
X11488629Y-13335050D01*
X11488629Y-13335050D01*
X11509624Y-13331725D01*
X11529841Y-13325156D01*
X11548782Y-13315505D01*
X11557414Y-13309233D01*
X11565979Y-13303011D01*
X11565979Y-13303011D01*
X11565979Y-13303010D01*
X11581010Y-13287979D01*
X11581011Y-13287979D01*
X11581011Y-13287979D01*
X11593505Y-13270782D01*
X11593505Y-13270782D01*
X11593505Y-13270782D01*
X11603156Y-13251841D01*
X11609725Y-13231624D01*
X11613050Y-13210629D01*
X11613050Y-13189371D01*
X11609725Y-13168376D01*
X11603156Y-13148159D01*
X11593505Y-13129218D01*
X11593505Y-13129218D01*
X11593505Y-13129218D01*
X11581011Y-13112021D01*
X11565979Y-13096989D01*
X11548782Y-13084495D01*
X11529841Y-13074844D01*
X11529841Y-13074844D01*
X11529841Y-13074844D01*
X11509624Y-13068275D01*
X11509624Y-13068275D01*
X11509624Y-13068275D01*
X11493496Y-13065721D01*
X11488629Y-13064950D01*
X11467371Y-13064950D01*
X11462504Y-13065721D01*
X11446376Y-13068275D01*
X11426158Y-13074844D01*
X11407218Y-13084495D01*
X11390021Y-13096989D01*
X11374989Y-13112021D01*
X11362495Y-13129218D01*
X11362048Y-13130095D01*
X11357251Y-13135174D01*
X11350469Y-13136854D01*
X11343855Y-13134600D01*
X11339952Y-13130095D01*
X11339505Y-13129218D01*
X11327011Y-13112021D01*
X11311979Y-13096989D01*
X11294782Y-13084495D01*
X11275841Y-13074844D01*
X11275841Y-13074844D01*
X11275841Y-13074844D01*
X11255624Y-13068275D01*
X11255624Y-13068275D01*
X11255624Y-13068275D01*
X11239496Y-13065721D01*
X11234629Y-13064950D01*
X11213371Y-13064950D01*
X11208504Y-13065721D01*
X11192376Y-13068275D01*
X11172159Y-13074844D01*
X11153218Y-13084495D01*
X11136021Y-13096989D01*
X11120989Y-13112021D01*
X11108495Y-13129218D01*
X11108048Y-13130095D01*
X11103251Y-13135174D01*
X11096469Y-13136854D01*
X11089855Y-13134600D01*
X11085952Y-13130095D01*
X11085505Y-13129218D01*
X11073011Y-13112021D01*
X11057979Y-13096989D01*
X11040782Y-13084495D01*
X11021841Y-13074844D01*
X11021841Y-13074844D01*
X11021841Y-13074844D01*
X11001624Y-13068275D01*
X11001624Y-13068275D01*
X11001624Y-13068275D01*
X10985496Y-13065721D01*
X10980629Y-13064950D01*
X10959371Y-13064950D01*
X10954504Y-13065721D01*
X10938376Y-13068275D01*
X10918159Y-13074844D01*
X10899218Y-13084495D01*
X10882021Y-13096989D01*
X10866989Y-13112021D01*
X10854495Y-13129218D01*
X10854048Y-13130095D01*
X10849251Y-13135174D01*
X10842469Y-13136854D01*
X10835855Y-13134600D01*
X10831952Y-13130095D01*
X10831505Y-13129218D01*
X10819011Y-13112021D01*
X10803979Y-13096989D01*
X10786782Y-13084495D01*
X10767841Y-13074844D01*
X10767841Y-13074844D01*
X10767841Y-13074844D01*
X10747624Y-13068275D01*
X10747624Y-13068275D01*
X10747624Y-13068275D01*
X10731496Y-13065721D01*
X10726629Y-13064950D01*
X10705371Y-13064950D01*
X10700504Y-13065721D01*
X10684376Y-13068275D01*
X10664159Y-13074844D01*
X10645218Y-13084495D01*
X10628021Y-13096989D01*
X10612989Y-13112021D01*
X10600495Y-13129218D01*
X10600048Y-13130095D01*
X10595251Y-13135174D01*
X10588469Y-13136854D01*
X10581855Y-13134600D01*
X10577952Y-13130095D01*
X10577505Y-13129218D01*
X10565011Y-13112021D01*
X10549979Y-13096989D01*
X10532782Y-13084495D01*
X10513841Y-13074844D01*
X10513841Y-13074844D01*
X10513841Y-13074844D01*
X10493624Y-13068275D01*
X10493624Y-13068275D01*
X10493624Y-13068275D01*
X10477496Y-13065721D01*
X10472629Y-13064950D01*
X10451371Y-13064950D01*
X10446504Y-13065721D01*
X10430376Y-13068275D01*
X10410159Y-13074844D01*
X10391218Y-13084495D01*
X10374021Y-13096989D01*
X10358989Y-13112021D01*
X10346495Y-13129218D01*
X10346048Y-13130095D01*
X10341251Y-13135174D01*
X10334469Y-13136854D01*
X10327855Y-13134600D01*
X10323952Y-13130095D01*
X10323505Y-13129218D01*
X10311011Y-13112021D01*
X10295979Y-13096989D01*
X10278782Y-13084495D01*
X10259841Y-13074844D01*
X10259841Y-13074844D01*
X10259841Y-13074844D01*
X10239624Y-13068275D01*
X10239624Y-13068275D01*
X10239624Y-13068275D01*
X10223496Y-13065721D01*
X10218629Y-13064950D01*
X10197371Y-13064950D01*
X10192504Y-13065721D01*
X10176376Y-13068275D01*
X10156159Y-13074844D01*
X10137218Y-13084495D01*
X10120021Y-13096989D01*
X10104989Y-13112021D01*
X10092495Y-13129218D01*
X10092048Y-13130095D01*
X10087251Y-13135174D01*
X10080469Y-13136854D01*
X10073855Y-13134600D01*
X10069952Y-13130095D01*
X10069505Y-13129218D01*
X10057011Y-13112021D01*
X10041979Y-13096989D01*
X10024782Y-13084495D01*
X10005841Y-13074844D01*
X10005841Y-13074844D01*
X10005841Y-13074844D01*
X9985624Y-13068275D01*
X9985624Y-13068275D01*
X9985624Y-13068275D01*
X9969496Y-13065721D01*
X9964629Y-13064950D01*
X9943371Y-13064950D01*
X9938504Y-13065721D01*
X9922376Y-13068275D01*
X9902159Y-13074844D01*
X9883218Y-13084495D01*
X9866022Y-13096989D01*
X9854667Y-13108343D01*
X9848535Y-13111691D01*
X9841566Y-13111193D01*
X9835973Y-13107006D01*
X9834281Y-13103908D01*
X9829380Y-13090767D01*
X9829379Y-13090766D01*
X9820755Y-13079245D01*
X9820754Y-13079245D01*
X9809234Y-13070621D01*
X9809233Y-13070620D01*
X9795748Y-13065591D01*
X9795748Y-13065591D01*
X9789788Y-13064950D01*
X9789788Y-13064950D01*
X9789787Y-13064950D01*
X9789786Y-13064950D01*
X9610213Y-13064950D01*
X9610212Y-13064950D01*
X9604252Y-13065591D01*
X9590767Y-13070620D01*
X9590766Y-13070621D01*
X9579246Y-13079245D01*
X9579245Y-13079245D01*
X9572377Y-13088421D01*
X9566783Y-13092608D01*
X9559814Y-13093106D01*
X9553682Y-13089758D01*
X9550333Y-13083625D01*
X9550050Y-13080990D01*
X9550050Y-12029213D01*
X12914950Y-12029213D01*
X12914950Y-12208787D01*
X12914950Y-12208788D01*
X12915591Y-12214748D01*
X12920620Y-12228233D01*
X12920621Y-12228233D01*
X12929245Y-12239754D01*
X12929245Y-12239755D01*
X12940766Y-12248379D01*
X12940767Y-12248380D01*
X12953908Y-12253281D01*
X12959502Y-12257468D01*
X12961943Y-12264014D01*
X12960458Y-12270842D01*
X12958343Y-12273667D01*
X12946989Y-12285021D01*
X12934495Y-12302218D01*
X12924844Y-12321158D01*
X12918275Y-12341376D01*
X12914950Y-12362371D01*
X12914950Y-12383629D01*
X12918275Y-12404624D01*
X12924844Y-12424841D01*
X12934495Y-12443782D01*
X12946989Y-12460979D01*
X12962021Y-12476011D01*
X12979218Y-12488505D01*
X12979218Y-12488505D01*
X12979218Y-12488505D01*
X12980149Y-12488979D01*
X12985229Y-12493777D01*
X12986909Y-12500559D01*
X12984655Y-12507172D01*
X12980150Y-12511076D01*
X12979245Y-12511538D01*
X12979244Y-12511538D01*
X12973828Y-12515473D01*
X12973828Y-12515473D01*
X13037059Y-12578704D01*
X13030701Y-12580407D01*
X13019299Y-12586990D01*
X13009990Y-12596299D01*
X13003407Y-12607701D01*
X13001704Y-12614059D01*
X12938473Y-12550828D01*
X12938473Y-12550828D01*
X12934538Y-12556244D01*
X12924890Y-12575178D01*
X12918324Y-12595387D01*
X12918324Y-12595387D01*
X12915000Y-12616375D01*
X12915000Y-12637625D01*
X12918324Y-12658613D01*
X12918324Y-12658613D01*
X12924890Y-12678822D01*
X12934537Y-12697755D01*
X12938473Y-12703172D01*
X13001704Y-12639941D01*
X13003407Y-12646299D01*
X13009990Y-12657701D01*
X13019299Y-12667010D01*
X13030701Y-12673592D01*
X13037059Y-12675296D01*
X12973828Y-12738527D01*
X12973828Y-12738527D01*
X12979245Y-12742463D01*
X12979245Y-12742463D01*
X12980149Y-12742923D01*
X12985229Y-12747721D01*
X12986909Y-12754503D01*
X12984655Y-12761116D01*
X12980150Y-12765020D01*
X12979218Y-12765495D01*
X12962021Y-12777989D01*
X12946989Y-12793021D01*
X12934495Y-12810218D01*
X12924844Y-12829158D01*
X12918275Y-12849376D01*
X12914950Y-12870371D01*
X12914950Y-12891629D01*
X12918275Y-12912624D01*
X12924844Y-12932841D01*
X12934495Y-12951782D01*
X12946989Y-12968979D01*
X12962021Y-12984011D01*
X12979218Y-12996505D01*
X12979218Y-12996505D01*
X12979218Y-12996505D01*
X12998159Y-13006156D01*
X13018376Y-13012725D01*
X13039371Y-13016050D01*
X13039371Y-13016050D01*
X13060629Y-13016050D01*
X13060629Y-13016050D01*
X13081624Y-13012725D01*
X13101841Y-13006156D01*
X13120782Y-12996505D01*
X13122979Y-12994909D01*
X13137979Y-12984011D01*
X13137979Y-12984011D01*
X13137979Y-12984010D01*
X13153010Y-12968979D01*
X13153011Y-12968979D01*
X13153011Y-12968979D01*
X13165505Y-12951782D01*
X13165505Y-12951782D01*
X13165505Y-12951782D01*
X13175156Y-12932841D01*
X13181725Y-12912624D01*
X13185050Y-12891629D01*
X13185050Y-12870371D01*
X13181725Y-12849376D01*
X13175156Y-12829159D01*
X13165505Y-12810218D01*
X13165505Y-12810218D01*
X13165505Y-12810218D01*
X13153011Y-12793021D01*
X13137979Y-12777989D01*
X13120782Y-12765495D01*
X13119850Y-12765020D01*
X13114771Y-12760223D01*
X13113091Y-12753441D01*
X13115345Y-12746827D01*
X13119851Y-12742923D01*
X13120755Y-12742462D01*
X13126172Y-12738527D01*
X13126172Y-12738527D01*
X13062941Y-12675296D01*
X13069299Y-12673592D01*
X13080701Y-12667010D01*
X13090010Y-12657701D01*
X13096592Y-12646299D01*
X13098296Y-12639941D01*
X13161527Y-12703172D01*
X13161527Y-12703172D01*
X13165462Y-12697755D01*
X13175109Y-12678822D01*
X13181676Y-12658613D01*
X13181676Y-12658613D01*
X13185000Y-12637625D01*
X13185000Y-12616375D01*
X13181676Y-12595387D01*
X13181676Y-12595387D01*
X13175109Y-12575178D01*
X13165462Y-12556245D01*
X13161527Y-12550828D01*
X13161527Y-12550828D01*
X13098296Y-12614059D01*
X13096592Y-12607701D01*
X13090010Y-12596299D01*
X13080701Y-12586990D01*
X13069299Y-12580407D01*
X13062941Y-12578704D01*
X13126172Y-12515473D01*
X13120755Y-12511537D01*
X13120755Y-12511537D01*
X13119850Y-12511076D01*
X13114771Y-12506279D01*
X13113091Y-12499497D01*
X13115345Y-12492883D01*
X13119851Y-12488979D01*
X13120782Y-12488505D01*
X13128701Y-12482751D01*
X13137979Y-12476011D01*
X13137979Y-12476011D01*
X13137979Y-12476010D01*
X13153010Y-12460979D01*
X13153011Y-12460979D01*
X13153011Y-12460979D01*
X13165505Y-12443782D01*
X13165505Y-12443782D01*
X13165505Y-12443782D01*
X13175156Y-12424841D01*
X13181725Y-12404624D01*
X13185050Y-12383629D01*
X13185050Y-12362371D01*
X13181725Y-12341376D01*
X13175156Y-12321159D01*
X13165505Y-12302218D01*
X13165505Y-12302218D01*
X13165505Y-12302218D01*
X13153011Y-12285021D01*
X13141657Y-12273667D01*
X13138308Y-12267535D01*
X13138807Y-12260566D01*
X13142994Y-12254972D01*
X13146091Y-12253281D01*
X13159233Y-12248380D01*
X13170755Y-12239755D01*
X13179380Y-12228233D01*
X13184409Y-12214748D01*
X13185050Y-12208787D01*
X13185050Y-12029213D01*
X13184409Y-12023252D01*
X13179380Y-12009767D01*
X13179379Y-12009767D01*
X13179379Y-12009766D01*
X13170755Y-11998245D01*
X13170754Y-11998245D01*
X13159233Y-11989621D01*
X13159233Y-11989620D01*
X13145748Y-11984591D01*
X13145748Y-11984591D01*
X13139788Y-11983950D01*
X13139788Y-11983950D01*
X13139787Y-11983950D01*
X13139786Y-11983950D01*
X12960213Y-11983950D01*
X12960212Y-11983950D01*
X12954252Y-11984591D01*
X12940767Y-11989620D01*
X12940766Y-11989621D01*
X12929245Y-11998245D01*
X12929245Y-11998245D01*
X12920621Y-12009766D01*
X12920620Y-12009767D01*
X12915591Y-12023252D01*
X12914950Y-12029212D01*
X12914950Y-12029212D01*
X12914950Y-12029213D01*
X9550050Y-12029213D01*
X9550050Y-11795010D01*
X9552019Y-11788306D01*
X9557299Y-11783731D01*
X9564215Y-11782736D01*
X9570570Y-11785639D01*
X9572376Y-11787579D01*
X9579245Y-11796755D01*
X9583864Y-11800212D01*
X9590766Y-11805379D01*
X9590767Y-11805380D01*
X9604252Y-11810409D01*
X9604252Y-11810409D01*
X9604944Y-11810483D01*
X9610213Y-11811050D01*
X9789787Y-11811050D01*
X9795748Y-11810409D01*
X9809233Y-11805380D01*
X9820755Y-11796755D01*
X9829380Y-11785233D01*
X9834409Y-11771748D01*
X9835050Y-11765787D01*
X9835050Y-11763398D01*
X9835333Y-11762096D01*
X9836394Y-11760152D01*
X9837018Y-11758027D01*
X9838680Y-11755964D01*
X9838681Y-11755964D01*
X9838681Y-11755963D01*
X9838682Y-11755963D01*
X9905704Y-11688941D01*
X9907408Y-11695299D01*
X9913990Y-11706701D01*
X9923299Y-11716010D01*
X9934701Y-11722592D01*
X9941059Y-11724296D01*
X9877828Y-11787527D01*
X9877828Y-11787527D01*
X9883245Y-11791462D01*
X9902178Y-11801109D01*
X9922387Y-11807676D01*
X9943375Y-11811000D01*
X9964625Y-11811000D01*
X9985613Y-11807676D01*
X9985613Y-11807676D01*
X10005822Y-11801109D01*
X10024755Y-11791462D01*
X10030172Y-11787527D01*
X10030172Y-11787527D01*
X9966941Y-11724296D01*
X9973299Y-11722592D01*
X9984701Y-11716010D01*
X9994010Y-11706701D01*
X10000593Y-11695299D01*
X10002296Y-11688941D01*
X10065527Y-11752172D01*
X10065527Y-11752172D01*
X10069462Y-11746755D01*
X10069923Y-11745851D01*
X10074721Y-11740771D01*
X10081503Y-11739091D01*
X10088116Y-11741345D01*
X10092020Y-11745850D01*
X10092495Y-11746782D01*
X10104989Y-11763979D01*
X10120021Y-11779011D01*
X10137218Y-11791505D01*
X10137218Y-11791505D01*
X10137218Y-11791505D01*
X10156159Y-11801156D01*
X10176376Y-11807725D01*
X10197371Y-11811050D01*
X10197371Y-11811050D01*
X10218629Y-11811050D01*
X10218629Y-11811050D01*
X10239624Y-11807725D01*
X10259841Y-11801156D01*
X10278782Y-11791505D01*
X10287414Y-11785233D01*
X10295979Y-11779011D01*
X10295979Y-11779011D01*
X10295979Y-11779010D01*
X10311010Y-11763979D01*
X10311011Y-11763979D01*
X10311011Y-11763979D01*
X10323505Y-11746782D01*
X10323505Y-11746782D01*
X10323505Y-11746782D01*
X10323951Y-11745905D01*
X10328749Y-11740826D01*
X10335531Y-11739146D01*
X10342144Y-11741400D01*
X10346049Y-11745906D01*
X10346495Y-11746782D01*
X10358989Y-11763979D01*
X10374021Y-11779011D01*
X10391218Y-11791505D01*
X10391218Y-11791505D01*
X10391218Y-11791505D01*
X10410159Y-11801156D01*
X10430376Y-11807725D01*
X10451371Y-11811050D01*
X10451371Y-11811050D01*
X10472629Y-11811050D01*
X10472629Y-11811050D01*
X10493624Y-11807725D01*
X10513841Y-11801156D01*
X10532782Y-11791505D01*
X10541414Y-11785233D01*
X10549979Y-11779011D01*
X10549979Y-11779011D01*
X10549979Y-11779010D01*
X10565010Y-11763979D01*
X10565011Y-11763979D01*
X10565011Y-11763979D01*
X10577505Y-11746782D01*
X10577505Y-11746782D01*
X10577505Y-11746782D01*
X10577951Y-11745905D01*
X10582749Y-11740826D01*
X10589531Y-11739146D01*
X10596144Y-11741400D01*
X10600049Y-11745906D01*
X10600495Y-11746782D01*
X10612989Y-11763979D01*
X10628021Y-11779011D01*
X10645218Y-11791505D01*
X10645218Y-11791505D01*
X10645218Y-11791505D01*
X10664159Y-11801156D01*
X10684376Y-11807725D01*
X10705371Y-11811050D01*
X10705371Y-11811050D01*
X10726629Y-11811050D01*
X10726629Y-11811050D01*
X10747624Y-11807725D01*
X10767841Y-11801156D01*
X10786782Y-11791505D01*
X10795414Y-11785233D01*
X10803979Y-11779011D01*
X10803979Y-11779011D01*
X10803979Y-11779010D01*
X10819010Y-11763979D01*
X10819011Y-11763979D01*
X10819011Y-11763979D01*
X10831505Y-11746782D01*
X10831505Y-11746782D01*
X10831505Y-11746782D01*
X10831951Y-11745905D01*
X10836749Y-11740826D01*
X10843531Y-11739146D01*
X10850144Y-11741400D01*
X10854049Y-11745906D01*
X10854495Y-11746782D01*
X10866989Y-11763979D01*
X10882021Y-11779011D01*
X10899218Y-11791505D01*
X10899218Y-11791505D01*
X10899218Y-11791505D01*
X10918159Y-11801156D01*
X10938376Y-11807725D01*
X10959371Y-11811050D01*
X10959371Y-11811050D01*
X10980629Y-11811050D01*
X10980629Y-11811050D01*
X11001624Y-11807725D01*
X11021841Y-11801156D01*
X11040782Y-11791505D01*
X11049414Y-11785233D01*
X11057979Y-11779011D01*
X11057979Y-11779011D01*
X11057979Y-11779010D01*
X11073010Y-11763979D01*
X11073011Y-11763979D01*
X11073011Y-11763979D01*
X11085505Y-11746782D01*
X11085505Y-11746782D01*
X11085505Y-11746782D01*
X11085951Y-11745905D01*
X11090749Y-11740826D01*
X11097531Y-11739146D01*
X11104144Y-11741400D01*
X11108049Y-11745906D01*
X11108495Y-11746782D01*
X11120989Y-11763979D01*
X11136021Y-11779011D01*
X11153218Y-11791505D01*
X11153218Y-11791505D01*
X11153218Y-11791505D01*
X11172159Y-11801156D01*
X11192376Y-11807725D01*
X11213371Y-11811050D01*
X11213371Y-11811050D01*
X11234629Y-11811050D01*
X11234629Y-11811050D01*
X11255624Y-11807725D01*
X11275841Y-11801156D01*
X11294782Y-11791505D01*
X11303414Y-11785233D01*
X11311979Y-11779011D01*
X11311979Y-11779011D01*
X11311979Y-11779010D01*
X11327010Y-11763979D01*
X11327011Y-11763979D01*
X11327011Y-11763979D01*
X11339505Y-11746782D01*
X11339505Y-11746782D01*
X11339505Y-11746782D01*
X11339951Y-11745905D01*
X11344749Y-11740826D01*
X11351531Y-11739146D01*
X11358144Y-11741400D01*
X11362049Y-11745906D01*
X11362495Y-11746782D01*
X11374989Y-11763979D01*
X11390021Y-11779011D01*
X11407218Y-11791505D01*
X11407218Y-11791505D01*
X11407218Y-11791505D01*
X11426159Y-11801156D01*
X11446376Y-11807725D01*
X11467371Y-11811050D01*
X11467371Y-11811050D01*
X11488629Y-11811050D01*
X11488629Y-11811050D01*
X11509624Y-11807725D01*
X11529841Y-11801156D01*
X11548782Y-11791505D01*
X11557414Y-11785233D01*
X11565979Y-11779011D01*
X11565979Y-11779011D01*
X11565979Y-11779010D01*
X11581010Y-11763979D01*
X11581011Y-11763979D01*
X11581011Y-11763979D01*
X11589885Y-11751765D01*
X12369950Y-11751765D01*
X12369950Y-11772235D01*
X12373152Y-11792453D01*
X12379478Y-11811922D01*
X12388771Y-11830161D01*
X12400803Y-11846721D01*
X12415279Y-11861197D01*
X12430775Y-11872456D01*
X12431839Y-11873229D01*
X12443461Y-11879150D01*
X12450078Y-11882522D01*
X12450078Y-11882522D01*
X12450078Y-11882522D01*
X12460514Y-11885913D01*
X12469546Y-11888848D01*
X12479656Y-11890449D01*
X12489765Y-11892050D01*
X12489765Y-11892050D01*
X12510235Y-11892050D01*
X12510235Y-11892050D01*
X12530453Y-11888848D01*
X12549922Y-11882522D01*
X12568161Y-11873229D01*
X12577459Y-11866473D01*
X12584721Y-11861197D01*
X12584721Y-11861197D01*
X12584722Y-11861197D01*
X12599197Y-11846722D01*
X12599197Y-11846721D01*
X12599197Y-11846721D01*
X12604473Y-11839459D01*
X12611229Y-11830161D01*
X12620522Y-11811922D01*
X12626848Y-11792453D01*
X12630050Y-11772235D01*
X12630050Y-11751765D01*
X12626848Y-11731547D01*
X12625644Y-11727841D01*
X12620522Y-11712078D01*
X12617150Y-11705461D01*
X12611229Y-11693839D01*
X12605990Y-11686629D01*
X12599197Y-11677279D01*
X12584721Y-11662803D01*
X12568161Y-11650771D01*
X12568161Y-11650771D01*
X12568161Y-11650771D01*
X12562465Y-11647869D01*
X12549922Y-11641478D01*
X12530453Y-11635152D01*
X12512999Y-11632388D01*
X12510235Y-11631950D01*
X12489765Y-11631950D01*
X12487333Y-11632335D01*
X12469546Y-11635152D01*
X12450078Y-11641478D01*
X12431839Y-11650771D01*
X12415279Y-11662803D01*
X12400803Y-11677279D01*
X12388771Y-11693839D01*
X12379478Y-11712078D01*
X12373152Y-11731546D01*
X12369950Y-11751765D01*
X11589885Y-11751765D01*
X11593505Y-11746782D01*
X11593505Y-11746782D01*
X11593505Y-11746782D01*
X11603156Y-11727841D01*
X11609725Y-11707624D01*
X11613050Y-11686629D01*
X11613050Y-11665371D01*
X11609725Y-11644376D01*
X11603156Y-11624159D01*
X11593505Y-11605218D01*
X11593505Y-11605218D01*
X11593505Y-11605218D01*
X11581011Y-11588021D01*
X11565979Y-11572989D01*
X11548782Y-11560495D01*
X11529841Y-11550844D01*
X11529841Y-11550844D01*
X11529841Y-11550844D01*
X11509624Y-11544275D01*
X11509624Y-11544275D01*
X11509624Y-11544275D01*
X11493496Y-11541721D01*
X11488629Y-11540950D01*
X11467371Y-11540950D01*
X11462504Y-11541721D01*
X11446376Y-11544275D01*
X11426158Y-11550844D01*
X11407218Y-11560495D01*
X11390021Y-11572989D01*
X11374989Y-11588021D01*
X11362495Y-11605218D01*
X11362048Y-11606095D01*
X11357251Y-11611174D01*
X11350469Y-11612854D01*
X11343855Y-11610600D01*
X11339952Y-11606095D01*
X11339505Y-11605218D01*
X11327011Y-11588021D01*
X11311979Y-11572989D01*
X11294782Y-11560495D01*
X11275841Y-11550844D01*
X11275841Y-11550844D01*
X11275841Y-11550844D01*
X11255624Y-11544275D01*
X11255624Y-11544275D01*
X11255624Y-11544275D01*
X11239496Y-11541721D01*
X11234629Y-11540950D01*
X11213371Y-11540950D01*
X11208504Y-11541721D01*
X11192376Y-11544275D01*
X11172159Y-11550844D01*
X11153218Y-11560495D01*
X11136021Y-11572989D01*
X11120989Y-11588021D01*
X11108495Y-11605218D01*
X11108048Y-11606095D01*
X11103251Y-11611174D01*
X11096469Y-11612854D01*
X11089855Y-11610600D01*
X11085952Y-11606095D01*
X11085505Y-11605218D01*
X11073011Y-11588021D01*
X11057979Y-11572989D01*
X11040782Y-11560495D01*
X11021841Y-11550844D01*
X11021841Y-11550844D01*
X11021841Y-11550844D01*
X11001624Y-11544275D01*
X11001624Y-11544275D01*
X11001624Y-11544275D01*
X10985496Y-11541721D01*
X10980629Y-11540950D01*
X10959371Y-11540950D01*
X10957044Y-11541319D01*
X10938376Y-11544275D01*
X10938376Y-11544275D01*
X10931282Y-11546580D01*
X10928470Y-11546661D01*
X10925686Y-11547061D01*
X10925024Y-11546759D01*
X10924298Y-11546780D01*
X10921889Y-11545327D01*
X10919330Y-11544159D01*
X10918937Y-11543547D01*
X10918315Y-11543172D01*
X10917073Y-11540648D01*
X10915552Y-11538281D01*
X10915405Y-11537253D01*
X10915232Y-11536902D01*
X10915050Y-11534787D01*
X10915050Y-11529094D01*
X10915050Y-11529094D01*
X10915050Y-10989765D01*
X12369950Y-10989765D01*
X12369950Y-11010235D01*
X12373152Y-11030453D01*
X12379478Y-11049922D01*
X12388771Y-11068161D01*
X12400803Y-11084721D01*
X12415279Y-11099197D01*
X12430775Y-11110456D01*
X12431839Y-11111229D01*
X12443035Y-11116933D01*
X12450078Y-11120522D01*
X12450078Y-11120522D01*
X12450078Y-11120522D01*
X12460514Y-11123913D01*
X12469546Y-11126848D01*
X12479656Y-11128449D01*
X12489765Y-11130050D01*
X12489765Y-11130050D01*
X12510235Y-11130050D01*
X12510235Y-11130050D01*
X12530453Y-11126848D01*
X12549922Y-11120522D01*
X12568161Y-11111229D01*
X12578342Y-11103832D01*
X12584721Y-11099197D01*
X12584721Y-11099197D01*
X12584722Y-11099197D01*
X12599197Y-11084722D01*
X12599197Y-11084722D01*
X12599197Y-11084721D01*
X12611228Y-11068161D01*
X12611228Y-11068161D01*
X12611229Y-11068161D01*
X12611912Y-11066820D01*
X12616709Y-11061741D01*
X12622960Y-11060050D01*
X12937990Y-11060050D01*
X12944694Y-11062019D01*
X12946758Y-11063682D01*
X12986908Y-11103832D01*
X12990257Y-11109964D01*
X12989758Y-11116933D01*
X12985571Y-11122527D01*
X12979025Y-11124968D01*
X12978140Y-11125000D01*
X12938715Y-11125000D01*
X12932763Y-11125640D01*
X12932762Y-11125640D01*
X12919291Y-11130665D01*
X12919291Y-11130665D01*
X12907781Y-11139281D01*
X12907781Y-11139281D01*
X12899165Y-11150791D01*
X12899164Y-11150791D01*
X12894140Y-11164262D01*
X12894140Y-11164263D01*
X12893500Y-11170216D01*
X12893500Y-11225000D01*
X12967967Y-11225000D01*
X12965992Y-11226974D01*
X12961056Y-11235525D01*
X12958500Y-11245063D01*
X12958500Y-11254937D01*
X12961056Y-11264474D01*
X12965992Y-11273025D01*
X12967967Y-11275000D01*
X12893500Y-11275000D01*
X12893500Y-11329784D01*
X12894140Y-11335737D01*
X12894140Y-11335738D01*
X12899164Y-11349209D01*
X12899165Y-11349209D01*
X12907781Y-11360719D01*
X12907781Y-11360719D01*
X12919291Y-11369335D01*
X12919291Y-11369335D01*
X12932762Y-11374360D01*
X12932763Y-11374360D01*
X12938715Y-11375000D01*
X12938717Y-11375000D01*
X12971000Y-11375000D01*
X12971000Y-11278033D01*
X12972974Y-11280007D01*
X12981525Y-11284944D01*
X12991063Y-11287500D01*
X13000937Y-11287500D01*
X13010474Y-11284944D01*
X13019025Y-11280007D01*
X13020450Y-11278583D01*
X13020450Y-11282600D01*
X13020972Y-11285226D01*
X13020997Y-11286305D01*
X13020979Y-11286371D01*
X13021000Y-11286586D01*
X13021000Y-11375000D01*
X13053283Y-11375000D01*
X13053284Y-11375000D01*
X13059237Y-11374360D01*
X13059238Y-11374360D01*
X13072709Y-11369335D01*
X13072790Y-11369275D01*
X13072884Y-11369239D01*
X13073488Y-11368910D01*
X13073535Y-11368997D01*
X13079336Y-11366833D01*
X13084966Y-11367745D01*
X13093087Y-11371109D01*
X13109429Y-11374360D01*
X13112899Y-11375050D01*
X13112900Y-11375050D01*
X13112900Y-11375050D01*
X13133100Y-11375050D01*
X13133100Y-11375050D01*
X13152913Y-11371109D01*
X13171576Y-11363379D01*
X13179611Y-11358009D01*
X13186279Y-11355922D01*
X13193017Y-11357770D01*
X13193386Y-11358008D01*
X13201424Y-11363379D01*
X13220087Y-11371109D01*
X13236429Y-11374360D01*
X13239899Y-11375050D01*
X13239900Y-11375050D01*
X13239900Y-11375050D01*
X13260100Y-11375050D01*
X13260100Y-11375050D01*
X13279913Y-11371109D01*
X13298576Y-11363379D01*
X13315372Y-11352156D01*
X13329656Y-11337872D01*
X13340879Y-11321076D01*
X13348609Y-11302413D01*
X13352550Y-11282600D01*
X13352550Y-11217400D01*
X13348609Y-11197587D01*
X13340879Y-11178924D01*
X13340878Y-11178924D01*
X13340878Y-11178924D01*
X13329656Y-11162128D01*
X13315372Y-11147844D01*
X13298576Y-11136622D01*
X13298575Y-11136621D01*
X13279913Y-11128891D01*
X13279912Y-11128891D01*
X13260101Y-11124950D01*
X13260100Y-11124950D01*
X13239900Y-11124950D01*
X13239899Y-11124950D01*
X13220088Y-11128891D01*
X13220087Y-11128891D01*
X13201424Y-11136621D01*
X13197848Y-11139011D01*
X13191180Y-11141099D01*
X13184442Y-11139250D01*
X13180055Y-11134605D01*
X13179359Y-11133321D01*
X13178958Y-11131822D01*
X13172434Y-11120522D01*
X13171052Y-11118128D01*
X13159872Y-11106948D01*
X13159871Y-11106948D01*
X13159438Y-11106515D01*
X13159437Y-11106514D01*
X13016759Y-10963836D01*
X13016759Y-10963835D01*
X13004872Y-10951948D01*
X13004872Y-10951948D01*
X12996190Y-10946936D01*
X12996190Y-10946936D01*
X12996190Y-10946936D01*
X12991178Y-10944042D01*
X12975906Y-10939950D01*
X12960094Y-10939950D01*
X12959335Y-10939950D01*
X12959333Y-10939950D01*
X12622960Y-10939950D01*
X12616256Y-10937982D01*
X12611912Y-10933180D01*
X12611228Y-10931839D01*
X12599197Y-10915279D01*
X12584721Y-10900803D01*
X12568161Y-10888772D01*
X12568161Y-10888771D01*
X12568161Y-10888771D01*
X12562465Y-10885869D01*
X12549922Y-10879478D01*
X12530453Y-10873152D01*
X12512999Y-10870388D01*
X12510235Y-10869950D01*
X12489765Y-10869950D01*
X12487333Y-10870335D01*
X12469546Y-10873152D01*
X12450078Y-10879478D01*
X12431839Y-10888772D01*
X12415279Y-10900803D01*
X12400803Y-10915279D01*
X12388771Y-10931839D01*
X12379478Y-10950078D01*
X12373152Y-10969547D01*
X12369950Y-10989765D01*
X10915050Y-10989765D01*
X10915050Y-5409094D01*
X10914672Y-5407684D01*
X10914838Y-5400699D01*
X10918754Y-5394913D01*
X10925177Y-5392162D01*
X10932067Y-5393321D01*
X10935418Y-5395707D01*
X10971318Y-5431607D01*
X10974667Y-5437739D01*
X10974950Y-5440375D01*
X10974950Y-9026333D01*
X10974950Y-9026335D01*
X10974950Y-9042905D01*
X10974950Y-9042905D01*
X10979042Y-9058179D01*
X10981936Y-9063190D01*
X10981936Y-9063190D01*
X10981936Y-9063190D01*
X10986948Y-9071871D01*
X10986948Y-9071872D01*
X10998835Y-9083759D01*
X10998836Y-9083759D01*
X11011318Y-9096242D01*
X11014667Y-9102374D01*
X11014950Y-9105010D01*
X11014950Y-9118629D01*
X11018275Y-9139624D01*
X11024844Y-9159841D01*
X11034495Y-9178782D01*
X11046989Y-9195979D01*
X11062021Y-9211011D01*
X11079218Y-9223505D01*
X11079218Y-9223505D01*
X11079218Y-9223505D01*
X11098159Y-9233156D01*
X11118376Y-9239725D01*
X11139371Y-9243050D01*
X11139371Y-9243050D01*
X11160629Y-9243050D01*
X11160629Y-9243050D01*
X11181624Y-9239725D01*
X11201841Y-9233156D01*
X11220782Y-9223505D01*
X11222979Y-9221909D01*
X11237979Y-9211011D01*
X11237979Y-9211011D01*
X11237979Y-9211010D01*
X11253010Y-9195979D01*
X11253011Y-9195979D01*
X11253011Y-9195979D01*
X11265505Y-9178782D01*
X11265505Y-9178782D01*
X11265505Y-9178782D01*
X11275156Y-9159841D01*
X11281725Y-9139624D01*
X11285050Y-9118629D01*
X11285050Y-9097371D01*
X11281725Y-9076376D01*
X11275156Y-9056159D01*
X11265505Y-9037218D01*
X11265505Y-9037218D01*
X11265505Y-9037218D01*
X11253011Y-9020021D01*
X11237979Y-9004989D01*
X11220782Y-8992495D01*
X11219850Y-8992020D01*
X11214771Y-8987223D01*
X11213091Y-8980441D01*
X11215345Y-8973827D01*
X11219851Y-8969923D01*
X11220755Y-8969462D01*
X11226172Y-8965527D01*
X11226172Y-8965527D01*
X11162941Y-8902296D01*
X11169299Y-8900593D01*
X11180701Y-8894010D01*
X11190010Y-8884701D01*
X11196592Y-8873299D01*
X11198296Y-8866941D01*
X11261527Y-8930172D01*
X11261527Y-8930172D01*
X11265462Y-8924755D01*
X11275109Y-8905822D01*
X11281676Y-8885613D01*
X11281676Y-8885613D01*
X11285000Y-8864625D01*
X11285000Y-8843375D01*
X11281676Y-8822387D01*
X11281676Y-8822387D01*
X11281149Y-8820765D01*
X11669950Y-8820765D01*
X11669950Y-8841235D01*
X11673152Y-8861453D01*
X11679478Y-8880922D01*
X11688771Y-8899161D01*
X11700803Y-8915721D01*
X11715279Y-8930197D01*
X11730775Y-8941456D01*
X11731839Y-8942229D01*
X11743461Y-8948150D01*
X11750078Y-8951522D01*
X11750078Y-8951522D01*
X11750078Y-8951522D01*
X11760514Y-8954913D01*
X11769546Y-8957848D01*
X11779656Y-8959449D01*
X11789765Y-8961050D01*
X11789765Y-8961050D01*
X11810235Y-8961050D01*
X11810235Y-8961050D01*
X11830453Y-8957848D01*
X11849922Y-8951522D01*
X11868161Y-8942229D01*
X11877459Y-8935473D01*
X11884721Y-8930197D01*
X11884721Y-8930197D01*
X11884722Y-8930197D01*
X11899197Y-8915722D01*
X11899197Y-8915722D01*
X11899197Y-8915721D01*
X11904473Y-8908459D01*
X11911229Y-8899161D01*
X11920522Y-8880922D01*
X11926848Y-8861453D01*
X11930050Y-8841235D01*
X11930050Y-8820765D01*
X11926848Y-8800547D01*
X11920522Y-8781078D01*
X11920522Y-8781078D01*
X11920522Y-8781078D01*
X11917150Y-8774461D01*
X11911229Y-8762839D01*
X11910456Y-8761775D01*
X11899197Y-8746279D01*
X11884721Y-8731803D01*
X11868161Y-8719772D01*
X11868161Y-8719771D01*
X11868161Y-8719771D01*
X11860719Y-8715979D01*
X11849922Y-8710478D01*
X11830453Y-8704152D01*
X11812999Y-8701388D01*
X11810235Y-8700950D01*
X11789765Y-8700950D01*
X11787333Y-8701335D01*
X11769546Y-8704152D01*
X11750078Y-8710478D01*
X11731839Y-8719772D01*
X11715279Y-8731803D01*
X11700803Y-8746279D01*
X11688771Y-8762839D01*
X11679478Y-8781078D01*
X11673152Y-8800547D01*
X11669950Y-8820765D01*
X11281149Y-8820765D01*
X11275109Y-8802178D01*
X11265462Y-8783245D01*
X11261527Y-8777828D01*
X11261527Y-8777828D01*
X11198296Y-8841059D01*
X11196592Y-8834701D01*
X11190010Y-8823299D01*
X11180701Y-8813990D01*
X11169299Y-8807408D01*
X11162941Y-8805704D01*
X11226172Y-8742473D01*
X11220755Y-8738537D01*
X11220755Y-8738537D01*
X11219850Y-8738076D01*
X11214771Y-8733279D01*
X11213091Y-8726497D01*
X11215345Y-8719883D01*
X11219851Y-8715979D01*
X11220782Y-8715505D01*
X11228701Y-8709752D01*
X11237979Y-8703011D01*
X11237979Y-8703011D01*
X11237979Y-8703010D01*
X11253010Y-8687979D01*
X11253011Y-8687979D01*
X11253011Y-8687979D01*
X11265505Y-8670782D01*
X11265505Y-8670782D01*
X11265505Y-8670782D01*
X11275156Y-8651841D01*
X11281725Y-8631624D01*
X11285050Y-8610629D01*
X11285050Y-8589371D01*
X11281725Y-8568376D01*
X11280351Y-8564147D01*
X11280151Y-8557164D01*
X11283375Y-8551548D01*
X11629699Y-8205225D01*
X11629699Y-8205225D01*
X11640879Y-8194044D01*
X11645891Y-8185363D01*
X11648785Y-8180351D01*
X11652877Y-8165078D01*
X11652877Y-8149267D01*
X11652877Y-8115344D01*
X11654846Y-8108640D01*
X11660126Y-8104065D01*
X11667042Y-8103070D01*
X11673398Y-8105973D01*
X11677070Y-8111512D01*
X11679478Y-8118922D01*
X11688144Y-8135931D01*
X11688771Y-8137161D01*
X11700803Y-8153721D01*
X11715279Y-8168197D01*
X11730775Y-8179456D01*
X11731839Y-8180229D01*
X11741916Y-8185363D01*
X11750078Y-8189522D01*
X11750078Y-8189522D01*
X11750078Y-8189522D01*
X11760514Y-8192913D01*
X11769546Y-8195848D01*
X11779656Y-8197449D01*
X11789765Y-8199050D01*
X11789765Y-8199050D01*
X11810235Y-8199050D01*
X11810235Y-8199050D01*
X11830453Y-8195848D01*
X11849922Y-8189522D01*
X11868161Y-8180229D01*
X11877459Y-8173473D01*
X11884721Y-8168197D01*
X11884721Y-8168197D01*
X11884722Y-8168197D01*
X11899197Y-8153722D01*
X11899197Y-8153721D01*
X11899197Y-8153721D01*
X11904473Y-8146459D01*
X11911229Y-8137161D01*
X11920522Y-8118922D01*
X11926848Y-8099453D01*
X11930050Y-8079235D01*
X11930050Y-8058765D01*
X11926848Y-8038547D01*
X11920522Y-8019078D01*
X11920522Y-8019078D01*
X11920522Y-8019078D01*
X11917150Y-8012461D01*
X11911229Y-8000839D01*
X11910456Y-7999775D01*
X11899197Y-7984279D01*
X11884721Y-7969803D01*
X11868161Y-7957771D01*
X11866820Y-7957088D01*
X11861741Y-7952290D01*
X11860050Y-7946040D01*
X11860050Y-7741094D01*
X11860050Y-7741094D01*
X11860038Y-7741050D01*
X11857992Y-7733413D01*
X11855958Y-7725822D01*
X11851203Y-7717586D01*
X11848052Y-7712129D01*
X11848052Y-7712129D01*
X11848052Y-7712128D01*
X11836872Y-7700948D01*
X11836871Y-7700948D01*
X11836438Y-7700515D01*
X11836437Y-7700514D01*
X11675759Y-7539835D01*
X11675759Y-7539835D01*
X11663872Y-7527948D01*
X11663872Y-7527948D01*
X11655190Y-7522936D01*
X11655190Y-7522936D01*
X11655190Y-7522936D01*
X11650178Y-7520042D01*
X11634906Y-7515950D01*
X11619094Y-7515950D01*
X11618335Y-7515950D01*
X11618333Y-7515950D01*
X11556233Y-7515950D01*
X11540422Y-7515950D01*
X11525149Y-7520042D01*
X11525149Y-7520042D01*
X11525149Y-7520042D01*
X11525148Y-7520042D01*
X11520137Y-7522936D01*
X11520137Y-7522936D01*
X11515796Y-7525442D01*
X11511456Y-7527948D01*
X11511456Y-7527948D01*
X11500275Y-7539128D01*
X11500275Y-7539128D01*
X11500275Y-7539129D01*
X11486892Y-7552512D01*
X11480759Y-7555860D01*
X11476545Y-7555898D01*
X11476534Y-7556010D01*
X11475928Y-7555950D01*
X11455727Y-7555950D01*
X11455727Y-7555950D01*
X11435915Y-7559891D01*
X11435914Y-7559891D01*
X11427793Y-7563255D01*
X11420846Y-7564002D01*
X11416341Y-7562040D01*
X11416315Y-7562090D01*
X11415765Y-7561789D01*
X11415617Y-7561725D01*
X11415536Y-7561664D01*
X11402065Y-7556640D01*
X11402065Y-7556640D01*
X11396112Y-7556000D01*
X11363827Y-7556000D01*
X11363827Y-7644413D01*
X11363589Y-7646833D01*
X11363277Y-7648399D01*
X11363277Y-7652417D01*
X11361853Y-7650992D01*
X11353302Y-7646056D01*
X11343764Y-7643500D01*
X11333890Y-7643500D01*
X11324353Y-7646056D01*
X11315802Y-7650992D01*
X11313827Y-7652967D01*
X11313827Y-7556000D01*
X11281543Y-7556000D01*
X11275590Y-7556640D01*
X11275589Y-7556640D01*
X11262119Y-7561664D01*
X11262118Y-7561665D01*
X11250609Y-7570281D01*
X11250608Y-7570281D01*
X11241992Y-7581791D01*
X11241992Y-7581791D01*
X11236968Y-7595262D01*
X11236967Y-7595263D01*
X11236327Y-7601215D01*
X11236327Y-7656000D01*
X11310794Y-7656000D01*
X11308820Y-7657974D01*
X11303883Y-7666525D01*
X11301327Y-7676063D01*
X11301327Y-7685937D01*
X11303883Y-7695474D01*
X11308820Y-7704025D01*
X11310794Y-7706000D01*
X11236327Y-7706000D01*
X11236327Y-7760784D01*
X11236967Y-7766737D01*
X11236968Y-7766738D01*
X11241992Y-7780209D01*
X11241992Y-7780209D01*
X11250608Y-7791719D01*
X11250609Y-7791719D01*
X11262118Y-7800335D01*
X11262119Y-7800335D01*
X11275589Y-7805360D01*
X11275590Y-7805360D01*
X11281543Y-7806000D01*
X11281545Y-7806000D01*
X11313827Y-7806000D01*
X11313827Y-7709033D01*
X11315802Y-7711007D01*
X11324353Y-7715944D01*
X11333890Y-7718500D01*
X11343764Y-7718500D01*
X11353302Y-7715944D01*
X11361853Y-7711007D01*
X11363277Y-7709583D01*
X11363277Y-7713600D01*
X11363589Y-7715167D01*
X11363827Y-7717586D01*
X11363827Y-7806000D01*
X11396110Y-7806000D01*
X11396112Y-7806000D01*
X11402065Y-7805360D01*
X11402065Y-7805360D01*
X11415536Y-7800335D01*
X11415617Y-7800275D01*
X11415712Y-7800239D01*
X11416315Y-7799910D01*
X11416362Y-7799997D01*
X11422163Y-7797833D01*
X11427793Y-7798745D01*
X11435915Y-7802109D01*
X11451682Y-7805245D01*
X11455727Y-7806050D01*
X11455727Y-7806050D01*
X11455727Y-7806050D01*
X11475928Y-7806050D01*
X11475928Y-7806050D01*
X11495740Y-7802109D01*
X11514403Y-7794379D01*
X11514403Y-7794378D01*
X11514531Y-7794310D01*
X11514606Y-7794294D01*
X11514966Y-7794145D01*
X11514994Y-7794214D01*
X11521372Y-7792885D01*
X11527896Y-7795385D01*
X11532033Y-7801015D01*
X11532777Y-7805245D01*
X11532777Y-8127163D01*
X11530809Y-8133867D01*
X11529145Y-8135931D01*
X11306218Y-8358858D01*
X11300086Y-8362207D01*
X11293116Y-8361708D01*
X11287523Y-8357521D01*
X11285081Y-8350975D01*
X11285050Y-8350090D01*
X11285050Y-8256213D01*
X11285050Y-8256212D01*
X11284409Y-8250252D01*
X11279380Y-8236767D01*
X11279379Y-8236766D01*
X11270755Y-8225245D01*
X11270754Y-8225245D01*
X11259233Y-8216621D01*
X11259233Y-8216620D01*
X11245748Y-8211591D01*
X11245748Y-8211591D01*
X11239788Y-8210950D01*
X11239788Y-8210950D01*
X11239787Y-8210950D01*
X11239786Y-8210950D01*
X11222450Y-8210950D01*
X11215746Y-8208981D01*
X11211171Y-8203701D01*
X11210050Y-8198550D01*
X11210050Y-5351765D01*
X12019950Y-5351765D01*
X12019950Y-5372235D01*
X12020388Y-5375000D01*
X12023152Y-5392453D01*
X12029478Y-5411922D01*
X12038771Y-5430161D01*
X12050803Y-5446721D01*
X12065279Y-5461197D01*
X12080775Y-5472456D01*
X12081839Y-5473229D01*
X12087935Y-5476335D01*
X12100078Y-5482522D01*
X12100078Y-5482522D01*
X12100078Y-5482522D01*
X12110514Y-5485913D01*
X12119546Y-5488848D01*
X12129656Y-5490449D01*
X12139765Y-5492050D01*
X12139765Y-5492050D01*
X12160235Y-5492050D01*
X12160235Y-5492050D01*
X12180453Y-5488848D01*
X12199922Y-5482522D01*
X12218161Y-5473229D01*
X12231196Y-5463758D01*
X12234721Y-5461197D01*
X12234721Y-5461197D01*
X12234722Y-5461197D01*
X12249197Y-5446722D01*
X12249197Y-5446722D01*
X12249197Y-5446721D01*
X12260178Y-5431607D01*
X12261229Y-5430161D01*
X12270522Y-5411922D01*
X12276848Y-5392453D01*
X12280050Y-5372235D01*
X12280050Y-5351765D01*
X12276848Y-5331547D01*
X12270522Y-5312078D01*
X12270522Y-5312078D01*
X12270522Y-5312078D01*
X12263725Y-5298739D01*
X12261229Y-5293839D01*
X12260334Y-5292607D01*
X12249197Y-5277279D01*
X12234721Y-5262803D01*
X12218161Y-5250772D01*
X12218161Y-5250771D01*
X12218161Y-5250771D01*
X12212465Y-5247869D01*
X12199922Y-5241478D01*
X12180453Y-5235152D01*
X12162999Y-5232388D01*
X12160235Y-5231950D01*
X12139765Y-5231950D01*
X12137333Y-5232335D01*
X12119546Y-5235152D01*
X12100078Y-5241478D01*
X12081839Y-5250772D01*
X12065279Y-5262803D01*
X12050803Y-5277279D01*
X12038771Y-5293839D01*
X12029478Y-5312078D01*
X12023152Y-5331547D01*
X12020157Y-5350456D01*
X12019950Y-5351765D01*
X11210050Y-5351765D01*
X11210050Y-5263460D01*
X11210050Y-5263460D01*
X11205958Y-5248187D01*
X11205958Y-5248187D01*
X11202084Y-5241478D01*
X11198052Y-5234494D01*
X11186872Y-5223313D01*
X11186871Y-5223313D01*
X11186438Y-5222880D01*
X11186437Y-5222879D01*
X10611562Y-4648004D01*
X10610182Y-4645477D01*
X10608550Y-4643106D01*
X10608529Y-4642449D01*
X10608214Y-4641872D01*
X10608419Y-4639000D01*
X10608328Y-4636122D01*
X10608678Y-4635380D01*
X10608712Y-4634903D01*
X10609691Y-4632867D01*
X10609974Y-4632395D01*
X10615505Y-4624782D01*
X10625156Y-4605841D01*
X10631725Y-4585624D01*
X10634271Y-4569547D01*
X10634910Y-4565510D01*
X10637903Y-4559197D01*
X10643835Y-4555504D01*
X10647158Y-4555050D01*
X11081100Y-4555050D01*
X11087804Y-4557019D01*
X11092379Y-4562299D01*
X11093500Y-4567450D01*
X11093500Y-4575000D01*
X11167967Y-4575000D01*
X11165993Y-4576975D01*
X11161056Y-4585526D01*
X11158500Y-4595063D01*
X11158500Y-4604937D01*
X11161056Y-4614475D01*
X11165993Y-4623026D01*
X11167967Y-4625000D01*
X11093500Y-4625000D01*
X11093500Y-4679784D01*
X11094140Y-4685737D01*
X11094140Y-4685738D01*
X11099165Y-4699209D01*
X11099165Y-4699209D01*
X11107781Y-4710719D01*
X11107781Y-4710719D01*
X11119291Y-4719335D01*
X11119291Y-4719335D01*
X11132762Y-4724360D01*
X11132763Y-4724360D01*
X11138716Y-4725000D01*
X11138717Y-4725000D01*
X11171000Y-4725000D01*
X11171000Y-4628033D01*
X11172975Y-4630008D01*
X11181526Y-4634944D01*
X11191063Y-4637500D01*
X11200937Y-4637500D01*
X11210474Y-4634944D01*
X11219025Y-4630008D01*
X11220450Y-4628583D01*
X11220450Y-4632600D01*
X11220972Y-4635226D01*
X11220997Y-4636305D01*
X11220979Y-4636371D01*
X11221000Y-4636587D01*
X11221000Y-4725000D01*
X11253283Y-4725000D01*
X11253284Y-4725000D01*
X11259237Y-4724360D01*
X11259238Y-4724360D01*
X11272709Y-4719335D01*
X11272790Y-4719275D01*
X11272884Y-4719239D01*
X11273488Y-4718910D01*
X11273535Y-4718997D01*
X11279336Y-4716833D01*
X11284966Y-4717745D01*
X11293087Y-4721109D01*
X11309429Y-4724360D01*
X11312899Y-4725050D01*
X11312900Y-4725050D01*
X11312900Y-4725050D01*
X11333100Y-4725050D01*
X11333707Y-4724990D01*
X11333722Y-4725145D01*
X11334412Y-4724888D01*
X11337098Y-4725472D01*
X11339836Y-4725717D01*
X11340637Y-4726242D01*
X11341239Y-4726373D01*
X11344064Y-4728488D01*
X11357014Y-4741437D01*
X11357015Y-4741439D01*
X11357448Y-4741872D01*
X11357448Y-4741872D01*
X11368628Y-4753052D01*
X11374043Y-4756178D01*
X11377309Y-4758064D01*
X11377310Y-4758064D01*
X11382321Y-4760958D01*
X11382321Y-4760958D01*
X11397594Y-4765050D01*
X11397594Y-4765050D01*
X12036333Y-4765050D01*
X12036335Y-4765050D01*
X12037094Y-4765050D01*
X12052905Y-4765050D01*
X12052906Y-4765050D01*
X12068178Y-4760958D01*
X12073190Y-4758064D01*
X12081872Y-4753052D01*
X12093052Y-4741872D01*
X12093052Y-4741871D01*
X12094073Y-4740851D01*
X12094073Y-4740850D01*
X12105516Y-4729408D01*
X12111648Y-4726059D01*
X12118115Y-4726383D01*
X12119547Y-4726848D01*
X12139765Y-4730050D01*
X12139765Y-4730050D01*
X12160235Y-4730050D01*
X12160235Y-4730050D01*
X12180453Y-4726848D01*
X12199922Y-4720522D01*
X12218161Y-4711229D01*
X12230649Y-4702156D01*
X12234721Y-4699197D01*
X12234721Y-4699197D01*
X12234722Y-4699197D01*
X12249197Y-4684722D01*
X12249197Y-4684722D01*
X12249197Y-4684721D01*
X12259111Y-4671076D01*
X12261229Y-4668161D01*
X12270522Y-4649922D01*
X12276848Y-4630453D01*
X12280050Y-4610235D01*
X12280050Y-4589765D01*
X12278023Y-4576969D01*
X12276848Y-4569547D01*
X12272777Y-4557019D01*
X12270522Y-4550078D01*
X12270522Y-4550078D01*
X12270522Y-4550078D01*
X12267150Y-4543461D01*
X12261229Y-4531839D01*
X12259111Y-4528925D01*
X12249197Y-4515279D01*
X12234721Y-4500803D01*
X12218161Y-4488772D01*
X12218161Y-4488771D01*
X12218161Y-4488771D01*
X12212465Y-4485869D01*
X12199922Y-4479478D01*
X12180453Y-4473152D01*
X12162999Y-4470388D01*
X12160235Y-4469950D01*
X12139765Y-4469950D01*
X12137333Y-4470335D01*
X12119546Y-4473152D01*
X12100078Y-4479478D01*
X12081839Y-4488772D01*
X12065279Y-4500803D01*
X12050803Y-4515279D01*
X12038771Y-4531839D01*
X12029478Y-4550078D01*
X12023152Y-4569547D01*
X12019950Y-4589765D01*
X12019950Y-4610235D01*
X12023177Y-4630610D01*
X12022282Y-4637540D01*
X12017782Y-4642885D01*
X12011107Y-4644949D01*
X12010930Y-4644950D01*
X11564950Y-4644950D01*
X11558246Y-4642982D01*
X11553671Y-4637701D01*
X11552550Y-4632550D01*
X11552550Y-4567400D01*
X11552550Y-4567399D01*
X11550918Y-4559197D01*
X11548609Y-4547587D01*
X11540879Y-4528924D01*
X11540878Y-4528924D01*
X11540878Y-4528924D01*
X11529656Y-4512128D01*
X11515372Y-4497844D01*
X11498576Y-4486622D01*
X11498575Y-4486621D01*
X11479913Y-4478891D01*
X11479912Y-4478891D01*
X11460101Y-4474950D01*
X11460100Y-4474950D01*
X11439900Y-4474950D01*
X11439293Y-4475010D01*
X11439278Y-4474855D01*
X11438588Y-4475112D01*
X11435901Y-4474528D01*
X11433163Y-4474283D01*
X11432362Y-4473758D01*
X11431761Y-4473627D01*
X11428935Y-4471512D01*
X11416259Y-4458836D01*
X11416259Y-4458835D01*
X11404372Y-4446948D01*
X11404372Y-4446948D01*
X11395690Y-4441936D01*
X11395690Y-4441936D01*
X11395690Y-4441936D01*
X11390678Y-4439042D01*
X11375406Y-4434950D01*
X11359594Y-4434950D01*
X11358835Y-4434950D01*
X11358833Y-4434950D01*
X10634900Y-4434950D01*
X10628196Y-4432982D01*
X10623621Y-4427701D01*
X10622626Y-4420785D01*
X10624973Y-4415119D01*
X10629380Y-4409233D01*
X10634409Y-4395748D01*
X10635050Y-4389787D01*
X10635050Y-4210213D01*
X10634409Y-4204252D01*
X10629380Y-4190767D01*
X10629380Y-4190767D01*
X10629379Y-4190766D01*
X10620755Y-4179245D01*
X10620754Y-4179245D01*
X10609234Y-4170621D01*
X10609233Y-4170620D01*
X10595748Y-4165591D01*
X10595748Y-4165591D01*
X10589788Y-4164950D01*
X10589788Y-4164950D01*
X10589787Y-4164950D01*
X10589786Y-4164950D01*
X10410213Y-4164950D01*
X10410212Y-4164950D01*
X10404252Y-4165591D01*
X10390767Y-4170620D01*
X10390766Y-4170621D01*
X10379246Y-4179245D01*
X10379245Y-4179245D01*
X10370621Y-4190766D01*
X10370620Y-4190767D01*
X10365591Y-4204252D01*
X10364950Y-4210212D01*
X10364950Y-4210212D01*
X10364950Y-4210214D01*
X10364950Y-4344990D01*
X10364086Y-4347934D01*
X10363433Y-4350933D01*
X10363058Y-4351434D01*
X10362982Y-4351694D01*
X10361318Y-4353758D01*
X10348129Y-4366948D01*
X10348128Y-4366948D01*
X10348128Y-4366948D01*
X10348128Y-4366948D01*
X10336948Y-4378128D01*
X10336948Y-4378128D01*
X10333094Y-4384803D01*
X10331936Y-4386809D01*
X10331936Y-4386810D01*
X10329043Y-4391821D01*
X10329042Y-4391821D01*
X10329042Y-4391822D01*
X10324950Y-4407094D01*
X10324950Y-4407095D01*
X10324950Y-4423905D01*
X10324950Y-4423906D01*
X10324950Y-4592968D01*
X10324950Y-4592969D01*
X10324950Y-4609540D01*
X10324950Y-4609540D01*
X10329042Y-4624813D01*
X10329460Y-4625537D01*
X10329461Y-4625538D01*
X10336948Y-4638506D01*
X10336948Y-4638506D01*
X10348835Y-4650393D01*
X10348835Y-4650394D01*
X10415494Y-4717052D01*
X10415494Y-4717052D01*
X10415494Y-4717052D01*
X10429186Y-4724957D01*
X10429187Y-4724958D01*
X10444460Y-4729050D01*
X10444460Y-4729050D01*
X10451269Y-4729050D01*
X10457973Y-4731019D01*
X10460037Y-4732682D01*
X10487059Y-4759704D01*
X10480701Y-4761408D01*
X10469299Y-4767990D01*
X10459990Y-4777299D01*
X10453408Y-4788701D01*
X10451704Y-4795059D01*
X10388473Y-4731828D01*
X10388473Y-4731828D01*
X10384538Y-4737244D01*
X10374890Y-4756178D01*
X10368324Y-4776387D01*
X10368324Y-4776387D01*
X10365000Y-4797375D01*
X10365000Y-4818625D01*
X10368324Y-4839613D01*
X10368324Y-4839613D01*
X10374890Y-4859822D01*
X10384538Y-4878755D01*
X10388473Y-4884172D01*
X10451704Y-4820941D01*
X10453408Y-4827299D01*
X10459990Y-4838701D01*
X10469299Y-4848010D01*
X10480701Y-4854593D01*
X10487059Y-4856296D01*
X10460037Y-4883318D01*
X10453905Y-4886667D01*
X10451269Y-4886950D01*
X10444460Y-4886950D01*
X10437306Y-4888867D01*
X10429187Y-4891042D01*
X10429186Y-4891043D01*
X10415494Y-4898948D01*
X10415494Y-4898948D01*
X10336948Y-4977494D01*
X10336948Y-4977494D01*
X10333266Y-4983872D01*
X10329042Y-4991187D01*
X10324950Y-5006460D01*
X10324950Y-5006460D01*
X10324950Y-5023270D01*
X10324950Y-5023271D01*
X10324950Y-5476333D01*
X10324950Y-5476335D01*
X10324950Y-5492905D01*
X10324950Y-5492905D01*
X10329042Y-5508179D01*
X10331936Y-5513190D01*
X10331936Y-5513190D01*
X10331936Y-5513190D01*
X10336948Y-5521871D01*
X10336948Y-5521872D01*
X10348835Y-5533759D01*
X10348836Y-5533759D01*
X10586318Y-5771242D01*
X10589667Y-5777374D01*
X10589950Y-5780010D01*
X10589950Y-10569990D01*
X10587982Y-10576694D01*
X10586318Y-10578758D01*
X10320948Y-10844128D01*
X10320948Y-10844129D01*
X10315936Y-10852809D01*
X10315936Y-10852810D01*
X10313043Y-10857821D01*
X10313042Y-10857821D01*
X10313042Y-10857822D01*
X10308950Y-10873094D01*
X10308950Y-10873095D01*
X10308950Y-10889905D01*
X10308950Y-10889906D01*
X10308950Y-11558077D01*
X10306982Y-11564781D01*
X10301701Y-11569356D01*
X10294785Y-11570351D01*
X10289262Y-11568109D01*
X10278782Y-11560495D01*
X10259841Y-11550844D01*
X10259841Y-11550844D01*
X10259841Y-11550844D01*
X10239624Y-11544275D01*
X10239624Y-11544275D01*
X10239624Y-11544275D01*
X10223496Y-11541721D01*
X10218629Y-11540950D01*
X10197371Y-11540950D01*
X10192504Y-11541721D01*
X10176376Y-11544275D01*
X10156159Y-11550844D01*
X10137218Y-11560495D01*
X10120021Y-11572989D01*
X10104989Y-11588021D01*
X10092495Y-11605218D01*
X10092020Y-11606150D01*
X10087223Y-11611229D01*
X10080441Y-11612909D01*
X10073827Y-11610655D01*
X10069923Y-11606149D01*
X10069463Y-11605245D01*
X10065527Y-11599828D01*
X10065527Y-11599828D01*
X10002296Y-11663059D01*
X10000593Y-11656701D01*
X9994010Y-11645299D01*
X9984701Y-11635990D01*
X9973299Y-11629407D01*
X9966941Y-11627704D01*
X10030172Y-11564473D01*
X10024755Y-11560537D01*
X10005822Y-11550890D01*
X9985613Y-11544324D01*
X9964625Y-11541000D01*
X9943375Y-11541000D01*
X9922387Y-11544324D01*
X9922387Y-11544324D01*
X9902178Y-11550890D01*
X9883244Y-11560538D01*
X9877828Y-11564473D01*
X9877828Y-11564473D01*
X9941059Y-11627704D01*
X9934701Y-11629407D01*
X9923299Y-11635990D01*
X9913990Y-11645299D01*
X9907408Y-11656701D01*
X9905704Y-11663059D01*
X9838682Y-11596037D01*
X9835333Y-11589905D01*
X9835333Y-11589904D01*
X9835050Y-11588601D01*
X9835050Y-11586213D01*
X9834409Y-11580252D01*
X9830716Y-11570351D01*
X9829380Y-11566767D01*
X9829379Y-11566766D01*
X9820755Y-11555245D01*
X9820754Y-11555245D01*
X9809234Y-11546621D01*
X9809233Y-11546620D01*
X9795748Y-11541591D01*
X9795748Y-11541591D01*
X9789788Y-11540950D01*
X9789788Y-11540950D01*
X9789787Y-11540950D01*
X9789786Y-11540950D01*
X9610213Y-11540950D01*
X9610212Y-11540950D01*
X9604252Y-11541591D01*
X9590767Y-11546620D01*
X9590766Y-11546621D01*
X9579246Y-11555245D01*
X9579245Y-11555245D01*
X9572377Y-11564421D01*
X9566783Y-11568608D01*
X9559814Y-11569106D01*
X9553682Y-11565758D01*
X9550333Y-11559625D01*
X9550050Y-11556990D01*
X9550050Y-10315500D01*
X9552019Y-10308796D01*
X9557299Y-10304221D01*
X9564215Y-10303226D01*
X9570570Y-10306129D01*
X9571736Y-10307282D01*
X9575428Y-10311454D01*
X9607988Y-10342404D01*
X9643095Y-10370431D01*
X9680487Y-10395327D01*
X9719887Y-10416907D01*
X9719888Y-10416907D01*
X9719888Y-10416907D01*
X9745869Y-10428346D01*
X9761001Y-10435008D01*
X9803523Y-10449498D01*
X9847135Y-10460267D01*
X9891514Y-10467236D01*
X9891514Y-10467236D01*
X9891515Y-10467236D01*
X9912440Y-10468691D01*
X9936328Y-10470352D01*
X9936328Y-10470352D01*
X9936329Y-10470352D01*
X9956744Y-10470007D01*
X9981244Y-10469594D01*
X10025927Y-10464965D01*
X10070045Y-10456501D01*
X10113269Y-10444264D01*
X10155277Y-10428346D01*
X10195756Y-10408866D01*
X10234404Y-10385968D01*
X10270934Y-10359823D01*
X10305075Y-10330625D01*
X10336570Y-10298593D01*
X10365186Y-10263965D01*
X10390710Y-10226998D01*
X10412952Y-10187968D01*
X10431746Y-10147166D01*
X10446952Y-10104895D01*
X10458456Y-10061471D01*
X10458456Y-10061470D01*
X10458457Y-10061470D01*
X10466174Y-10017217D01*
X10466174Y-10017216D01*
X10470047Y-9972461D01*
X10470047Y-9927539D01*
X10466174Y-9882784D01*
X10462969Y-9864403D01*
X10458457Y-9838530D01*
X10457350Y-9834353D01*
X10446952Y-9795105D01*
X10445329Y-9790595D01*
X10431746Y-9752834D01*
X10416155Y-9718985D01*
X10412952Y-9712032D01*
X10390710Y-9673002D01*
X10365186Y-9636035D01*
X10336570Y-9601407D01*
X10305075Y-9569375D01*
X10305074Y-9569375D01*
X10305074Y-9569374D01*
X10270935Y-9540178D01*
X10270934Y-9540177D01*
X10234404Y-9514032D01*
X10234404Y-9514032D01*
X10218037Y-9504335D01*
X10195756Y-9491134D01*
X10195755Y-9491134D01*
X10195754Y-9491133D01*
X10155277Y-9471654D01*
X10155276Y-9471653D01*
X10113270Y-9455736D01*
X10113269Y-9455736D01*
X10070045Y-9443500D01*
X10070045Y-9443499D01*
X10070044Y-9443499D01*
X10045869Y-9438861D01*
X10025927Y-9435035D01*
X10013161Y-9433713D01*
X9981245Y-9430407D01*
X9981244Y-9430406D01*
X9936329Y-9429648D01*
X9936328Y-9429648D01*
X9891515Y-9432764D01*
X9847136Y-9439733D01*
X9847134Y-9439733D01*
X9803523Y-9450502D01*
X9803522Y-9450503D01*
X9761000Y-9464992D01*
X9719888Y-9483093D01*
X9680488Y-9504673D01*
X9680487Y-9504673D01*
X9643095Y-9529569D01*
X9643094Y-9529569D01*
X9643094Y-9529569D01*
X9607989Y-9557595D01*
X9607987Y-9557597D01*
X9575429Y-9588545D01*
X9575428Y-9588546D01*
X9571736Y-9592718D01*
X9565819Y-9596433D01*
X9558833Y-9596361D01*
X9552995Y-9592522D01*
X9550159Y-9586137D01*
X9550050Y-9584500D01*
X9550050Y-6615500D01*
X9552019Y-6608796D01*
X9557299Y-6604220D01*
X9564215Y-6603226D01*
X9570570Y-6606129D01*
X9571736Y-6607282D01*
X9575428Y-6611454D01*
X9607988Y-6642404D01*
X9643095Y-6670431D01*
X9680487Y-6695327D01*
X9719887Y-6716906D01*
X9719888Y-6716907D01*
X9719888Y-6716907D01*
X9745869Y-6728346D01*
X9761001Y-6735008D01*
X9803523Y-6749498D01*
X9847135Y-6760267D01*
X9891514Y-6767236D01*
X9891514Y-6767236D01*
X9891515Y-6767236D01*
X9912440Y-6768691D01*
X9936328Y-6770352D01*
X9936328Y-6770352D01*
X9936329Y-6770352D01*
X9956744Y-6770007D01*
X9981244Y-6769593D01*
X10025927Y-6764965D01*
X10070045Y-6756500D01*
X10113269Y-6744264D01*
X10155277Y-6728346D01*
X10195756Y-6708866D01*
X10234404Y-6685968D01*
X10270934Y-6659823D01*
X10305075Y-6630625D01*
X10336570Y-6598593D01*
X10365186Y-6563965D01*
X10390710Y-6526998D01*
X10412952Y-6487968D01*
X10431746Y-6447166D01*
X10446952Y-6404895D01*
X10458456Y-6361471D01*
X10458456Y-6361470D01*
X10458457Y-6361469D01*
X10466174Y-6317217D01*
X10466174Y-6317216D01*
X10470047Y-6272461D01*
X10470047Y-6227539D01*
X10466174Y-6182784D01*
X10462969Y-6164403D01*
X10458457Y-6138530D01*
X10457350Y-6134353D01*
X10446952Y-6095105D01*
X10445329Y-6090594D01*
X10431746Y-6052834D01*
X10416155Y-6018985D01*
X10412952Y-6012032D01*
X10390710Y-5973002D01*
X10365186Y-5936035D01*
X10336570Y-5901407D01*
X10305075Y-5869375D01*
X10305074Y-5869374D01*
X10305074Y-5869374D01*
X10270935Y-5840178D01*
X10270934Y-5840177D01*
X10234404Y-5814032D01*
X10234404Y-5814032D01*
X10218037Y-5804335D01*
X10195756Y-5791134D01*
X10195755Y-5791134D01*
X10195754Y-5791133D01*
X10155277Y-5771654D01*
X10155276Y-5771653D01*
X10113270Y-5755736D01*
X10113269Y-5755736D01*
X10070045Y-5743499D01*
X10070045Y-5743499D01*
X10070044Y-5743499D01*
X10045869Y-5738861D01*
X10025927Y-5735035D01*
X10013161Y-5733713D01*
X9981245Y-5730406D01*
X9981244Y-5730406D01*
X9936329Y-5729647D01*
X9936328Y-5729647D01*
X9891515Y-5732764D01*
X9847136Y-5739733D01*
X9847134Y-5739733D01*
X9803523Y-5750502D01*
X9803522Y-5750502D01*
X9761000Y-5764992D01*
X9719888Y-5783093D01*
X9680488Y-5804672D01*
X9680487Y-5804673D01*
X9643095Y-5829569D01*
X9643094Y-5829569D01*
X9643094Y-5829569D01*
X9607989Y-5857595D01*
X9607987Y-5857596D01*
X9575429Y-5888545D01*
X9575428Y-5888546D01*
X9571736Y-5892717D01*
X9565819Y-5896433D01*
X9558833Y-5896360D01*
X9552995Y-5892522D01*
X9550159Y-5886136D01*
X9550050Y-5884500D01*
X9550050Y-4700139D01*
X9550053Y-4699864D01*
X9550755Y-4668161D01*
X9552001Y-4611807D01*
X9552026Y-4611261D01*
X9552200Y-4608637D01*
X9557858Y-4523517D01*
X9557907Y-4522971D01*
X9567615Y-4435568D01*
X9567686Y-4435032D01*
X9581251Y-4348141D01*
X9581348Y-4347603D01*
X9591811Y-4295749D01*
X9598742Y-4261401D01*
X9598862Y-4260868D01*
X9610306Y-4214777D01*
X9611008Y-4212732D01*
X9749399Y-3901351D01*
X9750902Y-3898827D01*
X10248688Y-3251706D01*
X10251810Y-3248836D01*
X10948283Y-2801104D01*
X10951980Y-2799505D01*
X11267771Y-2720557D01*
X11269134Y-2720297D01*
X11328945Y-2712310D01*
X11329489Y-2712250D01*
X11406952Y-2705377D01*
X11409170Y-2705379D01*
G37*
%TD.AperFunction*%
%TD*%
M02*
