M48
; DRILL file KiCad 10.0.4 date 2026-07-27T15:15:26
; FORMAT={-:-/ absolute / metric / decimal}
; #@! TF.CreationDate,2026-07-27T15:15:26+09:00
; #@! TF.GenerationSoftware,Kicad,Pcbnew,10.0.4
; #@! TF.FileFunction,Plated,1,2,PTH
FMAT,2
METRIC
; #@! TA.AperFunction,Plated,PTH,ComponentDrill
T1C0.750
; #@! TA.AperFunction,Plated,PTH,ComponentDrill
T2C0.800
; #@! TA.AperFunction,Plated,PTH,ComponentDrill
T3C1.000
%
G90
G05
T1
X111.96Y-46.0
X113.23Y-46.0
X113.388Y-76.81
X114.5Y-46.0
X114.658Y-76.81
X115.928Y-76.81
X129.96Y-112.5
X131.23Y-112.5
X132.5Y-112.5
T2
X118.0Y-80.69
X118.0Y-88.31
X121.5Y-46.0
X121.5Y-53.62
X125.0Y-110.0
X125.0Y-117.62
T3
X97.0Y-116.76
X97.0Y-132.0
X99.54Y-116.76
X99.54Y-132.0
X102.08Y-116.76
X102.08Y-132.0
X104.62Y-116.76
X104.62Y-132.0
X105.0Y-43.0
X105.0Y-45.54
X105.0Y-48.08
X105.0Y-50.62
X107.16Y-116.76
X107.16Y-132.0
X109.7Y-116.76
X109.7Y-132.0
X111.5Y-83.46
X111.5Y-86.0
X111.5Y-88.54
X111.5Y-91.08
X112.24Y-116.76
X112.24Y-132.0
X114.78Y-116.76
X114.78Y-132.0
X130.5Y-121.19
X130.5Y-123.73
X130.5Y-126.27
X130.5Y-128.81
M30
